<svg width="136" height="16" viewBox="0 0 136 16" fill="none" xmlns="http://www.w3.org/2000/svg">
<g clip-path="url(#clip0_131_17522)">
<path d="M10.3203 0V10.0908H11.351V12.7095H7.50321V11.6949C6.88481 12.4901 6.01906 12.9015 4.85098 12.9015C2.37739 12.9015 0 10.7489 0 7.84233C0 5.03171 2.32242 2.9066 4.78227 2.9066C5.84041 2.9066 6.74739 3.3042 7.51695 4.00343V2.61868H6.48629V0H10.3203ZM7.58566 7.84233C7.58566 6.58098 6.555 5.58012 5.2495 5.58012C3.944 5.58012 2.92708 6.66324 2.92708 7.91088C2.92708 9.18595 3.99896 10.2279 5.2495 10.2279C6.58249 10.2279 7.58566 9.1174 7.58566 7.84233Z" fill="#EF3200"/>
<path d="M16.1471 3.11225V10.0908H17.1502V12.7095H12.2855V10.0908H13.3024V5.71722H12.2855V3.11225H16.1471ZM16.1471 0V2.61868H13.3024V0H16.1471Z" fill="#EF3200"/>
<path d="M23.4029 3.08485H25.2719V5.85435H22.7021C22.6471 5.30593 22.3036 5.0043 21.7401 5.0043C21.2179 5.0043 20.8331 5.29222 20.8331 5.70353C20.8331 6.23824 21.4103 6.47131 22.7708 6.80036C24.0076 7.10199 24.7634 7.47217 25.2306 7.95203C25.6979 8.44561 25.9315 9.07628 25.9315 9.84406C25.9315 11.599 24.5435 12.9289 22.4547 12.9289C21.4241 12.9289 20.7095 12.6958 20.0086 12.1063V12.7095H18.071V9.95375H20.7782C20.8881 10.6118 21.2591 10.8998 21.9737 10.8998C22.6196 10.8998 22.9357 10.557 22.9357 10.132C22.9357 9.65212 22.5921 9.40533 21.4515 9.07628L20.5583 8.8295C20.0086 8.69239 19.5826 8.52787 19.1841 8.28108C18.4008 7.78751 17.8236 7.03344 17.8236 5.93661C17.8236 4.12684 19.3627 2.90662 21.3141 2.90662C22.2074 2.90662 22.8258 3.09856 23.3892 3.6744V3.08485H23.4029Z" fill="#EF3200"/>
<path d="M32.9125 12.9014C32.0192 12.9014 31.0985 12.6821 30.0541 11.8046V13.4087H31.071V16H26.2063V13.395H27.2232V5.7172H26.2063V3.11223H30.0541V4.23648C30.6725 3.35902 31.5932 2.92029 32.7338 2.92029C35.3448 2.92029 37.5985 5.14137 37.5985 7.95199C37.6123 10.5707 35.496 12.9014 32.9125 12.9014ZM34.7127 7.89715C34.7127 6.56725 33.6271 5.5801 32.3216 5.5801C31.016 5.5801 29.9716 6.64951 29.9716 7.91086C29.9716 9.2819 31.1122 10.2279 32.349 10.2279C33.6683 10.2279 34.7127 9.18593 34.7127 7.89715Z" fill="#EF3200"/>
<path d="M45.4041 3.11224H49.2519V5.7035H48.2349V10.0771H49.2519V12.6958H45.4041V11.8732C44.7857 12.5998 43.8649 12.9974 42.7656 12.9974C40.0584 13.0111 37.9283 10.6255 37.9283 7.952C37.9283 5.14137 40.1546 2.81061 42.8755 2.81061C43.9474 2.81061 44.7719 3.20821 45.4041 4.04454V3.11224ZM45.4178 7.88344C45.4178 6.62209 44.4146 5.59381 43.1229 5.59381C41.8311 5.59381 40.8004 6.67693 40.8004 7.93829C40.8004 9.25448 41.8723 10.2279 43.1229 10.2279C44.4284 10.2279 45.4178 9.1448 45.4178 7.88344Z" fill="#EF3200"/>
<path d="M54.2539 0V3.11225H55.5732V5.70351H54.2539V10.0771H55.6282V12.6958H51.4231V5.70351H49.9252V3.11225H51.4231V0H54.2539Z" fill="#EF3200"/>
<path d="M63.1314 3.11224H65.5226V6.56725H62.8841C62.4031 5.96399 61.8534 5.59381 61.0426 5.59381C59.7646 5.59381 58.8714 6.67693 58.8714 7.92457C58.8714 9.22706 59.8471 10.2416 61.1388 10.2416C61.8397 10.2416 62.4443 9.94 62.7741 9.35045H65.9074C65.2752 11.5167 63.2689 13.0111 61.0426 13.0111C58.2118 13.0111 55.9993 10.6392 55.9993 7.89715C55.9993 5.12766 58.198 2.81061 60.809 2.81061C61.6885 2.81061 62.4306 3.11224 63.1314 3.82518V3.11224Z" fill="#EF3200"/>
<path d="M69.9887 0V4.37361C70.6346 3.40017 71.5003 2.92031 72.6272 2.92031C74.7435 2.92031 76.049 4.71637 76.049 6.97858V10.0908H77.0521V12.7095H73.2181V7.65039C73.2181 6.23822 72.6959 5.6898 71.6515 5.6898C70.5658 5.6898 69.9887 6.40274 69.9887 7.59554V10.0908H71.0056V12.7095H66.1409V10.0908H67.1578V2.61868H66.1409V0H69.9887Z" fill="#EF3200"/>
<path d="M81.6146 0.0137329V4.88091C82.3292 3.72924 83.2636 3.08486 84.5691 3.08486C85.5723 3.08486 86.4793 3.46875 87.1389 4.23653C87.7985 5.00431 88.1421 6.0463 88.1421 7.34878V11.0917H89.53V12.6958H85.0501V11.0917H86.4243V7.59557C86.4243 6.62213 86.3006 6.3205 86.1082 5.95032C85.696 5.22367 84.9676 4.79865 84.0744 4.79865C82.7002 4.79865 81.642 5.71725 81.642 7.62299V11.1054H83.0025V12.7095H78.5226V11.0917H79.8968V1.61785H78.5226V0.0137329H81.6146Z" fill="#748491"/>
<path d="M99.3419 8.62386H91.2752C91.6188 10.3514 92.9106 11.4071 94.5459 11.4071C95.7002 11.4071 96.5522 10.9409 97.2119 9.96747H99.0121C98.1463 11.8869 96.4423 12.9563 94.5459 12.9563C91.8387 12.9563 89.585 10.7901 89.585 8.0206C89.585 5.18256 91.8249 3.03003 94.4772 3.03003C97.1157 3.03003 99.3969 5.07287 99.3969 8.03431C99.3969 8.25368 99.3694 8.50047 99.3419 8.62386ZM97.8165 7.29395C97.4455 5.64871 96.085 4.56559 94.4634 4.56559C93.0342 4.56559 91.6463 5.59387 91.2752 7.29395H97.8165Z" fill="#748491"/>
<path d="M108.508 3.27678H111.6V4.8809H110.253V11.0917H111.6V12.6958H108.508V11.0917C107.587 12.3668 106.515 12.8878 105.086 12.8878C102.42 12.8878 100.304 10.6667 100.304 8.03428C100.304 5.38818 102.434 3.08484 105.169 3.08484C106.598 3.08484 107.629 3.63325 108.522 4.90832V3.27678H108.508ZM108.508 7.95202C108.508 6.22451 107.106 4.78492 105.251 4.78492C103.451 4.78492 102.049 6.26564 102.049 7.99315C102.049 9.74808 103.478 11.174 105.251 11.174C107.038 11.1877 108.508 9.76179 108.508 7.95202Z" fill="#748491"/>
<path d="M116.052 0.0137329V11.0917H117.44V12.6958H112.864V11.0917H114.335V1.61785H112.947V0.0137329H116.052Z" fill="#748491"/>
<path d="M120.711 0.0137329V3.2768H122.525V4.88091H120.711V11.0917H122.649V12.6958H118.979V4.88091H117.344V3.2768H118.979V0.0137329H120.711Z" fill="#748491"/>
<path d="M127.129 0.0137329V4.88091C127.843 3.72924 128.778 3.08486 130.083 3.08486C131.086 3.08486 131.993 3.46875 132.653 4.23653C133.313 5.00431 133.656 6.0463 133.656 7.34878V11.0917H135.044V12.6958H130.564V11.0917H131.938V7.59557C131.938 6.62213 131.815 6.3205 131.622 5.95032C131.21 5.22367 130.482 4.79865 129.588 4.79865C128.214 4.79865 127.156 5.71725 127.156 7.62299V11.1054H128.544V12.7095H124.064V11.0917H125.438V1.61785H124.064V0.0137329H127.129Z" fill="#748491"/>
</g>
<defs>
<clipPath id="clip0_131_17522">
<rect width="135.03" height="16" fill="white"/>
</clipPath>
</defs>
</svg>
