<svg width="276" height="51" viewBox="0 0 276 51" fill="none" xmlns="http://www.w3.org/2000/svg">
<path d="M273.616 -43.3986C275.956 -26.459 267.721 -6.88068 257.258 7.40026C249.486 17.9456 239.867 27.4705 228.394 34.5637C208.915 46.6116 184.279 51.1038 161.593 46.8349C138.907 42.5659 118.476 29.4285 106.153 11.3848C98.4703 0.100725 92.4598 -14.2425 90.5987 -27.5626C89.9083 -32.3373 88.2942 -37.6473 87.9105 -42.4787" stroke="#E8DAB9" stroke-width="2.6789" stroke-miterlimit="10"/>
<path d="M96.4448 -43.5049C95.7882 -32.2012 98.9441 -25.4622 101.955 -17.1577C105.536 -7.35292 109.68 2.38979 116.22 10.7221C127.808 25.5526 146.58 34.892 166.237 37.4591C185.894 40.0263 206.439 36.174 224.402 27.9397C229.301 25.7214 234.096 23.1022 238.016 19.5937C242.802 15.3617 246.099 9.90053 249.345 4.59156C257.966 -9.64898 267.032 -26.9732 267.049 -43.1527" stroke="#E8DAB9" stroke-width="2.6789" stroke-miterlimit="10"/>
<path d="M258.685 -42.6691C255.835 -30.2088 250.748 -15.1312 244.208 -3.85489C237.668 7.42146 228.206 17.5484 216.01 23.5982C210.806 26.1761 205.238 27.955 199.567 29.3327C194.56 30.5454 189.145 32.1698 184.077 31.5689C171.995 30.105 160.375 28.9341 148.794 25.3425C142.337 23.3589 136.942 18.9839 131.804 14.8557C126.049 10.1857 120.803 4.90031 116.576 -1.06159C112.298 -7.12324 109.09 -13.9632 107.568 -21.0902C105.889 -28.9196 102.883 -36.3183 104.325 -44.1116" stroke="#E8DAB9" stroke-width="2.6789" stroke-miterlimit="10"/>
<path d="M250.597 -44.0444C246.742 -28.1871 242.038 -8.22933 230.234 3.91107C226.825 7.40931 222.901 10.4141 218.669 13.0221C198.526 25.2342 171.368 26.6027 150.391 16.4009C139.363 11.0338 130.264 2.60249 124.072 -7.35085C120.976 -12.3275 118.8 -17.5753 117.134 -23.136C115.154 -29.7992 112.459 -36.3972 113.138 -43.5187" stroke="#E8DAB9" stroke-width="2.6789" stroke-miterlimit="10"/>
<path d="M241.729 -43.3875C240.367 -30.1525 234.101 -15.4551 225.871 -4.44713C221.046 2.05449 214.938 8.02815 207.386 11.713C202.998 13.8705 198.145 15.1807 193.289 15.9869C174.939 18.9374 155.37 14.0495 141.346 2.94767C127.321 -8.1542 119.096 -25.2234 119.465 -42.4704" stroke="#E8DAB9" stroke-width="2.6789" stroke-miterlimit="10"/>
<path d="M233.495 -44.4219C231.267 -30.5602 226.276 -16.5405 215.995 -6.14235C205.358 4.46486 189.323 10.3938 173.914 8.8979C158.504 7.40196 144.232 -1.57993 137.614 -14.4012C135.133 -19.1902 133.724 -24.3545 132.263 -29.5176C131.376 -32.7262 130.489 -35.9348 129.602 -39.1939C129.133 -40.7976 129.23 -41.8081 129.119 -43.4697" stroke="#E8DAB9" stroke-width="2.6789" stroke-miterlimit="10"/>
<path d="M225.324 -43.4284C223.947 -33.0137 222.501 -26.0259 216.961 -18.903C211.422 -11.7801 203.417 -6.57247 194.841 -2.91596C188.358 -0.109497 181.205 1.85372 174.191 0.990626C164.309 -0.266844 156.394 -6.90942 149.91 -13.8841C142.295 -22.0455 135.435 -32.2392 137.425 -42.9691" stroke="#E8DAB9" stroke-width="2.6789" stroke-miterlimit="10"/>
<path d="M1.13096e-06 -45.6754L90.2305 49.1652L181.62 -45.7001C181.62 -45.7001 1.1339e-06 -45.922 1.13096e-06 -45.6754Z" fill="#ABE3E4"/>
</svg>
