<?xml version="1.0" encoding="utf-8"?>
<!-- Generator: Adobe Illustrator 24.3.0, SVG Export Plug-In . SVG Version: 6.00 Build 0)  -->
<svg version="1.1" id="art" xmlns="http://www.w3.org/2000/svg" xmlns:xlink="http://www.w3.org/1999/xlink" x="0px" y="0px"
	 viewBox="0 0 982.6 116.7" style="enable-background:new 0 0 982.6 116.7;" xml:space="preserve">
<style type="text/css">
	.st0{fill:#EF3200;}
	.st1{fill:#748491;}
</style>
<g>
	<path class="st0" d="M75.1,0v73.6h7.5v19.1h-28v-7.4c-4.5,5.8-10.8,8.8-19.3,8.8C17.3,94.1,0,78.4,0,57.2c0-20.5,16.9-36,34.8-36
		c7.7,0,14.3,2.9,19.9,8V19.1h-7.5V0H75.1z M55.2,57.2c0-9.2-7.5-16.5-17-16.5s-16.9,7.9-16.9,17c0,9.3,7.8,16.9,16.9,16.9
		C47.9,74.6,55.2,66.5,55.2,57.2z"/>
	<path class="st0" d="M117.5,22.7v50.9h7.3v19.1H89.4V73.6h7.4V41.7h-7.4V22.7H117.5z M117.5,0v19.1H96.8V0H117.5z"/>
	<path class="st0" d="M170.3,22.5h13.6v20.2h-18.7c-0.4-4-2.9-6.2-7-6.2c-3.8,0-6.6,2.1-6.6,5.1c0,3.9,4.2,5.6,14.1,8
		c9,2.2,14.5,4.9,17.9,8.4c3.4,3.6,5.1,8.2,5.1,13.8c0,12.8-10.1,22.5-25.3,22.5c-7.5,0-12.7-1.7-17.8-6v4.4h-14.1V72.6h19.7
		c0.8,4.8,3.5,6.9,8.7,6.9c4.7,0,7-2.5,7-5.6c0-3.5-2.5-5.3-10.8-7.7l-6.5-1.8c-4-1-7.1-2.2-10-4c-5.7-3.6-9.9-9.1-9.9-17.1
		c0-13.2,11.2-22.1,25.4-22.1c6.5,0,11,1.4,15.1,5.6V22.5z"/>
	<path class="st0" d="M239.5,94.1c-6.5,0-13.2-1.6-20.8-8v11.7h7.4v18.9h-35.4V97.7h7.4V41.7h-7.4V22.7h28v8.2
		c4.5-6.4,11.2-9.6,19.5-9.6c19,0,35.4,16.2,35.4,36.7C273.7,77.1,258.3,94.1,239.5,94.1z M252.6,57.6c0-9.7-7.9-16.9-17.4-16.9
		c-9.5,0-17.1,7.8-17.1,17c0,10,8.3,16.9,17.3,16.9C245,74.6,252.6,67,252.6,57.6z"/>
	<path class="st0" d="M330.4,22.7h28v18.9H351v31.9h7.4v19.1h-28v-6c-4.5,5.3-11.2,8.2-19.2,8.2C291.5,94.9,276,77.5,276,58
		c0-20.5,16.2-37.5,36-37.5c7.8,0,13.8,2.9,18.4,9V22.7z M330.5,57.5c0-9.2-7.3-16.7-16.7-16.7s-16.9,7.9-16.9,17.1
		c0,9.6,7.8,16.7,16.9,16.7C323.3,74.6,330.5,66.7,330.5,57.5z"/>
	<path class="st0" d="M394.8,0v22.7h9.6v18.9h-9.6v31.9h10v19.1h-30.6v-51h-10.9V22.7h10.9V0H394.8z"/>
	<path class="st0" d="M459.4,22.7h17.4v25.2h-19.2c-3.5-4.4-7.5-7.1-13.4-7.1c-9.3,0-15.8,7.9-15.8,17c0,9.5,7.1,16.9,16.5,16.9
		c5.1,0,9.5-2.2,11.9-6.5h22.8C475,84,460.4,94.9,444.2,94.9c-20.6,0-36.7-17.3-36.7-37.3c0-20.2,16-37.1,35-37.1
		c6.4,0,11.8,2.2,16.9,7.4V22.7z"/>
	<path class="st0" d="M509.3,0v31.9c4.7-7.1,11-10.6,19.2-10.6c15.4,0,24.9,13.1,24.9,29.6v22.7h7.3v19.1h-27.9V55.8
		c0-10.3-3.8-14.3-11.4-14.3c-7.9,0-12.1,5.2-12.1,13.9v18.2h7.4v19.1h-35.4V73.6h7.4V19.1h-7.4V0H509.3z"/>
</g>
<g>
	<g>
		<path class="st1" d="M593.9,0.1v35.5c5.2-8.4,12-13.1,21.5-13.1c7.3,0,13.9,2.8,18.7,8.4c4.8,5.6,7.3,13.2,7.3,22.7v27.3h10.1
			v11.7h-32.6V80.9h10V55.4c0-7.1-0.9-9.3-2.3-12c-3-5.3-8.3-8.4-14.8-8.4c-10,0-17.7,6.7-17.7,20.6v25.4H604v11.7h-32.6V80.9h10
			V11.8h-10V0.1H593.9z"/>
		<path class="st1" d="M722.9,62.9h-58.7c2.5,12.6,11.9,20.3,23.8,20.3c8.4,0,14.6-3.4,19.4-10.5h13.1c-6.3,14-18.7,21.8-32.5,21.8
			c-19.7,0-36.1-15.8-36.1-36c0-20.7,16.3-36.4,35.6-36.4c19.2,0,35.8,14.9,35.8,36.5C723.3,60.2,723.1,62,722.9,62.9z M711.8,53.2
			c-2.7-12-12.6-19.9-24.4-19.9c-10.4,0-20.5,7.5-23.2,19.9H711.8z"/>
		<path class="st1" d="M789.6,23.9l22.5,0v11.7h-9.8v45.3l9.8,0v11.7h-22.5V80.9c-6.7,9.3-14.5,13.1-24.9,13.1
			c-19.4,0-34.8-16.2-34.8-35.4c0-19.3,15.5-36.1,35.4-36.1c10.4,0,17.9,4,24.4,13.3V23.9z M789.6,58c0-12.6-10.2-23.1-23.7-23.1
			c-13.1,0-23.3,10.8-23.3,23.4c0,12.8,10.4,23.2,23.3,23.2C778.9,81.6,789.6,71.2,789.6,58z"/>
		<path class="st1" d="M844.5,0.1v80.8h10.1v11.7h-33.3V80.9H832V11.8h-10.1V0.1H844.5z"/>
		<path class="st1" d="M878.4,0.1v23.8h13.2v11.7h-13.2v45.3h14.1v11.7h-26.7v-57h-11.9V23.9h11.9V0.1H878.4z"/>
		<path class="st1" d="M925.1,0.1v35.5c5.2-8.4,12-13.1,21.5-13.1c7.3,0,13.9,2.8,18.7,8.4c4.8,5.6,7.3,13.2,7.3,22.7v27.3h10.1
			v11.7h-32.6V80.9h10V55.4c0-7.1-0.9-9.3-2.3-12c-3-5.3-8.3-8.4-14.8-8.4c-10,0-17.7,6.7-17.7,20.6v25.4h10.1v11.7h-32.6V80.9h10
			V11.8h-10V0.1H925.1z"/>
	</g>
</g>
<g>
</g>
<g>
</g>
<g>
</g>
<g>
</g>
<g>
</g>
<g>
</g>
</svg>
