<svg width="50" height="50" viewBox="0 0 50 50" fill="none" xmlns="http://www.w3.org/2000/svg">
<path d="M5.00016 45.7685C4.89766 45.7871 4.7926 45.7871 4.6901 45.7685C4.43826 45.6862 4.22941 45.5072 4.10941 45.271C3.98942 45.0347 3.96806 44.7607 4.05009 44.5088C4.85232 42.0352 5.80748 39.6139 6.91007 37.2588C5.56054 34.8711 4.91132 32.1514 5.0369 29.4116C5.16248 26.6718 6.05785 24.0227 7.62016 21.7685C14.2902 11.2685 32.5201 4.19888 43.7001 5.12888C43.927 5.15116 44.1396 5.25005 44.3024 5.40965C44.4652 5.56924 44.5687 5.7799 44.5955 6.00632C44.6223 6.23275 44.571 6.46152 44.45 6.65476C44.329 6.84801 44.1455 6.99411 43.9301 7.06882C29.1535 11.8022 16.8601 22.2071 9.75016 35.9985C22.4902 33.9985 28.2601 26.5789 33.8501 19.3589C37.0201 15.2589 40.0101 11.3585 44.1601 8.45847C44.3762 8.30465 44.6447 8.24302 44.9063 8.28709C45.1679 8.33116 45.4013 8.47767 45.5551 8.69382C45.7089 8.90998 45.7705 9.17831 45.7265 9.43992C45.6824 9.70153 45.5363 9.93502 45.3201 10.0888C41.4101 12.8488 38.5101 16.5986 35.4301 20.5786C29.4301 28.3686 23.1701 36.4287 8.6901 38.1587C7.63663 40.4347 6.72164 42.7723 5.95011 45.1587C5.87163 45.3442 5.73889 45.5015 5.56937 45.6103C5.39986 45.7192 5.20153 45.7744 5.00016 45.7685ZM37.7201 7.23875C27.4201 8.50875 14.5601 14.5186 9.3101 22.7886C6.7601 26.7886 6.31007 30.8787 8.03007 34.9287C14.4243 22.5483 24.9083 12.7641 37.7001 7.23875H37.7201Z" fill="#C5D6E2"/>
<path d="M32.5399 22.519H32.46C31.21 22.419 28.6799 22.3794 27.3099 22.3594H27.1799C26.9147 22.3594 26.6604 22.2539 26.4729 22.0664C26.2854 21.8789 26.1799 21.6246 26.1799 21.3594C26.1799 21.0942 26.2854 20.8394 26.4729 20.6519C26.6604 20.4643 26.9147 20.3594 27.1799 20.3594H27.3199C28.7099 20.3594 31.32 20.4193 32.61 20.5293C32.8752 20.5412 33.1247 20.658 33.3038 20.854C33.4829 21.05 33.5769 21.309 33.5649 21.5742C33.553 21.8394 33.4362 22.089 33.2402 22.2681C33.0443 22.4472 32.7851 22.5412 32.5199 22.5293L32.5399 22.519Z" fill="#C5D6E2"/>
<path d="M21.6401 27.7089C21.3748 27.7262 21.1137 27.6377 20.914 27.4624C20.7143 27.287 20.5923 27.0396 20.5751 26.7744C20.5579 26.5092 20.6467 26.2475 20.8221 26.0478C20.9974 25.8481 21.245 25.7262 21.5102 25.7089C23.7416 25.3856 25.996 25.2488 28.2502 25.2993C28.5286 25.2993 28.7957 25.41 28.9926 25.6069C29.1895 25.8038 29.3001 26.0706 29.3001 26.3491C29.3001 26.6276 29.1895 26.8948 28.9926 27.0918C28.7957 27.2887 28.5286 27.3994 28.2502 27.3994V27.3994C26.0879 27.3451 23.9247 27.4586 21.7801 27.7392C21.7801 27.7392 21.7001 27.7089 21.6401 27.7089Z" fill="#C5D6E2"/>
</svg>
