<svg width="76" height="48" viewBox="0 0 76 48" fill="none" xmlns="http://www.w3.org/2000/svg">
<path fill-rule="evenodd" clip-rule="evenodd" d="M41.0408 32.657C40.7496 32.657 40.468 32.4954 40.3272 32.2074C40.1272 31.8234 40.2824 31.3435 40.676 31.1355C44.3256 29.2811 45.092 24.4492 45.092 20.7357C45.092 20.2893 45.4488 19.9357 45.892 19.9357C47.4408 19.9357 48.4008 19.3134 48.4008 18.7358V14.7359C48.4008 13.8719 48.4008 13.5359 46.0008 13.5359C45.5592 13.5359 45.2008 13.1679 45.2008 12.7359V8.73603C45.2008 6.0337 44.5592 4.14415 43.2936 3.10418C41.9672 2.0162 39.8872 1.76181 36.9336 2.33619C36.5016 2.41779 36.0792 2.1442 35.996 1.71381C35.9096 1.28182 36.1928 0.849833 36.6264 0.768235C40.0744 0.0818521 42.5896 0.449843 44.3096 1.85781C45.9624 3.21617 46.8008 5.53611 46.8008 8.73603V11.952C49.468 12.0959 50.0008 13.0719 50.0008 14.7359V18.7358C50.0008 20.1597 48.6456 21.2493 46.6808 21.4893C46.5704 25.5356 45.5144 30.4651 41.4024 32.5594C41.2872 32.625 41.1624 32.657 41.0408 32.657Z" fill="#E0E0E0"/>
<path fill-rule="evenodd" clip-rule="evenodd" d="M57.0408 32.657C56.7496 32.657 56.468 32.4954 56.3272 32.2074C56.1272 31.8234 56.2824 31.3435 56.676 31.1355C60.5176 29.1835 61.092 23.7596 61.092 20.7037C61.092 20.4813 61.1768 20.2717 61.3304 20.1277C61.4824 19.9853 61.7096 19.9357 61.9032 19.9037C62.8712 19.8893 63.7192 19.6654 64.1496 19.2494C64.316 19.0894 64.4008 18.9134 64.4008 18.7358V14.7359C64.4008 13.8719 64.4008 13.5359 62.0008 13.5359C61.5592 13.5359 61.2008 13.1679 61.2008 12.7359V8.73603C61.2008 6.0337 60.5592 4.14415 59.2936 3.10418C57.9672 2.0162 55.8872 1.76181 52.9336 2.33619C52.4984 2.41779 52.0808 2.1442 51.996 1.71381C51.9096 1.28182 52.1928 0.849833 52.6264 0.768235C56.076 0.0818521 58.5912 0.449843 60.3096 1.85781C61.9624 3.21617 62.8008 5.53611 62.8008 8.73603V11.952C65.468 12.0959 66.0008 13.0719 66.0008 14.7359V18.7358C66.0008 19.3438 65.748 19.9197 65.2712 20.3837C64.6664 20.9757 63.764 21.3597 62.6808 21.4557C62.5688 25.5212 61.5112 30.4811 57.4024 32.5594C57.2872 32.625 57.1624 32.657 57.0408 32.657Z" fill="#E0E0E0"/>
<path fill-rule="evenodd" clip-rule="evenodd" d="M27.122 1.04039C25.506 1.04039 23.042 1.44038 20.4804 3.37633C20.3412 3.47233 20.1732 3.53633 20.0004 3.53633C12.242 3.53633 11.6004 5.98426 11.6004 8.73619V12.7361C11.6004 13.0257 11.4436 13.2817 11.1924 13.4257C10.6932 13.7137 10.0004 14.3217 10.0004 14.736V18.7359C10.0004 19.0895 10.0004 19.9359 11.8916 19.9359C12.3332 19.9359 12.6916 20.2895 12.6916 20.7359C12.6916 25.9038 16.5748 31.9356 21.5812 31.9356C26.738 31.9356 30.8916 25.8078 30.8916 20.7359C30.8916 20.2895 31.2484 19.9359 31.6916 19.9359C33.05 19.9359 34.0004 19.4399 34.0004 18.7359V14.736C34.0004 14.3217 33.3076 13.7137 32.8084 13.4257C32.5572 13.2817 32.4004 13.0257 32.4004 12.7361V8.73619C32.4004 8.5442 32.4628 8.3682 32.5748 8.22581C33.6868 6.84984 33.9444 5.42428 33.322 4.12831C32.434 2.28996 29.9428 1.04039 27.122 1.04039ZM21.5812 33.5356C15.826 33.5356 11.466 27.3133 11.114 21.4895C8.60999 21.1679 8.40039 19.3295 8.40039 18.7359V14.736C8.40039 13.5841 9.40519 12.7041 10.0004 12.2881V8.73619C10.0004 3.95391 12.826 1.98596 19.7364 1.93637C22.5748 -0.127581 25.3092 -0.55957 27.122 -0.55957C30.5988 -0.55957 33.5988 1.00839 34.7652 3.44033C35.6228 5.21628 35.3492 7.18423 34.0004 9.00819V12.2881C34.5956 12.7041 35.6004 13.5841 35.6004 14.736V18.7359C35.6004 19.9855 34.6228 21.2495 32.4644 21.4895C32.0676 27.1197 27.3636 33.5356 21.5812 33.5356Z" fill="#E0E0E0"/>
<path fill-rule="evenodd" clip-rule="evenodd" d="M1.20039 47.7269C0.758791 47.7269 0.400391 47.3749 0.400391 46.9285V44.735C0.400391 39.0887 4.20679 35.7272 10.5812 35.7272H13.162L16.3972 31.0553C16.6484 30.6889 17.146 30.5929 17.5108 30.8489C17.874 31.1033 17.9652 31.5993 17.7124 31.9673L14.2388 36.9751C14.09 37.1991 13.8436 37.3287 13.5812 37.3287H10.5812C5.12839 37.3287 2.00039 40.0327 2.00039 44.735V46.9285C2.00039 47.3749 1.64199 47.7269 1.20039 47.7269Z" fill="#E0E0E0"/>
<path fill-rule="evenodd" clip-rule="evenodd" d="M42.8007 47.7269C42.3591 47.7269 42.0007 47.3749 42.0007 46.9286V44.735C42.0007 39.2648 37.2215 37.3288 32.7479 37.3288H29.7479C29.4711 37.3288 29.2151 37.1832 29.0695 36.9432L25.9319 31.9353C25.6983 31.5529 25.8119 31.0554 26.1863 30.8314C26.5623 30.593 27.0551 30.7034 27.2887 31.089L30.1911 35.7272H32.7479C39.3399 35.7272 43.6007 39.2648 43.6007 44.735V46.9286C43.6007 47.3749 43.2423 47.7269 42.8007 47.7269Z" fill="#E0E0E0"/>
<path fill-rule="evenodd" clip-rule="evenodd" d="M58.8007 47.7269C58.3591 47.7269 58.0007 47.3749 58.0007 46.9286V44.735C58.0007 39.2648 53.2215 37.3288 48.7479 37.3288H45.7479C45.4711 37.3288 45.2151 37.1832 45.0695 36.9432L41.9319 31.9353C41.6983 31.5529 41.8119 31.0554 42.1863 30.8314C42.5623 30.593 43.0551 30.7034 43.2887 31.089L46.1911 35.7272H48.7479C55.3399 35.7272 59.6007 39.2648 59.6007 44.735V46.9286C59.6007 47.3749 59.2423 47.7269 58.8007 47.7269Z" fill="#E0E0E0"/>
<path fill-rule="evenodd" clip-rule="evenodd" d="M74.8007 47.7269C74.3591 47.7269 74.0007 47.3749 74.0007 46.9286V44.735C74.0007 39.2648 69.2215 37.3288 64.7479 37.3288H61.7479C61.4711 37.3288 61.2151 37.1832 61.0695 36.9432L57.9319 31.9353C57.6983 31.5529 57.8119 31.0554 58.1863 30.8314C58.5623 30.593 59.0551 30.7034 59.2887 31.089L62.1911 35.7272H64.7479C71.3399 35.7272 75.6007 39.2648 75.6007 44.735V46.9286C75.6007 47.3749 75.2423 47.7269 74.8007 47.7269Z" fill="#E0E0E0"/>
</svg>
