<?xml version="1.0" encoding="UTF-8" standalone="no"?>
<!DOCTYPE svg PUBLIC "-//W3C//DTD SVG 1.1//EN"
 "http://www.w3.org/Graphics/SVG/1.1/DTD/svg11.dtd">
<!-- Generated by graphviz version 2.50.0 (20211204.2007)
 -->
<!-- Title: G Pages: 1 -->
<svg width="794pt" height="329pt"
 viewBox="0.00 0.00 794.00 329.00" xmlns="http://www.w3.org/2000/svg" xmlns:xlink="http://www.w3.org/1999/xlink">
<g id="graph0" class="graph" transform="scale(1 1) rotate(0) translate(4 325)">
<title>G</title>
<polygon fill="white" stroke="transparent" points="-4,4 -4,-325 790,-325 790,4 -4,4"/>
<g id="clust1" class="cluster">
<title>cluster_Universal</title>
<polygon fill="none" stroke="black" points="8,-238 8,-313 150,-313 150,-238 8,-238"/>
<text text-anchor="middle" x="79" y="-297.8" font-family="Times,serif" font-size="14.00">Universal</text>
</g>
<g id="clust2" class="cluster">
<title>cluster_Frontend</title>
<polygon fill="none" stroke="black" points="158,-238 158,-313 605,-313 605,-238 158,-238"/>
<text text-anchor="middle" x="381.5" y="-297.8" font-family="Times,serif" font-size="14.00">Applications/FE</text>
</g>
<g id="clust3" class="cluster">
<title>cluster_Backend</title>
<polygon fill="none" stroke="black" points="170,-8 170,-230 378,-230 378,-8 170,-8"/>
<text text-anchor="middle" x="274" y="-214.8" font-family="Times,serif" font-size="14.00">Backend</text>
</g>
<g id="clust4" class="cluster">
<title>cluster_External</title>
<polygon fill="none" stroke="black" points="386,-80 386,-155 778,-155 778,-80 386,-80"/>
<text text-anchor="middle" x="582" y="-139.8" font-family="Times,serif" font-size="14.00">External</text>
</g>
<!-- Auth0 -->
<g id="node1" class="node">
<title>Auth0</title>
<path fill="none" stroke="black" d="M130,-282C130,-282 100,-282 100,-282 94,-282 88,-276 88,-270 88,-270 88,-258 88,-258 88,-252 94,-246 100,-246 100,-246 130,-246 130,-246 136,-246 142,-252 142,-258 142,-258 142,-270 142,-270 142,-276 136,-282 130,-282"/>
<text text-anchor="middle" x="115" y="-260.3" font-family="Times,serif" font-size="14.00">Auth0</text>
</g>
<!-- WSS -->
<g id="node2" class="node">
<title>WSS</title>
<path fill="none" stroke="black" d="M58,-282C58,-282 28,-282 28,-282 22,-282 16,-276 16,-270 16,-270 16,-258 16,-258 16,-252 22,-246 28,-246 28,-246 58,-246 58,-246 64,-246 70,-252 70,-258 70,-258 70,-270 70,-270 70,-276 64,-282 58,-282"/>
<text text-anchor="middle" x="43" y="-260.3" font-family="Times,serif" font-size="14.00">WSS</text>
</g>
<!-- DashboardFE -->
<g id="node3" class="node">
<title>DashboardFE</title>
<path fill="none" stroke="black" d="M245.5,-282C245.5,-282 178.5,-282 178.5,-282 172.5,-282 166.5,-276 166.5,-270 166.5,-270 166.5,-258 166.5,-258 166.5,-252 172.5,-246 178.5,-246 178.5,-246 245.5,-246 245.5,-246 251.5,-246 257.5,-252 257.5,-258 257.5,-258 257.5,-270 257.5,-270 257.5,-276 251.5,-282 245.5,-282"/>
<text text-anchor="middle" x="212" y="-260.3" font-family="Times,serif" font-size="14.00">DashboardFE</text>
</g>
<!-- DashboardBE -->
<g id="node7" class="node">
<title>DashboardBE</title>
<path fill="none" stroke="black" d="M358,-199C358,-199 290,-199 290,-199 284,-199 278,-193 278,-187 278,-187 278,-175 278,-175 278,-169 284,-163 290,-163 290,-163 358,-163 358,-163 364,-163 370,-169 370,-175 370,-175 370,-187 370,-187 370,-193 364,-199 358,-199"/>
<text text-anchor="middle" x="324" y="-177.3" font-family="Times,serif" font-size="14.00">DashboardBE</text>
</g>
<!-- DashboardFE&#45;&gt;DashboardBE -->
<g id="edge1" class="edge">
<title>DashboardFE&#45;&gt;DashboardBE</title>
<path fill="none" stroke="black" d="M240.17,-245.91C248,-240.95 256.43,-235.41 264,-230 274.69,-222.37 286.03,-213.51 295.94,-205.49"/>
<polygon fill="black" stroke="black" points="298.35,-208.04 303.88,-199.01 293.92,-202.62 298.35,-208.04"/>
</g>
<!-- LogisticsSvc -->
<g id="node8" class="node">
<title>LogisticsSvc</title>
<path fill="none" stroke="black" d="M252,-124C252,-124 190,-124 190,-124 184,-124 178,-118 178,-112 178,-112 178,-100 178,-100 178,-94 184,-88 190,-88 190,-88 252,-88 252,-88 258,-88 264,-94 264,-100 264,-100 264,-112 264,-112 264,-118 258,-124 252,-124"/>
<text text-anchor="middle" x="221" y="-102.3" font-family="Times,serif" font-size="14.00">LogisticsSvc</text>
</g>
<!-- DashboardFE&#45;&gt;LogisticsSvc -->
<g id="edge5" class="edge">
<title>DashboardFE&#45;&gt;LogisticsSvc</title>
<path fill="none" stroke="black" d="M213,-245.71C214.55,-218.77 217.57,-166.54 219.42,-134.42"/>
<polygon fill="black" stroke="black" points="222.92,-134.55 220,-124.37 215.93,-134.15 222.92,-134.55"/>
</g>
<!-- RiskStratSvc -->
<g id="node9" class="node">
<title>RiskStratSvc</title>
<path fill="none" stroke="black" d="M357.5,-124C357.5,-124 294.5,-124 294.5,-124 288.5,-124 282.5,-118 282.5,-112 282.5,-112 282.5,-100 282.5,-100 282.5,-94 288.5,-88 294.5,-88 294.5,-88 357.5,-88 357.5,-88 363.5,-88 369.5,-94 369.5,-100 369.5,-100 369.5,-112 369.5,-112 369.5,-118 363.5,-124 357.5,-124"/>
<text text-anchor="middle" x="326" y="-102.3" font-family="Times,serif" font-size="14.00">RiskStratSvc</text>
</g>
<!-- DashboardFE&#45;&gt;RiskStratSvc -->
<g id="edge6" class="edge">
<title>DashboardFE&#45;&gt;RiskStratSvc</title>
<path fill="none" stroke="black" d="M221.42,-245.88C236.11,-219.29 263.36,-170.32 269,-163 277.7,-151.7 288.6,-140.45 298.54,-131.02"/>
<polygon fill="black" stroke="black" points="300.94,-133.57 305.89,-124.2 296.18,-128.44 300.94,-133.57"/>
</g>
<!-- CallManagerSvc -->
<g id="node12" class="node">
<title>CallManagerSvc</title>
<path fill="none" stroke="black" d="M672,-124C672,-124 588,-124 588,-124 582,-124 576,-118 576,-112 576,-112 576,-100 576,-100 576,-94 582,-88 588,-88 588,-88 672,-88 672,-88 678,-88 684,-94 684,-100 684,-100 684,-112 684,-112 684,-118 678,-124 672,-124"/>
<text text-anchor="middle" x="630" y="-102.3" font-family="Times,serif" font-size="14.00">CallManagerSvc</text>
</g>
<!-- DashboardFE&#45;&gt;CallManagerSvc -->
<g id="edge7" class="edge">
<title>DashboardFE&#45;&gt;CallManagerSvc</title>
<path fill="none" stroke="black" d="M244.46,-245.95C251.71,-242.8 259.48,-239.91 267,-238 316.67,-225.42 332.08,-241.55 382,-230 468.44,-210.01 489.92,-198.94 567,-155 579.25,-148.01 591.8,-138.92 602.44,-130.53"/>
<polygon fill="black" stroke="black" points="604.94,-133.01 610.52,-124 600.54,-127.56 604.94,-133.01"/>
</g>
<!-- RoverIOS -->
<g id="node4" class="node">
<title>RoverIOS</title>
<path fill="none" stroke="black" d="M584.5,-282C584.5,-282 537.5,-282 537.5,-282 531.5,-282 525.5,-276 525.5,-270 525.5,-270 525.5,-258 525.5,-258 525.5,-252 531.5,-246 537.5,-246 537.5,-246 584.5,-246 584.5,-246 590.5,-246 596.5,-252 596.5,-258 596.5,-258 596.5,-270 596.5,-270 596.5,-276 590.5,-282 584.5,-282"/>
<text text-anchor="middle" x="561" y="-260.3" font-family="Times,serif" font-size="14.00">RoverIOS</text>
</g>
<!-- RoverIOS&#45;&gt;DashboardBE -->
<g id="edge2" class="edge">
<title>RoverIOS&#45;&gt;DashboardBE</title>
<path fill="none" stroke="black" d="M533.09,-245.86C527.85,-243.01 522.34,-240.26 517,-238 472.35,-219.15 419.33,-204.27 380.17,-194.6"/>
<polygon fill="black" stroke="black" points="380.82,-191.15 370.28,-192.19 379.17,-197.95 380.82,-191.15"/>
</g>
<!-- ConsumerIOS -->
<g id="node5" class="node">
<title>ConsumerIOS</title>
<path fill="none" stroke="black" d="M495.5,-282C495.5,-282 424.5,-282 424.5,-282 418.5,-282 412.5,-276 412.5,-270 412.5,-270 412.5,-258 412.5,-258 412.5,-252 418.5,-246 424.5,-246 424.5,-246 495.5,-246 495.5,-246 501.5,-246 507.5,-252 507.5,-258 507.5,-258 507.5,-270 507.5,-270 507.5,-276 501.5,-282 495.5,-282"/>
<text text-anchor="middle" x="460" y="-260.3" font-family="Times,serif" font-size="14.00">ConsumerIOS</text>
</g>
<!-- ConsumerIOS&#45;&gt;DashboardBE -->
<g id="edge3" class="edge">
<title>ConsumerIOS&#45;&gt;DashboardBE</title>
<path fill="none" stroke="black" d="M431.16,-245.82C410.87,-233.74 383.54,-217.46 361.55,-204.36"/>
<polygon fill="black" stroke="black" points="363.18,-201.26 352.8,-199.15 359.6,-207.28 363.18,-201.26"/>
</g>
<!-- ConsumerAndroid -->
<g id="node6" class="node">
<title>ConsumerAndroid</title>
<path fill="none" stroke="black" d="M382,-282C382,-282 288,-282 288,-282 282,-282 276,-276 276,-270 276,-270 276,-258 276,-258 276,-252 282,-246 288,-246 288,-246 382,-246 382,-246 388,-246 394,-252 394,-258 394,-258 394,-270 394,-270 394,-276 388,-282 382,-282"/>
<text text-anchor="middle" x="335" y="-260.3" font-family="Times,serif" font-size="14.00">ConsumerAndroid</text>
</g>
<!-- ConsumerAndroid&#45;&gt;DashboardBE -->
<g id="edge4" class="edge">
<title>ConsumerAndroid&#45;&gt;DashboardBE</title>
<path fill="none" stroke="black" d="M332.67,-245.82C331.22,-235.19 329.34,-221.31 327.69,-209.2"/>
<polygon fill="black" stroke="black" points="331.14,-208.59 326.33,-199.15 324.21,-209.53 331.14,-208.59"/>
</g>
<!-- DashboardBE&#45;&gt;LogisticsSvc -->
<g id="edge8" class="edge">
<title>DashboardBE&#45;&gt;LogisticsSvc</title>
<path fill="none" stroke="black" d="M285.98,-162.9C281.49,-160.44 277.07,-157.79 273,-155 263.07,-148.2 253.12,-139.57 244.62,-131.51"/>
<polygon fill="black" stroke="black" points="246.87,-128.81 237.27,-124.33 241.98,-133.82 246.87,-128.81"/>
</g>
<!-- DashboardBE&#45;&gt;RiskStratSvc -->
<g id="edge9" class="edge">
<title>DashboardBE&#45;&gt;RiskStratSvc</title>
<path fill="none" stroke="black" d="M324.47,-162.7C324.71,-154.25 324.99,-143.87 325.25,-134.37"/>
<polygon fill="black" stroke="black" points="328.75,-134.27 325.53,-124.18 321.76,-134.08 328.75,-134.27"/>
</g>
<!-- VerityStream -->
<g id="node13" class="node">
<title>VerityStream</title>
<path fill="none" stroke="black" d="M545.5,-124C545.5,-124 480.5,-124 480.5,-124 474.5,-124 468.5,-118 468.5,-112 468.5,-112 468.5,-100 468.5,-100 468.5,-94 474.5,-88 480.5,-88 480.5,-88 545.5,-88 545.5,-88 551.5,-88 557.5,-94 557.5,-100 557.5,-100 557.5,-112 557.5,-112 557.5,-118 551.5,-124 545.5,-124"/>
<text text-anchor="middle" x="513" y="-102.3" font-family="Times,serif" font-size="14.00">VerityStream</text>
</g>
<!-- DashboardBE&#45;&gt;VerityStream -->
<g id="edge11" class="edge">
<title>DashboardBE&#45;&gt;VerityStream</title>
<path fill="none" stroke="black" d="M370,-177.65C397.05,-174.8 431.27,-168.56 459,-155 470.8,-149.23 481.97,-140.15 491.07,-131.44"/>
<polygon fill="black" stroke="black" points="493.61,-133.84 498.18,-124.28 488.65,-128.9 493.61,-133.84"/>
</g>
<!-- Athena -->
<g id="node14" class="node">
<title>Athena</title>
<path fill="none" stroke="black" d="M438,-124C438,-124 406,-124 406,-124 400,-124 394,-118 394,-112 394,-112 394,-100 394,-100 394,-94 400,-88 406,-88 406,-88 438,-88 438,-88 444,-88 450,-94 450,-100 450,-100 450,-112 450,-112 450,-118 444,-124 438,-124"/>
<text text-anchor="middle" x="422" y="-102.3" font-family="Times,serif" font-size="14.00">Athena</text>
</g>
<!-- DashboardBE&#45;&gt;Athena -->
<g id="edge10" class="edge">
<title>DashboardBE&#45;&gt;Athena</title>
<path fill="none" stroke="black" d="M369.5,-162.9C373.88,-160.52 378.13,-157.89 382,-155 390.39,-148.74 398.13,-140.38 404.53,-132.39"/>
<polygon fill="black" stroke="black" points="407.41,-134.38 410.68,-124.3 401.84,-130.14 407.41,-134.38"/>
</g>
<!-- Vroom -->
<g id="node10" class="node">
<title>Vroom</title>
<path fill="none" stroke="black" d="M236.5,-52C236.5,-52 205.5,-52 205.5,-52 199.5,-52 193.5,-46 193.5,-40 193.5,-40 193.5,-28 193.5,-28 193.5,-22 199.5,-16 205.5,-16 205.5,-16 236.5,-16 236.5,-16 242.5,-16 248.5,-22 248.5,-28 248.5,-28 248.5,-40 248.5,-40 248.5,-46 242.5,-52 236.5,-52"/>
<text text-anchor="middle" x="221" y="-30.3" font-family="Times,serif" font-size="14.00">Vroom</text>
</g>
<!-- LogisticsSvc&#45;&gt;Vroom -->
<g id="edge12" class="edge">
<title>LogisticsSvc&#45;&gt;Vroom</title>
<path fill="none" stroke="black" d="M221,-87.7C221,-79.98 221,-70.71 221,-62.11"/>
<polygon fill="black" stroke="black" points="224.5,-62.1 221,-52.1 217.5,-62.1 224.5,-62.1"/>
</g>
<!-- EhrAdapter -->
<g id="node11" class="node">
<title>EhrAdapter</title>
<path fill="none" stroke="black" d="M758,-124C758,-124 714,-124 714,-124 708,-124 702,-118 702,-112 702,-112 702,-100 702,-100 702,-94 708,-88 714,-88 714,-88 758,-88 758,-88 764,-88 770,-94 770,-100 770,-100 770,-112 770,-112 770,-118 764,-124 758,-124"/>
<text text-anchor="middle" x="736" y="-102.3" font-family="Times,serif" font-size="14.00">labresults</text>
</g>
</g>
</svg>
