<?xml version="1.0" encoding="UTF-8" standalone="no"?>
<!DOCTYPE svg PUBLIC "-//W3C//DTD SVG 1.1//EN"
 "http://www.w3.org/Graphics/SVG/1.1/DTD/svg11.dtd">
<!-- Generated by graphviz version 2.50.0 (20211204.2007)
 -->
<!-- Title: G Pages: 1 -->
<svg width="778pt" height="326pt"
 viewBox="0.00 0.00 777.50 326.00" xmlns="http://www.w3.org/2000/svg" xmlns:xlink="http://www.w3.org/1999/xlink">
<g id="graph0" class="graph" transform="scale(1 1) rotate(0) translate(4 322)">
<title>G</title>
<polygon fill="white" stroke="transparent" points="-4,4 -4,-322 773.5,-322 773.5,4 -4,4"/>
<g id="clust1" class="cluster">
<title>cluster_Dashboard</title>
<polygon fill="none" stroke="black" points="155,-91 155,-310 656,-310 656,-91 155,-91"/>
<text text-anchor="middle" x="405.5" y="-294.8" font-family="Times,serif" font-size="14.00">Dashboard</text>
</g>
<g id="clust2" class="cluster">
<title>cluster_Athena</title>
<polygon fill="none" stroke="black" points="8,-8 8,-83 568,-83 568,-8 8,-8"/>
<text text-anchor="middle" x="288" y="-67.8" font-family="Times,serif" font-size="14.00">EHR</text>
</g>
<!-- Market -->
<g id="node1" class="node">
<title>Market</title>
<path fill="none" stroke="lightgrey" d="M276.5,-207C276.5,-207 175.5,-207 175.5,-207 169.5,-207 163.5,-201 163.5,-195 163.5,-195 163.5,-183 163.5,-183 163.5,-177 169.5,-171 175.5,-171 175.5,-171 276.5,-171 276.5,-171 282.5,-171 288.5,-177 288.5,-183 288.5,-183 288.5,-195 288.5,-195 288.5,-201 282.5,-207 276.5,-207"/>
<text text-anchor="middle" x="226" y="-185.3" font-family="Times,serif" font-size="14.00">Market/Billing City</text>
</g>
<!-- CareRequest -->
<g id="node9" class="node">
<title>CareRequest</title>
<path fill="none" stroke="lightgrey" d="M535,-135C535,-135 473,-135 473,-135 467,-135 461,-129 461,-123 461,-123 461,-111 461,-111 461,-105 467,-99 473,-99 473,-99 535,-99 535,-99 541,-99 547,-105 547,-111 547,-111 547,-123 547,-123 547,-129 541,-135 535,-135"/>
<text text-anchor="middle" x="504" y="-113.3" font-family="Times,serif" font-size="14.00">CareRequest</text>
</g>
<!-- Market&#45;&gt;CareRequest -->
<g id="edge7" class="edge">
<title>Market&#45;&gt;CareRequest</title>
<path fill="none" stroke="black" d="M288.74,-172.2C337.67,-159.88 404.87,-142.96 451.11,-131.32"/>
<polygon fill="black" stroke="black" points="452.09,-134.68 460.93,-128.85 450.38,-127.89 452.09,-134.68"/>
</g>
<!-- EhrDepartment -->
<g id="node10" class="node">
<title>EhrDepartment</title>
<path fill="none" stroke="blue" d="M108,-52C108,-52 28,-52 28,-52 22,-52 16,-46 16,-40 16,-40 16,-28 16,-28 16,-22 22,-16 28,-16 28,-16 108,-16 108,-16 114,-16 120,-22 120,-28 120,-28 120,-40 120,-40 120,-46 114,-52 108,-52"/>
<text text-anchor="middle" x="68" y="-30.3" font-family="Times,serif" font-size="14.00">Ehr Department</text>
</g>
<!-- Market&#45;&gt;EhrDepartment -->
<g id="edge1" class="edge">
<title>Market&#45;&gt;EhrDepartment</title>
<path fill="none" stroke="black" d="M208.18,-170.75C180.09,-143.54 125.4,-90.58 93.26,-59.46"/>
<polygon fill="black" stroke="black" points="95.61,-56.87 85.99,-52.43 90.74,-61.9 95.61,-56.87"/>
</g>
<!-- Patient -->
<g id="node2" class="node">
<title>Patient</title>
<path fill="none" stroke="lightgrey" d="M349,-207C349,-207 319,-207 319,-207 313,-207 307,-201 307,-195 307,-195 307,-183 307,-183 307,-177 313,-171 319,-171 319,-171 349,-171 349,-171 355,-171 361,-177 361,-183 361,-183 361,-195 361,-195 361,-201 355,-207 349,-207"/>
<text text-anchor="middle" x="334" y="-185.3" font-family="Times,serif" font-size="14.00">Patient</text>
</g>
<!-- InsurancePlan -->
<g id="node8" class="node">
<title>InsurancePlan</title>
<path fill="none" stroke="lightgrey" d="M402.5,-135C402.5,-135 333.5,-135 333.5,-135 327.5,-135 321.5,-129 321.5,-123 321.5,-123 321.5,-111 321.5,-111 321.5,-105 327.5,-99 333.5,-99 333.5,-99 402.5,-99 402.5,-99 408.5,-99 414.5,-105 414.5,-111 414.5,-111 414.5,-123 414.5,-123 414.5,-129 408.5,-135 402.5,-135"/>
<text text-anchor="middle" x="368" y="-113.3" font-family="Times,serif" font-size="14.00">InsurancePlan</text>
</g>
<!-- Patient&#45;&gt;InsurancePlan -->
<g id="edge10" class="edge">
<title>Patient&#45;&gt;InsurancePlan</title>
<path fill="none" stroke="black" d="M342.4,-170.7C346.27,-162.73 350.95,-153.1 355.24,-144.26"/>
<polygon fill="black" stroke="black" points="358.47,-145.63 359.69,-135.1 352.17,-142.57 358.47,-145.63"/>
</g>
<!-- Patient&#45;&gt;CareRequest -->
<g id="edge9" class="edge">
<title>Patient&#45;&gt;CareRequest</title>
<path fill="none" stroke="black" d="M361.01,-175.4C364.36,-173.89 367.75,-172.39 371,-171 397.32,-159.72 426.89,-147.86 451.45,-138.22"/>
<polygon fill="black" stroke="black" points="452.9,-141.41 460.94,-134.51 450.36,-134.89 452.9,-141.41"/>
</g>
<!-- EhrPatient -->
<g id="node13" class="node">
<title>EhrPatient</title>
<path fill="none" stroke="blue" d="M203.5,-52C203.5,-52 150.5,-52 150.5,-52 144.5,-52 138.5,-46 138.5,-40 138.5,-40 138.5,-28 138.5,-28 138.5,-22 144.5,-16 150.5,-16 150.5,-16 203.5,-16 203.5,-16 209.5,-16 215.5,-22 215.5,-28 215.5,-28 215.5,-40 215.5,-40 215.5,-46 209.5,-52 203.5,-52"/>
<text text-anchor="middle" x="177" y="-30.3" font-family="Times,serif" font-size="14.00">Ehr Patient</text>
</g>
<!-- Patient&#45;&gt;EhrPatient -->
<g id="edge2" class="edge">
<title>Patient&#45;&gt;EhrPatient</title>
<path fill="none" stroke="black" d="M315.77,-170.64C294.04,-149.9 256.69,-114.1 225,-83 217.3,-75.45 208.98,-67.16 201.45,-59.63"/>
<polygon fill="black" stroke="black" points="203.79,-57.02 194.25,-52.41 198.83,-61.96 203.79,-57.02"/>
</g>
<!-- Channel -->
<g id="node3" class="node">
<title>Channel</title>
<path fill="none" stroke="lightgrey" d="M523,-279C523,-279 485,-279 485,-279 479,-279 473,-273 473,-267 473,-267 473,-255 473,-255 473,-249 479,-243 485,-243 485,-243 523,-243 523,-243 529,-243 535,-249 535,-255 535,-255 535,-267 535,-267 535,-273 529,-279 523,-279"/>
<text text-anchor="middle" x="504" y="-257.3" font-family="Times,serif" font-size="14.00">Channel</text>
</g>
<!-- ChannelItem -->
<g id="node4" class="node">
<title>ChannelItem</title>
<path fill="none" stroke="lightgrey" d="M535.5,-207C535.5,-207 472.5,-207 472.5,-207 466.5,-207 460.5,-201 460.5,-195 460.5,-195 460.5,-183 460.5,-183 460.5,-177 466.5,-171 472.5,-171 472.5,-171 535.5,-171 535.5,-171 541.5,-171 547.5,-177 547.5,-183 547.5,-183 547.5,-195 547.5,-195 547.5,-201 541.5,-207 535.5,-207"/>
<text text-anchor="middle" x="504" y="-185.3" font-family="Times,serif" font-size="14.00">ChannelItem</text>
</g>
<!-- Channel&#45;&gt;ChannelItem -->
<g id="edge14" class="edge">
<title>Channel&#45;&gt;ChannelItem</title>
<path fill="none" stroke="black" d="M504,-242.7C504,-234.98 504,-225.71 504,-217.11"/>
<polygon fill="black" stroke="black" points="507.5,-217.1 504,-207.1 500.5,-217.1 507.5,-217.1"/>
</g>
<!-- ChannelItem&#45;&gt;CareRequest -->
<g id="edge15" class="edge">
<title>ChannelItem&#45;&gt;CareRequest</title>
<path fill="none" stroke="black" d="M504,-170.7C504,-162.98 504,-153.71 504,-145.11"/>
<polygon fill="black" stroke="black" points="507.5,-145.1 504,-135.1 500.5,-145.1 507.5,-145.1"/>
</g>
<!-- User -->
<g id="node5" class="node">
<title>User</title>
<path fill="none" stroke="lightgrey" d="M349,-279C349,-279 319,-279 319,-279 313,-279 307,-273 307,-267 307,-267 307,-255 307,-255 307,-249 313,-243 319,-243 319,-243 349,-243 349,-243 355,-243 361,-249 361,-255 361,-255 361,-267 361,-267 361,-273 355,-279 349,-279"/>
<text text-anchor="middle" x="334" y="-257.3" font-family="Times,serif" font-size="14.00">User</text>
</g>
<!-- User&#45;&gt;Patient -->
<g id="edge6" class="edge">
<title>User&#45;&gt;Patient</title>
<path fill="none" stroke="black" d="M334,-242.7C334,-234.98 334,-225.71 334,-217.11"/>
<polygon fill="black" stroke="black" points="337.5,-217.1 334,-207.1 330.5,-217.1 337.5,-217.1"/>
</g>
<!-- Provider -->
<g id="node6" class="node">
<title>Provider</title>
<path fill="none" stroke="lightgrey" d="M430.5,-207C430.5,-207 391.5,-207 391.5,-207 385.5,-207 379.5,-201 379.5,-195 379.5,-195 379.5,-183 379.5,-183 379.5,-177 385.5,-171 391.5,-171 391.5,-171 430.5,-171 430.5,-171 436.5,-171 442.5,-177 442.5,-183 442.5,-183 442.5,-195 442.5,-195 442.5,-201 436.5,-207 430.5,-207"/>
<text text-anchor="middle" x="411" y="-185.3" font-family="Times,serif" font-size="14.00">Provider</text>
</g>
<!-- Provider&#45;&gt;CareRequest -->
<g id="edge11" class="edge">
<title>Provider&#45;&gt;CareRequest</title>
<path fill="none" stroke="black" d="M433.99,-170.7C445.81,-161.8 460.39,-150.82 473.18,-141.2"/>
<polygon fill="black" stroke="black" points="475.39,-143.91 481.28,-135.1 471.18,-138.32 475.39,-143.91"/>
</g>
<!-- EhrProvider -->
<g id="node14" class="node">
<title>EhrProvider</title>
<path fill="none" stroke="blue" d="M308,-52C308,-52 246,-52 246,-52 240,-52 234,-46 234,-40 234,-40 234,-28 234,-28 234,-22 240,-16 246,-16 246,-16 308,-16 308,-16 314,-16 320,-22 320,-28 320,-28 320,-40 320,-40 320,-46 314,-52 308,-52"/>
<text text-anchor="middle" x="277" y="-30.3" font-family="Times,serif" font-size="14.00">Ehr Provider</text>
</g>
<!-- Provider&#45;&gt;EhrProvider -->
<g id="edge3" class="edge">
<title>Provider&#45;&gt;EhrProvider</title>
<path fill="none" stroke="black" d="M379.37,-173.92C354.48,-162.3 322.46,-146 313,-135 295.11,-114.2 285.86,-83.83 281.25,-62.03"/>
<polygon fill="black" stroke="black" points="284.66,-61.25 279.33,-52.09 277.79,-62.57 284.66,-61.25"/>
</g>
<!-- ServiceLine -->
<g id="node7" class="node">
<title>ServiceLine</title>
<path fill="none" stroke="lightgrey" d="M636,-207C636,-207 578,-207 578,-207 572,-207 566,-201 566,-195 566,-195 566,-183 566,-183 566,-177 572,-171 578,-171 578,-171 636,-171 636,-171 642,-171 648,-177 648,-183 648,-183 648,-195 648,-195 648,-201 642,-207 636,-207"/>
<text text-anchor="middle" x="607" y="-185.3" font-family="Times,serif" font-size="14.00">ServiceLine</text>
</g>
<!-- ServiceLine&#45;&gt;CareRequest -->
<g id="edge8" class="edge">
<title>ServiceLine&#45;&gt;CareRequest</title>
<path fill="none" stroke="black" d="M581.8,-170.88C568.59,-161.89 552.21,-150.76 537.89,-141.03"/>
<polygon fill="black" stroke="black" points="539.53,-137.92 529.29,-135.19 535.6,-143.71 539.53,-137.92"/>
</g>
<!-- EhrInsurance -->
<g id="node12" class="node">
<title>EhrInsurance</title>
<path fill="none" stroke="blue" d="M418,-52C418,-52 350,-52 350,-52 344,-52 338,-46 338,-40 338,-40 338,-28 338,-28 338,-22 344,-16 350,-16 350,-16 418,-16 418,-16 424,-16 430,-22 430,-28 430,-28 430,-40 430,-40 430,-46 424,-52 418,-52"/>
<text text-anchor="middle" x="384" y="-30.3" font-family="Times,serif" font-size="14.00">Ehr Insurance</text>
</g>
<!-- InsurancePlan&#45;&gt;EhrInsurance -->
<g id="edge4" class="edge">
<title>InsurancePlan&#45;&gt;EhrInsurance</title>
<path fill="none" stroke="black" d="M371.39,-98.82C373.49,-88.19 376.24,-74.31 378.63,-62.2"/>
<polygon fill="black" stroke="black" points="382.11,-62.64 380.61,-52.15 375.24,-61.29 382.11,-62.64"/>
</g>
<!-- EhrAppointment -->
<g id="node11" class="node">
<title>EhrAppointment</title>
<path fill="none" stroke="blue" d="M547.5,-52C547.5,-52 460.5,-52 460.5,-52 454.5,-52 448.5,-46 448.5,-40 448.5,-40 448.5,-28 448.5,-28 448.5,-22 454.5,-16 460.5,-16 460.5,-16 547.5,-16 547.5,-16 553.5,-16 559.5,-22 559.5,-28 559.5,-28 559.5,-40 559.5,-40 559.5,-46 553.5,-52 547.5,-52"/>
<text text-anchor="middle" x="504" y="-30.3" font-family="Times,serif" font-size="14.00">Ehr Appointment</text>
</g>
<!-- CareRequest&#45;&gt;EhrAppointment -->
<g id="edge5" class="edge">
<title>CareRequest&#45;&gt;EhrAppointment</title>
<path fill="none" stroke="black" d="M504,-98.82C504,-88.19 504,-74.31 504,-62.2"/>
<polygon fill="black" stroke="black" points="507.5,-62.15 504,-52.15 500.5,-62.15 507.5,-62.15"/>
</g>
<!-- LogisticsSvc -->
<g id="node15" class="node">
<title>LogisticsSvc</title>
<path fill="none" stroke="green" d="M652,-52C652,-52 590,-52 590,-52 584,-52 578,-46 578,-40 578,-40 578,-28 578,-28 578,-22 584,-16 590,-16 590,-16 652,-16 652,-16 658,-16 664,-22 664,-28 664,-28 664,-40 664,-40 664,-46 658,-52 652,-52"/>
<text text-anchor="middle" x="621" y="-30.3" font-family="Times,serif" font-size="14.00">LogisticsSvc</text>
</g>
<!-- CareRequest&#45;&gt;LogisticsSvc -->
<g id="edge12" class="edge">
<title>CareRequest&#45;&gt;LogisticsSvc</title>
<path fill="none" stroke="black" d="M544.77,-98.87C554.05,-94.26 563.63,-88.89 572,-83 581.35,-76.42 590.58,-68.02 598.46,-60.1"/>
<polygon fill="black" stroke="black" points="601.44,-62.05 605.85,-52.42 596.39,-57.2 601.44,-62.05"/>
</g>
<!-- RiskStratSvc -->
<g id="node16" class="node">
<title>RiskStratSvc</title>
<path fill="none" stroke="orange" d="M757.5,-52C757.5,-52 694.5,-52 694.5,-52 688.5,-52 682.5,-46 682.5,-40 682.5,-40 682.5,-28 682.5,-28 682.5,-22 688.5,-16 694.5,-16 694.5,-16 757.5,-16 757.5,-16 763.5,-16 769.5,-22 769.5,-28 769.5,-28 769.5,-40 769.5,-40 769.5,-46 763.5,-52 757.5,-52"/>
<text text-anchor="middle" x="726" y="-30.3" font-family="Times,serif" font-size="14.00">RiskStratSvc</text>
</g>
<!-- CareRequest&#45;&gt;RiskStratSvc -->
<g id="edge13" class="edge">
<title>CareRequest&#45;&gt;RiskStratSvc</title>
<path fill="none" stroke="black" d="M547.02,-113.98C582.46,-110.86 633.17,-102.95 673,-83 684.5,-77.24 695.38,-68.27 704.25,-59.65"/>
<polygon fill="black" stroke="black" points="707.01,-61.83 711.5,-52.24 702,-56.94 707.01,-61.83"/>
</g>
</g>
</svg>
