<?xml version="1.0" encoding="UTF-8" standalone="no"?>
<!DOCTYPE svg PUBLIC "-//W3C//DTD SVG 1.1//EN"
 "http://www.w3.org/Graphics/SVG/1.1/DTD/svg11.dtd">
<!-- Generated by graphviz version 8.0.5 (20230430.1635)
 -->
<!-- Title: G Pages: 1 -->
<svg width="3805pt" height="1139pt"
 viewBox="0.00 0.00 3804.62 1138.50" xmlns="http://www.w3.org/2000/svg" xmlns:xlink="http://www.w3.org/1999/xlink">
<g id="graph0" class="graph" transform="scale(1 1) rotate(0) translate(4 1134.5)">
<title>G</title>
<polygon fill="white" stroke="none" points="-4,4 -4,-1134.5 3800.62,-1134.5 3800.62,4 -4,4"/>
<g id="clust7" class="cluster">
<title>cluster_universal</title>
<polygon fill="none" stroke="black" points="3302.62,-892 3302.62,-969.25 3788.62,-969.25 3788.62,-892 3302.62,-892"/>
<text text-anchor="middle" x="3545.62" y="-951.95" font-family="Times,serif" font-size="14.00">Too Many Connections For This Diagram</text>
</g>
<g id="clust11" class="cluster">
<title>cluster_risk_strat_service</title>
<polygon fill="none" stroke="black" points="1857.62,-532 1857.62,-609.25 2236.62,-609.25 2236.62,-532 1857.62,-532"/>
<text text-anchor="middle" x="2047.12" y="-591.95" font-family="Times,serif" font-size="14.00">Risk Strat Service</text>
</g>
<g id="clust13" class="cluster">
<title>cluster_logistics_service</title>
<polygon fill="none" stroke="black" points="2744.62,-352 2744.62,-609.25 3106.62,-609.25 3106.62,-352 2744.62,-352"/>
<text text-anchor="middle" x="2925.62" y="-591.95" font-family="Times,serif" font-size="14.00">Logistics Service</text>
</g>
<g id="clust18" class="cluster">
<title>cluster_notifications_service</title>
<polygon fill="none" stroke="black" points="2627.62,-712 2627.62,-969.25 2997.62,-969.25 2997.62,-712 2627.62,-712"/>
<text text-anchor="middle" x="2812.62" y="-951.95" font-family="Times,serif" font-size="14.00">Notifications Service</text>
</g>
<!-- key -->
<g id="node1" class="node">
<title>key</title>
<path fill="none" stroke="black" d="M121.25,-1130.5C121.25,-1130.5 12,-1130.5 12,-1130.5 6,-1130.5 0,-1124.5 0,-1118.5 0,-1118.5 0,-1092 0,-1092 0,-1086 6,-1080 12,-1080 12,-1080 121.25,-1080 121.25,-1080 127.25,-1080 133.25,-1086 133.25,-1092 133.25,-1092 133.25,-1118.5 133.25,-1118.5 133.25,-1124.5 127.25,-1130.5 121.25,-1130.5"/>
<text text-anchor="start" x="10" y="-1111.2" font-family="Times,serif" font-size="14.00">In Development</text>
<text text-anchor="start" x="67" y="-1089.95" font-family="Times,serif" font-size="14.00">Current</text>
</g>
<!-- key2 -->
<g id="node2" class="node">
<title>key2</title>
<path fill="none" stroke="black" d="M193.62,-1130.5C193.62,-1130.5 163.62,-1130.5 163.62,-1130.5 157.62,-1130.5 151.62,-1124.5 151.62,-1118.5 151.62,-1118.5 151.62,-1092 151.62,-1092 151.62,-1086 157.62,-1080 163.62,-1080 163.62,-1080 193.62,-1080 193.62,-1080 199.62,-1080 205.62,-1086 205.62,-1092 205.62,-1092 205.62,-1118.5 205.62,-1118.5 205.62,-1124.5 199.62,-1130.5 193.62,-1130.5"/>
<text text-anchor="start" x="176.38" y="-1111.2" font-family="Times,serif" font-size="14.00"> </text>
<text text-anchor="start" x="176.38" y="-1089.95" font-family="Times,serif" font-size="14.00"> </text>
</g>
<!-- key&#45;&gt;key2 -->
<g id="edge1" class="edge">
<title>key:i1&#45;&gt;key2:i1</title>
<path fill="none" stroke="black" stroke-dasharray="5,2" d="M126.62,-1116.25C143.43,-1116.25 150.1,-1116.25 162.94,-1116.25"/>
<polygon fill="black" stroke="black" points="162.63,-1119.75 172.62,-1116.25 162.62,-1112.75 162.63,-1119.75"/>
</g>
<!-- key&#45;&gt;key2 -->
<g id="edge2" class="edge">
<title>key:i2&#45;&gt;key2:i2</title>
<path fill="none" stroke="black" d="M126.62,-1094.25C143.43,-1094.25 150.1,-1094.25 162.94,-1094.25"/>
<polygon fill="black" stroke="black" points="162.63,-1097.75 172.62,-1094.25 162.62,-1090.75 162.63,-1097.75"/>
</g>
<!-- audit_service -->
<g id="node3" class="node">
<title>audit_service</title>
<path fill="none" stroke="black" d="M394.62,-216C394.62,-216 306.62,-216 306.62,-216 300.62,-216 294.62,-210 294.62,-204 294.62,-204 294.62,-192 294.62,-192 294.62,-186 300.62,-180 306.62,-180 306.62,-180 394.62,-180 394.62,-180 400.62,-180 406.62,-186 406.62,-192 406.62,-192 406.62,-204 406.62,-204 406.62,-210 400.62,-216 394.62,-216"/>
<text text-anchor="middle" x="350.62" y="-193.32" font-family="Times,serif" font-size="14.00">Audit Service</text>
</g>
<!-- wss -->
<g id="node4" class="node">
<title>wss</title>
<path fill="none" stroke="black" d="M164.5,-576C164.5,-576 36.75,-576 36.75,-576 30.75,-576 24.75,-570 24.75,-564 24.75,-564 24.75,-552 24.75,-552 24.75,-546 30.75,-540 36.75,-540 36.75,-540 164.5,-540 164.5,-540 170.5,-540 176.5,-546 176.5,-552 176.5,-552 176.5,-564 176.5,-564 176.5,-570 170.5,-576 164.5,-576"/>
<text text-anchor="middle" x="100.62" y="-553.33" font-family="Times,serif" font-size="14.00">Web Socket Server</text>
</g>
<!-- dashboard -->
<g id="node10" class="node">
<title>dashboard</title>
<path fill="none" stroke="black" d="M760.25,-1123.25C760.25,-1123.25 691,-1123.25 691,-1123.25 685,-1123.25 679,-1117.25 679,-1111.25 679,-1111.25 679,-1099.25 679,-1099.25 679,-1093.25 685,-1087.25 691,-1087.25 691,-1087.25 760.25,-1087.25 760.25,-1087.25 766.25,-1087.25 772.25,-1093.25 772.25,-1099.25 772.25,-1099.25 772.25,-1111.25 772.25,-1111.25 772.25,-1117.25 766.25,-1123.25 760.25,-1123.25"/>
<text text-anchor="middle" x="725.62" y="-1100.58" font-family="Times,serif" font-size="14.00">Dashboard</text>
</g>
<!-- wss&#45;&gt;dashboard -->
<g id="edge16" class="edge">
<title>wss&#45;&gt;dashboard</title>
<path fill="none" stroke="black" d="M96.27,-576.21C81.68,-638.37 41.02,-853.73 145.62,-969.25 305.4,-1145.69 442.83,-1007.73 669.62,-1080 672.37,-1080.87 675.16,-1081.84 677.96,-1082.86"/>
<polygon fill="black" stroke="black" points="676.47,-1086.42 687.06,-1086.77 679,-1079.89 676.47,-1086.42"/>
</g>
<!-- call_manager -->
<g id="node27" class="node">
<title>call_manager</title>
<path fill="none" stroke="black" d="M164.62,-216C164.62,-216 76.62,-216 76.62,-216 70.62,-216 64.62,-210 64.62,-204 64.62,-204 64.62,-192 64.62,-192 64.62,-186 70.62,-180 76.62,-180 76.62,-180 164.62,-180 164.62,-180 170.62,-180 176.62,-186 176.62,-192 176.62,-192 176.62,-204 176.62,-204 176.62,-210 170.62,-216 164.62,-216"/>
<text text-anchor="middle" x="120.62" y="-193.32" font-family="Times,serif" font-size="14.00">Call Manager</text>
</g>
<!-- wss&#45;&gt;call_manager -->
<g id="edge18" class="edge">
<title>wss&#45;&gt;call_manager</title>
<path fill="none" stroke="black" d="M101.59,-539.73C104.8,-482.31 115.13,-297.42 119.07,-226.79"/>
<polygon fill="black" stroke="black" points="122.61,-227.27 119.67,-217.09 115.62,-226.88 122.61,-227.27"/>
</g>
<!-- logistics_laa -->
<g id="node43" class="node">
<title>logistics_laa</title>
<path fill="none" stroke="black" d="M2907,-576C2907,-576 2764.25,-576 2764.25,-576 2758.25,-576 2752.25,-570 2752.25,-564 2752.25,-564 2752.25,-552 2752.25,-552 2752.25,-546 2758.25,-540 2764.25,-540 2764.25,-540 2907,-540 2907,-540 2913,-540 2919,-546 2919,-552 2919,-552 2919,-564 2919,-564 2919,-570 2913,-576 2907,-576"/>
<text text-anchor="middle" x="2835.62" y="-553.33" font-family="Times,serif" font-size="14.00">Logistics/Elixir (LAA)</text>
</g>
<!-- wss&#45;&gt;logistics_laa -->
<g id="edge17" class="edge">
<title>wss&#45;&gt;logistics_laa</title>
<path fill="none" stroke="black" d="M116.31,-576.11C139.03,-600.79 183.75,-643.86 232.62,-660.62 474.46,-743.57 2281.38,-702.31 2533.62,-660.62 2625.56,-645.43 2727.11,-605.87 2785.92,-580.55"/>
<polygon fill="black" stroke="black" points="2786.91,-583.5 2794.69,-576.3 2784.12,-577.08 2786.91,-583.5"/>
</g>
<!-- station -->
<g id="node5" class="node">
<title>station</title>
<path fill="none" stroke="black" d="M1014.5,-756C1014.5,-756 970.75,-756 970.75,-756 964.75,-756 958.75,-750 958.75,-744 958.75,-744 958.75,-732 958.75,-732 958.75,-726 964.75,-720 970.75,-720 970.75,-720 1014.5,-720 1014.5,-720 1020.5,-720 1026.5,-726 1026.5,-732 1026.5,-732 1026.5,-744 1026.5,-744 1026.5,-750 1020.5,-756 1014.5,-756"/>
<text text-anchor="middle" x="992.62" y="-733.33" font-family="Times,serif" font-size="14.00">Station</text>
</g>
<!-- station&#45;&gt;wss -->
<g id="edge15" class="edge">
<title>station&#45;&gt;wss</title>
<path fill="none" stroke="black" d="M958.3,-734.05C849.15,-724.1 500.96,-687.87 223.62,-609.25 197.74,-601.91 169.91,-590.83 147.28,-580.94"/>
<polygon fill="black" stroke="black" points="148.83,-577.35 138.27,-576.49 145.99,-583.75 148.83,-577.35"/>
</g>
<!-- genesys -->
<g id="node13" class="node">
<title>genesys</title>
<ellipse fill="none" stroke="black" cx="185.62" cy="-18" rx="53.31" ry="18"/>
<text text-anchor="middle" x="185.62" y="-13.32" font-family="Times,serif" font-size="14.00">Genesys</text>
</g>
<!-- station&#45;&gt;genesys -->
<g id="edge75" class="edge">
<title>station&#45;&gt;genesys</title>
<path fill="none" stroke="black" d="M958.44,-732.14C863.46,-717.93 599.74,-673.33 544.62,-609.25 507.04,-565.55 529.66,-406.74 511.62,-352 484.23,-268.85 474.3,-244.97 415.62,-180 358.78,-117.06 272.94,-65.29 223.79,-38.6"/>
<polygon fill="black" stroke="black" points="225.65,-35.08 215.18,-33.44 222.34,-41.25 225.65,-35.08"/>
</g>
<!-- verity_stream -->
<g id="node14" class="node">
<title>verity_stream</title>
<ellipse fill="none" stroke="black" cx="628.62" cy="-18" rx="78.04" ry="18"/>
<text text-anchor="middle" x="628.62" y="-13.32" font-family="Times,serif" font-size="14.00">VerityStream</text>
</g>
<!-- station&#45;&gt;verity_stream -->
<g id="edge19" class="edge">
<title>station&#45;&gt;verity_stream</title>
<path fill="none" stroke="black" d="M971.19,-719.54C944.21,-696.63 897.85,-654.03 868.62,-609.25 739.73,-411.8 659.09,-133.94 635.71,-46.47"/>
<polygon fill="black" stroke="black" points="638.91,-45.86 632.97,-37.09 632.14,-47.65 638.91,-45.86"/>
</g>
<!-- sendgrid -->
<g id="node17" class="node">
<title>sendgrid</title>
<ellipse fill="none" stroke="black" cx="781.62" cy="-18" rx="57" ry="18"/>
<text text-anchor="middle" x="781.62" y="-13.32" font-family="Times,serif" font-size="14.00">Sendgrid</text>
</g>
<!-- station&#45;&gt;sendgrid -->
<g id="edge73" class="edge">
<title>station&#45;&gt;sendgrid</title>
<path fill="none" stroke="black" d="M975.23,-719.69C953.1,-696.61 915.39,-653.49 895.62,-609.25 849.21,-505.34 799.14,-150.08 785.33,-47.16"/>
<polygon fill="black" stroke="black" points="788.69,-46.86 783.9,-37.41 781.75,-47.78 788.69,-46.86"/>
</g>
<!-- twilio -->
<g id="node18" class="node">
<title>twilio</title>
<ellipse fill="none" stroke="black" cx="427.62" cy="-18" rx="41.21" ry="18"/>
<text text-anchor="middle" x="427.62" y="-13.32" font-family="Times,serif" font-size="14.00">Twilio</text>
</g>
<!-- station&#45;&gt;twilio -->
<g id="edge72" class="edge">
<title>station&#45;&gt;twilio</title>
<path fill="none" stroke="black" d="M958.41,-737.77C878.93,-737.51 681.45,-724.67 587.62,-609.25 466.69,-460.47 612.91,-359.16 544.62,-180 523.59,-124.81 478.49,-71.55 450.83,-42.24"/>
<polygon fill="black" stroke="black" points="453.98,-40.42 444.53,-35.62 448.92,-45.26 453.98,-40.42"/>
</g>
<!-- athena -->
<g id="node21" class="node">
<title>athena</title>
<ellipse fill="none" stroke="black" cx="1144.62" cy="-18" rx="46.47" ry="18"/>
<text text-anchor="middle" x="1144.62" y="-13.32" font-family="Times,serif" font-size="14.00">Athena</text>
</g>
<!-- station&#45;&gt;athena -->
<g id="edge28" class="edge">
<title>station&#45;&gt;athena</title>
<path fill="none" stroke="black" d="M984.92,-719.72C970.11,-684.08 940.73,-600.08 959.62,-532 1003.44,-374.09 1105.81,-373.91 1149.62,-216 1165.86,-157.49 1157.18,-85.42 1150.33,-46.72"/>
<polygon fill="black" stroke="black" points="1153.66,-46.46 1148.38,-37.28 1146.78,-47.75 1153.66,-46.46"/>
</g>
<!-- instamed -->
<g id="node24" class="node">
<title>instamed</title>
<ellipse fill="none" stroke="black" cx="914.62" cy="-18" rx="58.05" ry="18"/>
<text text-anchor="middle" x="914.62" y="-13.32" font-family="Times,serif" font-size="14.00">Instamed</text>
</g>
<!-- station&#45;&gt;instamed -->
<g id="edge34" class="edge">
<title>station&#45;&gt;instamed</title>
<path fill="none" stroke="black" d="M977.84,-719.87C958.86,-696.65 926.93,-653.03 914.62,-609.25 855.89,-400.34 894.33,-133.16 909.36,-47.07"/>
<polygon fill="black" stroke="black" points="912.96,-47.83 911.28,-37.37 906.07,-46.59 912.96,-47.83"/>
</g>
<!-- google_maps -->
<g id="node25" class="node">
<title>google_maps</title>
<ellipse fill="none" stroke="black" cx="2550.62" cy="-18" rx="76.46" ry="18"/>
<text text-anchor="middle" x="2550.62" y="-13.32" font-family="Times,serif" font-size="14.00">Google Maps</text>
</g>
<!-- station&#45;&gt;google_maps -->
<g id="edge20" class="edge">
<title>station&#45;&gt;google_maps</title>
<path fill="none" stroke="black" d="M1026.72,-736.61C1238.2,-733.83 2365.26,-714.17 2471.62,-609.25 2539.87,-541.93 2499.36,-274.64 2514.62,-180 2522.25,-132.7 2535.28,-78.47 2543.4,-46.57"/>
<polygon fill="black" stroke="black" points="2546.95,-47.82 2546.05,-37.26 2540.17,-46.07 2546.95,-47.82"/>
</g>
<!-- pophealth_service -->
<g id="node36" class="node">
<title>pophealth_service</title>
<path fill="none" stroke="black" d="M1102.12,-576C1102.12,-576 981.12,-576 981.12,-576 975.12,-576 969.12,-570 969.12,-564 969.12,-564 969.12,-552 969.12,-552 969.12,-546 975.12,-540 981.12,-540 981.12,-540 1102.12,-540 1102.12,-540 1108.12,-540 1114.12,-546 1114.12,-552 1114.12,-552 1114.12,-564 1114.12,-564 1114.12,-570 1108.12,-576 1102.12,-576"/>
<text text-anchor="middle" x="1041.62" y="-553.33" font-family="Times,serif" font-size="14.00">Pophealth Service</text>
</g>
<!-- station&#45;&gt;pophealth_service -->
<g id="edge56" class="edge">
<title>station&#45;&gt;pophealth_service</title>
<path fill="none" stroke="black" stroke-dasharray="5,2" d="M997.41,-719.61C1005.9,-688.77 1023.66,-624.26 1033.9,-587.06"/>
<polygon fill="black" stroke="black" points="1037.54,-588.03 1036.82,-577.46 1030.79,-586.17 1037.54,-588.03"/>
</g>
<!-- partner_service -->
<g id="node37" class="node">
<title>partner_service</title>
<path fill="none" stroke="black" d="M1402.5,-576C1402.5,-576 1298.75,-576 1298.75,-576 1292.75,-576 1286.75,-570 1286.75,-564 1286.75,-564 1286.75,-552 1286.75,-552 1286.75,-546 1292.75,-540 1298.75,-540 1298.75,-540 1402.5,-540 1402.5,-540 1408.5,-540 1414.5,-546 1414.5,-552 1414.5,-552 1414.5,-564 1414.5,-564 1414.5,-570 1408.5,-576 1402.5,-576"/>
<text text-anchor="middle" x="1350.62" y="-553.33" font-family="Times,serif" font-size="14.00">Partner Service</text>
</g>
<!-- station&#45;&gt;partner_service -->
<g id="edge57" class="edge">
<title>station&#45;&gt;partner_service</title>
<path fill="none" stroke="black" stroke-dasharray="5,2" d="M1026.94,-723.97C1081.47,-702.75 1190.66,-658.14 1277.62,-609.25 1291.66,-601.36 1306.41,-591.53 1318.95,-582.66"/>
<polygon fill="black" stroke="black" points="1320.57,-585.09 1326.65,-576.41 1316.49,-579.4 1320.57,-585.09"/>
</g>
<!-- modality_service -->
<g id="node38" class="node">
<title>modality_service</title>
<path fill="none" stroke="black" d="M1557,-576C1557,-576 1444.25,-576 1444.25,-576 1438.25,-576 1432.25,-570 1432.25,-564 1432.25,-564 1432.25,-552 1432.25,-552 1432.25,-546 1438.25,-540 1444.25,-540 1444.25,-540 1557,-540 1557,-540 1563,-540 1569,-546 1569,-552 1569,-552 1569,-564 1569,-564 1569,-570 1563,-576 1557,-576"/>
<text text-anchor="middle" x="1500.62" y="-553.33" font-family="Times,serif" font-size="14.00">Modality Service</text>
</g>
<!-- station&#45;&gt;modality_service -->
<g id="edge49" class="edge">
<title>station&#45;&gt;modality_service</title>
<path fill="none" stroke="black" stroke-dasharray="5,2" d="M1026.81,-730.4C1101.33,-715.27 1283.02,-674.28 1423.62,-609.25 1439.28,-602.01 1455.44,-591.93 1468.89,-582.69"/>
<polygon fill="black" stroke="black" points="1470.56,-585.1 1476.72,-576.48 1466.53,-579.37 1470.56,-585.1"/>
</g>
<!-- acuity_model -->
<g id="node39" class="node">
<title>acuity_model</title>
<path fill="none" stroke="black" d="M1684.5,-576C1684.5,-576 1598.75,-576 1598.75,-576 1592.75,-576 1586.75,-570 1586.75,-564 1586.75,-564 1586.75,-552 1586.75,-552 1586.75,-546 1592.75,-540 1598.75,-540 1598.75,-540 1684.5,-540 1684.5,-540 1690.5,-540 1696.5,-546 1696.5,-552 1696.5,-552 1696.5,-564 1696.5,-564 1696.5,-570 1690.5,-576 1684.5,-576"/>
<text text-anchor="middle" x="1641.62" y="-553.33" font-family="Times,serif" font-size="14.00">Acuity Model</text>
</g>
<!-- station&#45;&gt;acuity_model -->
<g id="edge46" class="edge">
<title>station&#45;&gt;acuity_model</title>
<path fill="none" stroke="black" d="M1026.98,-734.86C1119.98,-727.95 1382.73,-701.08 1577.62,-609.25 1591.34,-602.79 1604.8,-592.91 1615.81,-583.62"/>
<polygon fill="black" stroke="black" points="1617.87,-585.6 1623.08,-576.37 1613.25,-580.34 1617.87,-585.6"/>
</g>
<!-- on_scene_model -->
<g id="node40" class="node">
<title>on_scene_model</title>
<path fill="none" stroke="black" d="M1834.75,-576C1834.75,-576 1726.5,-576 1726.5,-576 1720.5,-576 1714.5,-570 1714.5,-564 1714.5,-564 1714.5,-552 1714.5,-552 1714.5,-546 1720.5,-540 1726.5,-540 1726.5,-540 1834.75,-540 1834.75,-540 1840.75,-540 1846.75,-546 1846.75,-552 1846.75,-552 1846.75,-564 1846.75,-564 1846.75,-570 1840.75,-576 1834.75,-576"/>
<text text-anchor="middle" x="1780.62" y="-553.33" font-family="Times,serif" font-size="14.00">On Scene Model</text>
</g>
<!-- station&#45;&gt;on_scene_model -->
<g id="edge47" class="edge">
<title>station&#45;&gt;on_scene_model</title>
<path fill="none" stroke="black" d="M1026.66,-735.82C1131.68,-731.18 1458.42,-709.08 1705.62,-609.25 1721.8,-602.72 1738.09,-592.37 1751.34,-582.75"/>
<polygon fill="black" stroke="black" points="1753.08,-585.07 1758.98,-576.27 1748.88,-579.47 1753.08,-585.07"/>
</g>
<!-- risk_stratification_service -->
<g id="node41" class="node">
<title>risk_stratification_service</title>
<path fill="none" stroke="black" d="M2217,-576C2217,-576 2038.25,-576 2038.25,-576 2032.25,-576 2026.25,-570 2026.25,-564 2026.25,-564 2026.25,-552 2026.25,-552 2026.25,-546 2032.25,-540 2038.25,-540 2038.25,-540 2217,-540 2217,-540 2223,-540 2229,-546 2229,-552 2229,-552 2229,-564 2229,-564 2229,-570 2223,-576 2217,-576"/>
<text text-anchor="middle" x="2127.62" y="-553.33" font-family="Times,serif" font-size="14.00">Risk Stratification Service</text>
</g>
<!-- station&#45;&gt;risk_stratification_service -->
<g id="edge50" class="edge">
<title>station&#45;&gt;risk_stratification_service</title>
<path fill="none" stroke="black" stroke-dasharray="5,2" d="M1026.95,-736.43C1158.07,-733.5 1638.97,-715.64 2016.62,-609.25 2040.6,-602.5 2066,-591.33 2086.44,-581.23"/>
<polygon fill="black" stroke="black" points="2087.7,-584.01 2095.05,-576.39 2084.55,-577.76 2087.7,-584.01"/>
</g>
<!-- turf_or_surf -->
<g id="node42" class="node">
<title>turf_or_surf</title>
<path fill="none" stroke="black" d="M1996,-576C1996,-576 1877.25,-576 1877.25,-576 1871.25,-576 1865.25,-570 1865.25,-564 1865.25,-564 1865.25,-552 1865.25,-552 1865.25,-546 1871.25,-540 1877.25,-540 1877.25,-540 1996,-540 1996,-540 2002,-540 2008,-546 2008,-552 2008,-552 2008,-564 2008,-564 2008,-570 2002,-576 1996,-576"/>
<text text-anchor="middle" x="1936.62" y="-553.33" font-family="Times,serif" font-size="14.00">Legacy Risk Strat</text>
</g>
<!-- station&#45;&gt;turf_or_surf -->
<g id="edge48" class="edge">
<title>station&#45;&gt;turf_or_surf</title>
<path fill="none" stroke="black" d="M1026.75,-736.86C1145.25,-735.36 1548.43,-721.77 1855.62,-609.25 1873.09,-602.85 1890.83,-592.39 1905.24,-582.66"/>
<polygon fill="black" stroke="black" points="1906.99,-585.01 1913.19,-576.42 1902.98,-579.27 1906.99,-585.01"/>
</g>
<!-- station&#45;&gt;logistics_laa -->
<g id="edge41" class="edge">
<title>station&#45;&gt;logistics_laa</title>
<path fill="none" stroke="black" d="M1026.77,-734.96C1190.87,-724.96 1914.67,-678.88 2504.62,-609.25 2584.59,-599.81 2674.95,-585.87 2741.02,-575.07"/>
<polygon fill="black" stroke="black" points="2741.53,-578.37 2750.83,-573.29 2740.39,-571.46 2741.53,-578.37"/>
</g>
<!-- logistics_service -->
<g id="node44" class="node">
<title>logistics_service</title>
<path fill="none" stroke="black" d="M3086.38,-576C3086.38,-576 2948.88,-576 2948.88,-576 2942.88,-576 2936.88,-570 2936.88,-564 2936.88,-564 2936.88,-552 2936.88,-552 2936.88,-546 2942.88,-540 2948.88,-540 2948.88,-540 3086.38,-540 3086.38,-540 3092.38,-540 3098.38,-546 3098.38,-552 3098.38,-552 3098.38,-564 3098.38,-564 3098.38,-570 3092.38,-576 3086.38,-576"/>
<text text-anchor="middle" x="3017.62" y="-553.33" font-family="Times,serif" font-size="14.00">Logistics/Go Service</text>
</g>
<!-- station&#45;&gt;logistics_service -->
<g id="edge36" class="edge">
<title>station&#45;&gt;logistics_service</title>
<path fill="none" stroke="black" d="M1026.8,-736.81C1254.99,-735.19 2558.9,-720.97 2936.62,-609.25 2956.38,-603.41 2976.56,-592.66 2991.98,-582.6"/>
<polygon fill="black" stroke="black" points="2993.65,-585.01 2999.92,-576.47 2989.69,-579.24 2993.65,-585.01"/>
</g>
<!-- clinical_kpi_service -->
<g id="node48" class="node">
<title>clinical_kpi_service</title>
<path fill="none" stroke="black" d="M3261.12,-576C3261.12,-576 3128.12,-576 3128.12,-576 3122.12,-576 3116.12,-570 3116.12,-564 3116.12,-564 3116.12,-552 3116.12,-552 3116.12,-546 3122.12,-540 3128.12,-540 3128.12,-540 3261.12,-540 3261.12,-540 3267.12,-540 3273.12,-546 3273.12,-552 3273.12,-552 3273.12,-564 3273.12,-564 3273.12,-570 3267.12,-576 3261.12,-576"/>
<text text-anchor="middle" x="3194.62" y="-553.33" font-family="Times,serif" font-size="14.00">Clinical KPI Service</text>
</g>
<!-- station&#45;&gt;clinical_kpi_service -->
<g id="edge51" class="edge">
<title>station&#45;&gt;clinical_kpi_service</title>
<path fill="none" stroke="black" stroke-dasharray="5,2" d="M1026.97,-737.15C1267.18,-737.86 2698.39,-736.62 3110.62,-609.25 3129.45,-603.43 3148.45,-592.58 3163.61,-582.44"/>
<polygon fill="black" stroke="black" points="3165.29,-584.85 3171.52,-576.28 3161.3,-579.09 3165.29,-584.85"/>
</g>
<!-- tytocare_service -->
<g id="node49" class="node">
<title>tytocare_service</title>
<path fill="none" stroke="black" d="M1256.62,-576C1256.62,-576 1144.62,-576 1144.62,-576 1138.62,-576 1132.62,-570 1132.62,-564 1132.62,-564 1132.62,-552 1132.62,-552 1132.62,-546 1138.62,-540 1144.62,-540 1144.62,-540 1256.62,-540 1256.62,-540 1262.62,-540 1268.62,-546 1268.62,-552 1268.62,-552 1268.62,-564 1268.62,-564 1268.62,-570 1262.62,-576 1256.62,-576"/>
<text text-anchor="middle" x="1200.62" y="-553.33" font-family="Times,serif" font-size="14.00">Tytocare Service</text>
</g>
<!-- station&#45;&gt;tytocare_service -->
<g id="edge53" class="edge">
<title>station&#45;&gt;tytocare_service</title>
<path fill="none" stroke="black" d="M1012.95,-719.61C1050.15,-687.77 1129.29,-620.05 1171.95,-583.54"/>
<polygon fill="black" stroke="black" points="1173.9,-585.62 1179.22,-576.46 1169.35,-580.3 1173.9,-585.62"/>
</g>
<!-- shift_schedule_service -->
<g id="node50" class="node">
<title>shift_schedule_service</title>
<path fill="none" stroke="black" d="M2450.62,-576C2450.62,-576 2296.62,-576 2296.62,-576 2290.62,-576 2284.62,-570 2284.62,-564 2284.62,-564 2284.62,-552 2284.62,-552 2284.62,-546 2290.62,-540 2296.62,-540 2296.62,-540 2450.62,-540 2450.62,-540 2456.62,-540 2462.62,-546 2462.62,-552 2462.62,-552 2462.62,-564 2462.62,-564 2462.62,-570 2456.62,-576 2450.62,-576"/>
<text text-anchor="middle" x="2373.62" y="-553.33" font-family="Times,serif" font-size="14.00">Shift Schedule Service</text>
</g>
<!-- station&#45;&gt;shift_schedule_service -->
<g id="edge52" class="edge">
<title>station&#45;&gt;shift_schedule_service</title>
<path fill="none" stroke="black" stroke-dasharray="5,2" d="M1026.91,-736.72C1174.44,-734.87 1768.96,-720.49 2240.62,-609.25 2269.55,-602.43 2300.69,-590.91 2325.56,-580.62"/>
<polygon fill="black" stroke="black" points="2326.6,-583.55 2334.46,-576.45 2323.89,-577.1 2326.6,-583.55"/>
</g>
<!-- patients_service -->
<g id="node52" class="node">
<title>patients_service</title>
<path fill="none" stroke="black" d="M490.75,-576C490.75,-576 382.5,-576 382.5,-576 376.5,-576 370.5,-570 370.5,-564 370.5,-564 370.5,-552 370.5,-552 370.5,-546 376.5,-540 382.5,-540 382.5,-540 490.75,-540 490.75,-540 496.75,-540 502.75,-546 502.75,-552 502.75,-552 502.75,-564 502.75,-564 502.75,-570 496.75,-576 490.75,-576"/>
<text text-anchor="middle" x="436.62" y="-553.33" font-family="Times,serif" font-size="14.00">Patients Service</text>
</g>
<!-- station&#45;&gt;patients_service -->
<g id="edge23" class="edge">
<title>station&#45;&gt;patients_service</title>
<path fill="none" stroke="black" stroke-dasharray="5,2" d="M958.28,-731.42C878.3,-717.66 674.45,-678.13 516.62,-609.25 500.1,-602.04 483.02,-591.76 468.9,-582.37"/>
<polygon fill="black" stroke="black" points="471.33,-579.1 461.09,-576.37 467.39,-584.89 471.33,-579.1"/>
</g>
<!-- ehr_adapter -->
<g id="node54" class="node">
<title>ehr_adapter</title>
<path fill="none" stroke="black" d="M1128.38,-216C1128.38,-216 942.88,-216 942.88,-216 936.88,-216 930.88,-210 930.88,-204 930.88,-204 930.88,-192 930.88,-192 930.88,-186 936.88,-180 942.88,-180 942.88,-180 1128.38,-180 1128.38,-180 1134.38,-180 1140.38,-186 1140.38,-192 1140.38,-192 1140.38,-204 1140.38,-204 1140.38,-210 1134.38,-216 1128.38,-216"/>
<text text-anchor="middle" x="1035.62" y="-193.32" font-family="Times,serif" font-size="14.00">Lab Results (EHR Adapter)</text>
</g>
<!-- station&#45;&gt;ehr_adapter -->
<g id="edge29" class="edge">
<title>station&#45;&gt;ehr_adapter</title>
<path fill="none" stroke="black" d="M980.36,-719.88C964.31,-696.32 937,-651.94 926.62,-609.25 891.2,-463.49 981.02,-290.16 1019.31,-225.25"/>
<polygon fill="black" stroke="black" points="1022.64,-227.51 1024.78,-217.13 1016.64,-223.91 1022.64,-227.51"/>
</g>
<!-- consents -->
<g id="node55" class="node">
<title>consents</title>
<path fill="none" stroke="black" d="M302.62,-576C302.62,-576 244.62,-576 244.62,-576 238.62,-576 232.62,-570 232.62,-564 232.62,-564 232.62,-552 232.62,-552 232.62,-546 238.62,-540 244.62,-540 244.62,-540 302.62,-540 302.62,-540 308.62,-540 314.62,-546 314.62,-552 314.62,-552 314.62,-564 314.62,-564 314.62,-570 308.62,-576 302.62,-576"/>
<text text-anchor="middle" x="273.62" y="-553.33" font-family="Times,serif" font-size="14.00">Consents</text>
</g>
<!-- station&#45;&gt;consents -->
<g id="edge59" class="edge">
<title>station&#45;&gt;consents</title>
<path fill="none" stroke="black" d="M958.4,-733.94C861.82,-724.48 580.05,-691.29 361.62,-609.25 343.21,-602.33 324.1,-591.88 308.41,-582.29"/>
<polygon fill="black" stroke="black" points="310.45,-578.81 300.12,-576.47 306.74,-584.74 310.45,-578.81"/>
</g>
<!-- provider_credentials -->
<g id="node57" class="node">
<title>provider_credentials</title>
<path fill="none" stroke="black" d="M748.88,-576C748.88,-576 608.38,-576 608.38,-576 602.38,-576 596.38,-570 596.38,-564 596.38,-564 596.38,-552 596.38,-552 596.38,-546 602.38,-540 608.38,-540 608.38,-540 748.88,-540 748.88,-540 754.88,-540 760.88,-546 760.88,-552 760.88,-552 760.88,-564 760.88,-564 760.88,-570 754.88,-576 748.88,-576"/>
<text text-anchor="middle" x="678.62" y="-553.33" font-family="Times,serif" font-size="14.00">Provider Credentials</text>
</g>
<!-- station&#45;&gt;provider_credentials -->
<g id="edge60" class="edge">
<title>station&#45;&gt;provider_credentials</title>
<path fill="none" stroke="black" d="M961.95,-719.61C904.85,-687.24 782.31,-617.78 718.74,-581.74"/>
<polygon fill="black" stroke="black" points="720.85,-578.35 710.43,-576.46 717.4,-584.44 720.85,-578.35"/>
</g>
<!-- companion -->
<g id="node6" class="node">
<title>companion</title>
<path fill="none" stroke="black" d="M307.75,-1123.25C307.75,-1123.25 235.5,-1123.25 235.5,-1123.25 229.5,-1123.25 223.5,-1117.25 223.5,-1111.25 223.5,-1111.25 223.5,-1099.25 223.5,-1099.25 223.5,-1093.25 229.5,-1087.25 235.5,-1087.25 235.5,-1087.25 307.75,-1087.25 307.75,-1087.25 313.75,-1087.25 319.75,-1093.25 319.75,-1099.25 319.75,-1099.25 319.75,-1111.25 319.75,-1111.25 319.75,-1117.25 313.75,-1123.25 307.75,-1123.25"/>
<text text-anchor="middle" x="271.62" y="-1100.58" font-family="Times,serif" font-size="14.00">Companion</text>
</g>
<!-- companion_api -->
<g id="node32" class="node">
<title>companion_api</title>
<path fill="none" stroke="black" d="M322.38,-936C322.38,-936 220.88,-936 220.88,-936 214.88,-936 208.88,-930 208.88,-924 208.88,-924 208.88,-912 208.88,-912 208.88,-906 214.88,-900 220.88,-900 220.88,-900 322.38,-900 322.38,-900 328.38,-900 334.38,-906 334.38,-912 334.38,-912 334.38,-924 334.38,-924 334.38,-930 328.38,-936 322.38,-936"/>
<text text-anchor="middle" x="271.62" y="-913.33" font-family="Times,serif" font-size="14.00">Companion API</text>
</g>
<!-- companion&#45;&gt;companion_api -->
<g id="edge3" class="edge">
<title>companion&#45;&gt;companion_api</title>
<path fill="none" stroke="black" d="M271.62,-1086.82C271.62,-1054.61 271.62,-985.49 271.62,-946.76"/>
<polygon fill="black" stroke="black" points="275.13,-947.25 271.62,-937.25 268.13,-947.25 275.13,-947.25"/>
</g>
<!-- onboarding_web -->
<g id="node7" class="node">
<title>onboarding_web</title>
<path fill="none" stroke="black" d="M878.62,-1123.25C878.62,-1123.25 802.62,-1123.25 802.62,-1123.25 796.62,-1123.25 790.62,-1117.25 790.62,-1111.25 790.62,-1111.25 790.62,-1099.25 790.62,-1099.25 790.62,-1093.25 796.62,-1087.25 802.62,-1087.25 802.62,-1087.25 878.62,-1087.25 878.62,-1087.25 884.62,-1087.25 890.62,-1093.25 890.62,-1099.25 890.62,-1099.25 890.62,-1111.25 890.62,-1111.25 890.62,-1117.25 884.62,-1123.25 878.62,-1123.25"/>
<text text-anchor="middle" x="840.62" y="-1100.58" font-family="Times,serif" font-size="14.00">Onboarding</text>
</g>
<!-- onboarding_web&#45;&gt;wss -->
<g id="edge5" class="edge">
<title>onboarding_web&#45;&gt;wss</title>
<path fill="none" stroke="black" d="M801.35,-1086.83C794.84,-1084.31 788.1,-1081.93 781.62,-1080 529.24,-1004.96 390.29,-1150.84 199.62,-969.25 89.84,-864.69 92.85,-661.12 98.04,-586.92"/>
<polygon fill="black" stroke="black" points="101.59,-587.39 98.88,-577.15 94.61,-586.85 101.59,-587.39"/>
</g>
<!-- onboarding_api -->
<g id="node33" class="node">
<title>onboarding_api</title>
<path fill="none" stroke="black" d="M893.25,-936C893.25,-936 788,-936 788,-936 782,-936 776,-930 776,-924 776,-924 776,-912 776,-912 776,-906 782,-900 788,-900 788,-900 893.25,-900 893.25,-900 899.25,-900 905.25,-906 905.25,-912 905.25,-912 905.25,-924 905.25,-924 905.25,-930 899.25,-936 893.25,-936"/>
<text text-anchor="middle" x="840.62" y="-913.33" font-family="Times,serif" font-size="14.00">Onboarding API</text>
</g>
<!-- onboarding_web&#45;&gt;onboarding_api -->
<g id="edge4" class="edge">
<title>onboarding_web&#45;&gt;onboarding_api</title>
<path fill="none" stroke="black" d="M840.62,-1086.82C840.62,-1054.61 840.62,-985.49 840.62,-946.76"/>
<polygon fill="black" stroke="black" points="844.13,-947.25 840.62,-937.25 837.13,-947.25 844.13,-947.25"/>
</g>
<!-- consumer_web -->
<g id="node8" class="node">
<title>consumer_web</title>
<path fill="none" stroke="black" d="M1035.5,-1123.25C1035.5,-1123.25 949.75,-1123.25 949.75,-1123.25 943.75,-1123.25 937.75,-1117.25 937.75,-1111.25 937.75,-1111.25 937.75,-1099.25 937.75,-1099.25 937.75,-1093.25 943.75,-1087.25 949.75,-1087.25 949.75,-1087.25 1035.5,-1087.25 1035.5,-1087.25 1041.5,-1087.25 1047.5,-1093.25 1047.5,-1099.25 1047.5,-1099.25 1047.5,-1111.25 1047.5,-1111.25 1047.5,-1117.25 1041.5,-1123.25 1035.5,-1123.25"/>
<text text-anchor="middle" x="992.62" y="-1100.58" font-family="Times,serif" font-size="14.00">Web Request</text>
</g>
<!-- consumer_api -->
<g id="node34" class="node">
<title>consumer_api</title>
<path fill="none" stroke="black" d="M1050.12,-936C1050.12,-936 935.12,-936 935.12,-936 929.12,-936 923.12,-930 923.12,-924 923.12,-924 923.12,-912 923.12,-912 923.12,-906 929.12,-900 935.12,-900 935.12,-900 1050.12,-900 1050.12,-900 1056.12,-900 1062.12,-906 1062.12,-912 1062.12,-912 1062.12,-924 1062.12,-924 1062.12,-930 1056.12,-936 1050.12,-936"/>
<text text-anchor="middle" x="992.62" y="-913.33" font-family="Times,serif" font-size="14.00">Web Request API</text>
</g>
<!-- consumer_web&#45;&gt;consumer_api -->
<g id="edge6" class="edge">
<title>consumer_web&#45;&gt;consumer_api</title>
<path fill="none" stroke="black" d="M992.62,-1086.82C992.62,-1054.61 992.62,-985.49 992.62,-946.76"/>
<polygon fill="black" stroke="black" points="996.13,-947.25 992.62,-937.25 989.13,-947.25 996.13,-947.25"/>
</g>
<!-- express_web -->
<g id="node9" class="node">
<title>express_web</title>
<path fill="none" stroke="black" d="M1156.5,-1123.25C1156.5,-1123.25 1106.75,-1123.25 1106.75,-1123.25 1100.75,-1123.25 1094.75,-1117.25 1094.75,-1111.25 1094.75,-1111.25 1094.75,-1099.25 1094.75,-1099.25 1094.75,-1093.25 1100.75,-1087.25 1106.75,-1087.25 1106.75,-1087.25 1156.5,-1087.25 1156.5,-1087.25 1162.5,-1087.25 1168.5,-1093.25 1168.5,-1099.25 1168.5,-1099.25 1168.5,-1111.25 1168.5,-1111.25 1168.5,-1117.25 1162.5,-1123.25 1156.5,-1123.25"/>
<text text-anchor="middle" x="1131.62" y="-1100.58" font-family="Times,serif" font-size="14.00">Express</text>
</g>
<!-- express_api -->
<g id="node35" class="node">
<title>express_api</title>
<path fill="none" stroke="black" d="M1171.12,-936C1171.12,-936 1092.12,-936 1092.12,-936 1086.12,-936 1080.12,-930 1080.12,-924 1080.12,-924 1080.12,-912 1080.12,-912 1080.12,-906 1086.12,-900 1092.12,-900 1092.12,-900 1171.12,-900 1171.12,-900 1177.12,-900 1183.12,-906 1183.12,-912 1183.12,-912 1183.12,-924 1183.12,-924 1183.12,-930 1177.12,-936 1171.12,-936"/>
<text text-anchor="middle" x="1131.62" y="-913.33" font-family="Times,serif" font-size="14.00">Express API</text>
</g>
<!-- express_web&#45;&gt;express_api -->
<g id="edge11" class="edge">
<title>express_web&#45;&gt;express_api</title>
<path fill="none" stroke="black" d="M1131.62,-1086.82C1131.62,-1054.61 1131.62,-985.49 1131.62,-946.76"/>
<polygon fill="black" stroke="black" points="1135.13,-947.25 1131.62,-937.25 1128.13,-947.25 1135.13,-947.25"/>
</g>
<!-- dashboard&#45;&gt;station -->
<g id="edge13" class="edge">
<title>dashboard&#45;&gt;station</title>
<path fill="none" stroke="black" d="M724.71,-1086.93C723.52,-1048.49 725.39,-954.49 766.62,-892 811.03,-824.71 896.25,-779.27 948.41,-756.37"/>
<polygon fill="black" stroke="black" points="949.57,-759.25 957.38,-752.09 946.81,-752.82 949.57,-759.25"/>
</g>
<!-- caremanager -->
<g id="node11" class="node">
<title>caremanager</title>
<path fill="none" stroke="black" d="M482.38,-1123.25C482.38,-1123.25 392.88,-1123.25 392.88,-1123.25 386.88,-1123.25 380.88,-1117.25 380.88,-1111.25 380.88,-1111.25 380.88,-1099.25 380.88,-1099.25 380.88,-1093.25 386.88,-1087.25 392.88,-1087.25 392.88,-1087.25 482.38,-1087.25 482.38,-1087.25 488.38,-1087.25 494.38,-1093.25 494.38,-1099.25 494.38,-1099.25 494.38,-1111.25 494.38,-1111.25 494.38,-1117.25 488.38,-1123.25 482.38,-1123.25"/>
<text text-anchor="middle" x="437.62" y="-1100.58" font-family="Times,serif" font-size="14.00">CareManager</text>
</g>
<!-- caremanager_service -->
<g id="node53" class="node">
<title>caremanager_service</title>
<path fill="none" stroke="black" d="M511.25,-936C511.25,-936 364,-936 364,-936 358,-936 352,-930 352,-924 352,-924 352,-912 352,-912 352,-906 358,-900 364,-900 364,-900 511.25,-900 511.25,-900 517.25,-900 523.25,-906 523.25,-912 523.25,-912 523.25,-924 523.25,-924 523.25,-930 517.25,-936 511.25,-936"/>
<text text-anchor="middle" x="437.62" y="-913.33" font-family="Times,serif" font-size="14.00">CareManager Service</text>
</g>
<!-- caremanager&#45;&gt;caremanager_service -->
<g id="edge14" class="edge">
<title>caremanager&#45;&gt;caremanager_service</title>
<path fill="none" stroke="black" d="M437.62,-1086.82C437.62,-1054.61 437.62,-985.49 437.62,-946.76"/>
<polygon fill="black" stroke="black" points="441.13,-947.25 437.62,-937.25 434.13,-947.25 441.13,-947.25"/>
</g>
<!-- rover -->
<g id="node12" class="node">
<title>rover</title>
<path fill="none" stroke="black" d="M648.88,-1123.25C648.88,-1123.25 574.38,-1123.25 574.38,-1123.25 568.38,-1123.25 562.38,-1117.25 562.38,-1111.25 562.38,-1111.25 562.38,-1099.25 562.38,-1099.25 562.38,-1093.25 568.38,-1087.25 574.38,-1087.25 574.38,-1087.25 648.88,-1087.25 648.88,-1087.25 654.88,-1087.25 660.88,-1093.25 660.88,-1099.25 660.88,-1099.25 660.88,-1111.25 660.88,-1111.25 660.88,-1117.25 654.88,-1123.25 648.88,-1123.25"/>
<text text-anchor="middle" x="611.62" y="-1100.58" font-family="Times,serif" font-size="14.00">Rover (iOS)</text>
</g>
<!-- rover&#45;&gt;station -->
<g id="edge21" class="edge">
<title>rover&#45;&gt;station</title>
<path fill="none" stroke="black" d="M617.91,-1086.89C632.71,-1047.97 673.05,-952.4 732.62,-892 796.33,-827.41 892.86,-780.18 948.63,-756.39"/>
<polygon fill="black" stroke="black" points="949.69,-759.32 957.55,-752.22 946.98,-752.87 949.69,-759.32"/>
</g>
<!-- rover&#45;&gt;dashboard -->
<g id="edge22" class="edge">
<title>rover&#45;&gt;dashboard</title>
<path fill="none" stroke="black" d="M661.05,-1105.25C663.35,-1105.25 665.65,-1105.25 667.95,-1105.25"/>
<polygon fill="black" stroke="black" points="667.71,-1108.75 677.71,-1105.25 667.71,-1101.75 667.71,-1108.75"/>
</g>
<!-- tytocare -->
<g id="node15" class="node">
<title>tytocare</title>
<ellipse fill="none" stroke="black" cx="1376.62" cy="-18" rx="54.89" ry="18"/>
<text text-anchor="middle" x="1376.62" y="-13.32" font-family="Times,serif" font-size="14.00">Tytocare</text>
</g>
<!-- shift_admin -->
<g id="node16" class="node">
<title>shift_admin</title>
<ellipse fill="none" stroke="black" cx="2373.62" cy="-18" rx="67.52" ry="18"/>
<text text-anchor="middle" x="2373.62" y="-13.32" font-family="Times,serif" font-size="14.00">ShiftAdmin</text>
</g>
<!-- redox -->
<g id="node19" class="node">
<title>redox</title>
<ellipse fill="none" stroke="black" cx="3399.62" cy="-18" rx="42.26" ry="18"/>
<text text-anchor="middle" x="3399.62" y="-13.32" font-family="Times,serif" font-size="14.00">Redox</text>
</g>
<!-- orders -->
<g id="node56" class="node">
<title>orders</title>
<path fill="none" stroke="black" d="M3280.38,-936C3280.38,-936 3238.88,-936 3238.88,-936 3232.88,-936 3226.88,-930 3226.88,-924 3226.88,-924 3226.88,-912 3226.88,-912 3226.88,-906 3232.88,-900 3238.88,-900 3238.88,-900 3280.38,-900 3280.38,-900 3286.38,-900 3292.38,-906 3292.38,-912 3292.38,-912 3292.38,-924 3292.38,-924 3292.38,-930 3286.38,-936 3280.38,-936"/>
<text text-anchor="middle" x="3259.62" y="-913.33" font-family="Times,serif" font-size="14.00">Orders</text>
</g>
<!-- redox&#45;&gt;orders -->
<g id="edge63" class="edge">
<title>redox&#45;&gt;orders</title>
<path fill="none" stroke="black" d="M3399.62,-36.14C3399.62,-87.69 3399.62,-245.86 3399.62,-377 3399.62,-559 3399.62,-559 3399.62,-559 3399.62,-648.91 3386.89,-672.47 3353.62,-756 3333.55,-806.42 3299.45,-859.85 3278.31,-890.72"/>
<polygon fill="black" stroke="black" points="3275.01,-888.34 3272.19,-898.55 3280.77,-892.33 3275.01,-888.34"/>
</g>
<!-- abbott -->
<g id="node20" class="node">
<title>abbott</title>
<ellipse fill="none" stroke="black" cx="1035.62" cy="-18" rx="44.89" ry="18"/>
<text text-anchor="middle" x="1035.62" y="-13.32" font-family="Times,serif" font-size="14.00">Abbott</text>
</g>
<!-- abbott&#45;&gt;athena -->
<g id="edge33" class="edge">
<title>abbott&#45;&gt;athena</title>
<path fill="none" stroke="black" d="M1080.76,-18C1082.79,-18 1084.82,-18 1086.85,-18"/>
<polygon fill="black" stroke="black" points="1086.72,-21.5 1096.72,-18 1086.72,-14.5 1086.72,-21.5"/>
</g>
<!-- abbott&#45;&gt;ehr_adapter -->
<g id="edge32" class="edge">
<title>abbott&#45;&gt;ehr_adapter</title>
<path fill="none" stroke="black" d="M1035.62,-36.46C1035.62,-67.35 1035.62,-131.87 1035.62,-169.02"/>
<polygon fill="black" stroke="black" points="1032.13,-168.61 1035.62,-178.61 1039.13,-168.61 1032.13,-168.61"/>
</g>
<!-- prefect -->
<g id="node22" class="node">
<title>prefect</title>
<ellipse fill="none" stroke="black" cx="1256.62" cy="-18" rx="47.53" ry="18"/>
<text text-anchor="middle" x="1256.62" y="-13.32" font-family="Times,serif" font-size="14.00">Prefect</text>
</g>
<!-- slack -->
<g id="node23" class="node">
<title>slack</title>
<ellipse fill="none" stroke="black" cx="3301.62" cy="-18" rx="38.06" ry="18"/>
<text text-anchor="middle" x="3301.62" y="-13.32" font-family="Times,serif" font-size="14.00">Slack</text>
</g>
<!-- instamed&#45;&gt;athena -->
<g id="edge35" class="edge">
<title>instamed&#45;&gt;athena</title>
<path fill="none" stroke="black" d="M923.5,-35.93C935.38,-57.65 958.72,-93.18 990.62,-108 1026.9,-124.85 1045.08,-126.34 1080.62,-108 1105.66,-95.08 1123.05,-67.34 1133.31,-46.05"/>
<polygon fill="black" stroke="black" points="1136.83,-47.76 1137.78,-37.21 1130.46,-44.86 1136.83,-47.76"/>
</g>
<!-- performance_hub -->
<g id="node26" class="node">
<title>performance_hub</title>
<path fill="none" stroke="black" d="M3276.25,-756C3276.25,-756 3159,-756 3159,-756 3153,-756 3147,-750 3147,-744 3147,-744 3147,-732 3147,-732 3147,-726 3153,-720 3159,-720 3159,-720 3276.25,-720 3276.25,-720 3282.25,-720 3288.25,-726 3288.25,-732 3288.25,-732 3288.25,-744 3288.25,-744 3288.25,-750 3282.25,-756 3276.25,-756"/>
<text text-anchor="middle" x="3217.62" y="-733.33" font-family="Times,serif" font-size="14.00">Performance Hub</text>
</g>
<!-- performance_hub&#45;&gt;slack -->
<g id="edge69" class="edge">
<title>performance_hub&#45;&gt;slack</title>
<path fill="none" stroke="black" d="M3229.51,-719.8C3245.09,-696.14 3271.73,-651.67 3282.62,-609.25 3336.58,-399.17 3314.34,-133.23 3304.99,-47.21"/>
<polygon fill="black" stroke="black" points="3308.35,-46.83 3303.76,-37.29 3301.4,-47.61 3308.35,-46.83"/>
</g>
<!-- performance_hub&#45;&gt;clinical_kpi_service -->
<g id="edge68" class="edge">
<title>performance_hub&#45;&gt;clinical_kpi_service</title>
<path fill="none" stroke="black" stroke-dasharray="5,2" d="M3215.38,-719.61C3211.39,-688.77 3203.06,-624.26 3198.25,-587.06"/>
<polygon fill="black" stroke="black" points="3201.63,-586.93 3196.88,-577.46 3194.69,-587.83 3201.63,-586.93"/>
</g>
<!-- call_manager&#45;&gt;genesys -->
<g id="edge74" class="edge">
<title>call_manager&#45;&gt;genesys</title>
<path fill="none" stroke="black" d="M126.98,-179.61C138.31,-148.56 162.12,-83.37 175.66,-46.3"/>
<polygon fill="black" stroke="black" points="179.2,-47.79 179.34,-37.2 172.63,-45.39 179.2,-47.79"/>
</g>
<!-- call_manager&#45;&gt;twilio -->
<g id="edge70" class="edge">
<title>call_manager&#45;&gt;twilio</title>
<path fill="none" stroke="black" d="M150.62,-179.61C208.22,-146.21 333.92,-73.33 394.15,-38.41"/>
<polygon fill="black" stroke="black" points="395.68,-40.99 402.57,-32.94 392.17,-34.93 395.68,-40.99"/>
</g>
<!-- auth0 -->
<g id="node28" class="node">
<title>auth0</title>
<ellipse fill="none" stroke="black" cx="3739.62" cy="-918" rx="41.21" ry="18"/>
<text text-anchor="middle" x="3739.62" y="-913.33" font-family="Times,serif" font-size="14.00">Auth0</text>
</g>
<!-- statsig -->
<g id="node29" class="node">
<title>statsig</title>
<ellipse fill="none" stroke="black" cx="3633.62" cy="-918" rx="47" ry="18"/>
<text text-anchor="middle" x="3633.62" y="-913.33" font-family="Times,serif" font-size="14.00">Statsig</text>
</g>
<!-- datadog -->
<g id="node30" class="node">
<title>datadog</title>
<ellipse fill="none" stroke="black" cx="3515.62" cy="-918" rx="53.31" ry="18"/>
<text text-anchor="middle" x="3515.62" y="-913.33" font-family="Times,serif" font-size="14.00">Datadog</text>
</g>
<!-- amazon_s3 -->
<g id="node31" class="node">
<title>amazon_s3</title>
<ellipse fill="none" stroke="black" cx="3377.62" cy="-918" rx="66.99" ry="18"/>
<text text-anchor="middle" x="3377.62" y="-913.33" font-family="Times,serif" font-size="14.00">Amazon S3</text>
</g>
<!-- companion_api&#45;&gt;station -->
<g id="edge7" class="edge">
<title>companion_api&#45;&gt;station</title>
<path fill="none" stroke="black" d="M318.75,-899.61C326.68,-896.92 334.85,-894.28 342.62,-892 567.21,-826.24 841.75,-769.06 947.84,-747.81"/>
<polygon fill="black" stroke="black" points="948.33,-751.08 957.46,-745.69 946.96,-744.22 948.33,-751.08"/>
</g>
<!-- companion_api&#45;&gt;twilio -->
<g id="edge71" class="edge">
<title>companion_api&#45;&gt;twilio</title>
<path fill="none" stroke="black" d="M266.03,-899.71C249.93,-848.37 204.62,-692.1 204.62,-559 204.62,-559 204.62,-559 204.62,-377 204.62,-230.09 341.6,-93.56 400.84,-41.38"/>
<polygon fill="black" stroke="black" points="402.74,-43.5 408,-34.3 398.15,-38.21 402.74,-43.5"/>
</g>
<!-- companion_api&#45;&gt;consents -->
<g id="edge61" class="edge">
<title>companion_api&#45;&gt;consents</title>
<path fill="none" stroke="black" d="M271.72,-899.73C272.04,-842.31 273.08,-657.42 273.47,-586.79"/>
<polygon fill="black" stroke="black" points="276.97,-587.11 273.53,-577.09 269.97,-587.07 276.97,-587.11"/>
</g>
<!-- onboarding_api&#45;&gt;station -->
<g id="edge8" class="edge">
<title>onboarding_api&#45;&gt;station</title>
<path fill="none" stroke="black" d="M855.48,-899.61C882.38,-868.1 939.29,-801.46 970.68,-764.69"/>
<polygon fill="black" stroke="black" points="973.88,-767.34 977.71,-757.46 968.56,-762.79 973.88,-767.34"/>
</g>
<!-- onboarding_api&#45;&gt;google_maps -->
<g id="edge10" class="edge">
<title>onboarding_api&#45;&gt;google_maps</title>
<path fill="none" stroke="black" d="M888.21,-899.53C896.61,-896.78 905.32,-894.15 913.62,-892 1268.39,-800.25 2528.62,-925.44 2528.62,-559 2528.62,-559 2528.62,-559 2528.62,-377 2528.62,-254.11 2541.7,-107.95 2547.69,-47.42"/>
<polygon fill="black" stroke="black" points="2551.27,-47.78 2548.79,-37.49 2544.31,-47.09 2551.27,-47.78"/>
</g>
<!-- onboarding_api&#45;&gt;patients_service -->
<g id="edge26" class="edge">
<title>onboarding_api&#45;&gt;patients_service</title>
<path fill="none" stroke="black" stroke-dasharray="5,2" d="M821.14,-899.73C755.27,-841.36 540.77,-651.29 464.14,-583.39"/>
<polygon fill="black" stroke="black" points="466.72,-581.11 456.92,-577.09 462.08,-586.35 466.72,-581.11"/>
</g>
<!-- consumer_api&#45;&gt;station -->
<g id="edge9" class="edge">
<title>consumer_api&#45;&gt;station</title>
<path fill="none" stroke="black" d="M992.62,-899.61C992.62,-868.77 992.62,-804.26 992.62,-767.06"/>
<polygon fill="black" stroke="black" points="996.13,-767.46 992.62,-757.46 989.13,-767.46 996.13,-767.46"/>
</g>
<!-- express_api&#45;&gt;station -->
<g id="edge12" class="edge">
<title>express_api&#45;&gt;station</title>
<path fill="none" stroke="black" d="M1118.04,-899.61C1093.44,-868.1 1041.4,-801.46 1012.69,-764.69"/>
<polygon fill="black" stroke="black" points="1015.17,-763.19 1006.26,-757.46 1009.66,-767.5 1015.17,-763.19"/>
</g>
<!-- pophealth_service&#45;&gt;prefect -->
<g id="edge58" class="edge">
<title>pophealth_service&#45;&gt;prefect</title>
<path fill="none" stroke="black" d="M1049.02,-539.69C1070.31,-489.73 1133.38,-340.85 1182.62,-216 1206.36,-155.84 1232.65,-84.68 1246.62,-46.5"/>
<polygon fill="black" stroke="black" points="1250.24,-47.79 1250.38,-37.2 1243.66,-45.39 1250.24,-47.79"/>
</g>
<!-- logistics_laa&#45;&gt;wss -->
<g id="edge42" class="edge">
<title>logistics_laa&#45;&gt;wss</title>
<path fill="none" stroke="black" d="M2795.69,-576.3C2738.89,-601.22 2630.87,-644.55 2533.62,-660.62 2281.38,-702.31 474.46,-743.57 232.62,-660.62 188.52,-645.5 147.8,-608.96 123.58,-583.82"/>
<polygon fill="black" stroke="black" points="126.71,-581.99 117.31,-577.11 121.62,-586.79 126.71,-581.99"/>
</g>
<!-- logistics_laa&#45;&gt;google_maps -->
<g id="edge43" class="edge">
<title>logistics_laa&#45;&gt;google_maps</title>
<path fill="none" stroke="black" d="M2784.05,-539.59C2725.07,-516.72 2630.83,-470.47 2585.62,-396 2550.1,-337.48 2549.21,-124.58 2550.12,-47.29"/>
<polygon fill="black" stroke="black" points="2553.63,-47.54 2550.27,-37.49 2546.63,-47.44 2553.63,-47.54"/>
</g>
<!-- vroom -->
<g id="node46" class="node">
<title>vroom</title>
<path fill="none" stroke="black" d="M2644.88,-396C2644.88,-396 2606.38,-396 2606.38,-396 2600.38,-396 2594.38,-390 2594.38,-384 2594.38,-384 2594.38,-372 2594.38,-372 2594.38,-366 2600.38,-360 2606.38,-360 2606.38,-360 2644.88,-360 2644.88,-360 2650.88,-360 2656.88,-366 2656.88,-372 2656.88,-372 2656.88,-384 2656.88,-384 2656.88,-390 2650.88,-396 2644.88,-396"/>
<text text-anchor="middle" x="2625.62" y="-373.32" font-family="Times,serif" font-size="14.00">Vroom</text>
</g>
<!-- logistics_laa&#45;&gt;vroom -->
<g id="edge44" class="edge">
<title>logistics_laa&#45;&gt;vroom</title>
<path fill="none" stroke="black" d="M2815.11,-539.61C2777.55,-507.77 2697.65,-440.05 2654.58,-403.54"/>
<polygon fill="black" stroke="black" points="2657.12,-400.26 2647.23,-396.46 2652.59,-405.6 2657.12,-400.26"/>
</g>
<!-- osrm -->
<g id="node47" class="node">
<title>osrm</title>
<path fill="none" stroke="black" d="M2724.5,-396C2724.5,-396 2686.75,-396 2686.75,-396 2680.75,-396 2674.75,-390 2674.75,-384 2674.75,-384 2674.75,-372 2674.75,-372 2674.75,-366 2680.75,-360 2686.75,-360 2686.75,-360 2724.5,-360 2724.5,-360 2730.5,-360 2736.5,-366 2736.5,-372 2736.5,-372 2736.5,-384 2736.5,-384 2736.5,-390 2730.5,-396 2724.5,-396"/>
<text text-anchor="middle" x="2705.62" y="-373.32" font-family="Times,serif" font-size="14.00">OSRM</text>
</g>
<!-- logistics_laa&#45;&gt;osrm -->
<g id="edge45" class="edge">
<title>logistics_laa&#45;&gt;osrm</title>
<path fill="none" stroke="black" d="M2822.92,-539.61C2800.01,-508.24 2751.65,-442.02 2724.73,-405.16"/>
<polygon fill="black" stroke="black" points="2727.1,-403.47 2718.38,-397.46 2721.45,-407.6 2727.1,-403.47"/>
</g>
<!-- logistics_service&#45;&gt;station -->
<g id="edge37" class="edge">
<title>logistics_service&#45;&gt;station</title>
<path fill="none" stroke="black" d="M2985.8,-576.47C2966.96,-587.99 2942.48,-602.19 2918.62,-609.25 2548.82,-718.63 1291.26,-734.55 1037.45,-736.69"/>
<polygon fill="black" stroke="black" points="1037.77,-733.19 1027.8,-736.77 1037.83,-740.19 1037.77,-733.19"/>
</g>
<!-- logistics_service&#45;&gt;google_maps -->
<g id="edge38" class="edge">
<title>logistics_service&#45;&gt;google_maps</title>
<path fill="none" stroke="black" d="M3020.48,-539.7C3025.7,-502.59 3033.3,-413.7 2998.62,-352 2905.75,-186.73 2693.22,-79.6 2598.13,-38.25"/>
<polygon fill="black" stroke="black" points="2599.79,-34.73 2589.22,-34 2597.02,-41.16 2599.79,-34.73"/>
</g>
<!-- logistics_optimizer -->
<g id="node45" class="node">
<title>logistics_optimizer</title>
<path fill="none" stroke="black" d="M2977.38,-396C2977.38,-396 2845.88,-396 2845.88,-396 2839.88,-396 2833.88,-390 2833.88,-384 2833.88,-384 2833.88,-372 2833.88,-372 2833.88,-366 2839.88,-360 2845.88,-360 2845.88,-360 2977.38,-360 2977.38,-360 2983.38,-360 2989.38,-366 2989.38,-372 2989.38,-372 2989.38,-384 2989.38,-384 2989.38,-390 2983.38,-396 2977.38,-396"/>
<text text-anchor="middle" x="2911.62" y="-373.32" font-family="Times,serif" font-size="14.00">Logistics Optimizer</text>
</g>
<!-- logistics_service&#45;&gt;logistics_optimizer -->
<g id="edge39" class="edge">
<title>logistics_service&#45;&gt;logistics_optimizer</title>
<path fill="none" stroke="black" d="M3007.27,-539.61C2988.67,-508.37 2949.49,-442.58 2927.48,-405.63"/>
<polygon fill="black" stroke="black" points="2930.15,-404.26 2922.02,-397.46 2924.13,-407.84 2930.15,-404.26"/>
</g>
<!-- logistics_service&#45;&gt;osrm -->
<g id="edge40" class="edge">
<title>logistics_service&#45;&gt;osrm</title>
<path fill="none" stroke="black" d="M2987.14,-539.61C2930.41,-507.24 2808.65,-437.78 2745.48,-401.74"/>
<polygon fill="black" stroke="black" points="2747.65,-398.38 2737.23,-396.46 2744.18,-404.46 2747.65,-398.38"/>
</g>
<!-- tytocare_service&#45;&gt;tytocare -->
<g id="edge54" class="edge">
<title>tytocare_service&#45;&gt;tytocare</title>
<path fill="none" stroke="black" d="M1208.97,-539.92C1222.97,-510.85 1251.5,-449.69 1270.62,-396 1316.25,-267.87 1355.3,-109.78 1370.19,-46.79"/>
<polygon fill="black" stroke="black" points="1373.8,-47.7 1372.68,-37.17 1366.99,-46.1 1373.8,-47.7"/>
</g>
<!-- shift_schedule_service&#45;&gt;shift_admin -->
<g id="edge55" class="edge">
<title>shift_schedule_service&#45;&gt;shift_admin</title>
<path fill="none" stroke="black" stroke-dasharray="5,2" d="M2373.62,-539.71C2373.62,-462.01 2373.62,-144.75 2373.62,-47.49"/>
<polygon fill="black" stroke="black" points="2377.13,-47.5 2373.62,-37.5 2370.13,-47.5 2377.13,-47.5"/>
</g>
<!-- athena_service -->
<g id="node51" class="node">
<title>athena_service</title>
<path fill="none" stroke="black" d="M490.62,-396C490.62,-396 390.62,-396 390.62,-396 384.62,-396 378.62,-390 378.62,-384 378.62,-384 378.62,-372 378.62,-372 378.62,-366 384.62,-360 390.62,-360 390.62,-360 490.62,-360 490.62,-360 496.62,-360 502.62,-366 502.62,-372 502.62,-372 502.62,-384 502.62,-384 502.62,-390 496.62,-396 490.62,-396"/>
<text text-anchor="middle" x="440.62" y="-373.32" font-family="Times,serif" font-size="14.00">Athena Service</text>
</g>
<!-- athena_service&#45;&gt;audit_service -->
<g id="edge65" class="edge">
<title>athena_service&#45;&gt;audit_service</title>
<path fill="none" stroke="black" d="M431.83,-359.61C416.1,-328.5 383.06,-263.14 364.33,-226.11"/>
<polygon fill="black" stroke="black" points="367.09,-224.81 359.45,-217.46 360.84,-227.97 367.09,-224.81"/>
</g>
<!-- athena_service&#45;&gt;athena -->
<g id="edge30" class="edge">
<title>athena_service&#45;&gt;athena</title>
<path fill="none" stroke="black" d="M474.58,-359.73C592.66,-299.69 984.86,-100.24 1107.58,-37.84"/>
<polygon fill="black" stroke="black" points="1108.96,-40.56 1116.28,-32.9 1105.78,-34.32 1108.96,-40.56"/>
</g>
<!-- patients_service&#45;&gt;audit_service -->
<g id="edge66" class="edge">
<title>patients_service&#45;&gt;audit_service</title>
<path fill="none" stroke="black" d="M427.4,-539.72C412.47,-510.86 383.3,-450.63 369.62,-396 354.92,-337.25 351.46,-266.01 350.73,-227.33"/>
<polygon fill="black" stroke="black" points="354.21,-227.37 350.58,-217.42 347.21,-227.47 354.21,-227.37"/>
</g>
<!-- patients_service&#45;&gt;athena_service -->
<g id="edge24" class="edge">
<title>patients_service&#45;&gt;athena_service</title>
<path fill="none" stroke="black" d="M437.02,-539.61C437.71,-508.77 439.16,-444.26 439.99,-407.06"/>
<polygon fill="black" stroke="black" points="443.51,-407.54 440.23,-397.46 436.51,-407.38 443.51,-407.54"/>
</g>
<!-- caremanager_service&#45;&gt;audit_service -->
<g id="edge67" class="edge">
<title>caremanager_service&#45;&gt;audit_service</title>
<path fill="none" stroke="black" d="M431.91,-899.56C416.97,-853.05 376.86,-721.87 361.62,-609.25 342.34,-466.71 346.63,-293.86 349.31,-227.14"/>
<polygon fill="black" stroke="black" points="352.84,-227.44 349.77,-217.3 345.85,-227.15 352.84,-227.44"/>
</g>
<!-- caremanager_service&#45;&gt;station -->
<g id="edge25" class="edge">
<title>caremanager_service&#45;&gt;station</title>
<path fill="none" stroke="black" d="M492.11,-899.53C601.73,-864.37 847.07,-785.68 947.98,-753.32"/>
<polygon fill="black" stroke="black" points="948.96,-756.36 957.42,-749.97 946.83,-749.69 948.96,-756.36"/>
</g>
<!-- caremanager_service&#45;&gt;patients_service -->
<g id="edge27" class="edge">
<title>caremanager_service&#45;&gt;patients_service</title>
<path fill="none" stroke="black" stroke-dasharray="5,2" d="M437.58,-899.73C437.42,-842.31 436.9,-657.42 436.7,-586.79"/>
<polygon fill="black" stroke="black" points="440.2,-587.08 436.67,-577.09 433.2,-587.1 440.2,-587.08"/>
</g>
<!-- ehr_adapter&#45;&gt;athena -->
<g id="edge31" class="edge">
<title>ehr_adapter&#45;&gt;athena</title>
<path fill="none" stroke="black" d="M1046.27,-179.61C1065.5,-148.21 1106.1,-81.9 1128.66,-45.06"/>
<polygon fill="black" stroke="black" points="1132.01,-47.3 1134.25,-36.94 1126.04,-43.64 1132.01,-47.3"/>
</g>
<!-- orders&#45;&gt;station -->
<g id="edge62" class="edge">
<title>orders&#45;&gt;station</title>
<path fill="none" stroke="black" d="M3226.66,-913.59C3177.62,-908.56 3082.55,-899 3001.62,-892 2215.46,-823.98 1254.81,-757.03 1037.66,-742.08"/>
<polygon fill="black" stroke="black" points="1037.94,-738.53 1027.72,-741.33 1037.46,-745.51 1037.94,-738.53"/>
</g>
<!-- provider_credentials&#45;&gt;verity_stream -->
<g id="edge64" class="edge">
<title>provider_credentials&#45;&gt;verity_stream</title>
<path fill="none" stroke="black" d="M677.02,-539.71C669.79,-461.93 640.25,-144.05 631.24,-47.16"/>
<polygon fill="black" stroke="black" points="634.64,-46.86 630.23,-37.23 627.67,-47.51 634.64,-46.86"/>
</g>
<!-- provider_notifications_service -->
<g id="node58" class="node">
<title>provider_notifications_service</title>
<path fill="none" stroke="black" d="M2849.25,-936C2849.25,-936 2648,-936 2648,-936 2642,-936 2636,-930 2636,-924 2636,-924 2636,-912 2636,-912 2636,-906 2642,-900 2648,-900 2648,-900 2849.25,-900 2849.25,-900 2855.25,-900 2861.25,-906 2861.25,-912 2861.25,-912 2861.25,-924 2861.25,-924 2861.25,-930 2855.25,-936 2849.25,-936"/>
<text text-anchor="middle" x="2748.62" y="-913.33" font-family="Times,serif" font-size="14.00">Provider notifications service</text>
</g>
<!-- provider_notifications_service&#45;&gt;station -->
<g id="edge76" class="edge">
<title>provider_notifications_service&#45;&gt;station</title>
<path fill="none" stroke="black" d="M2635.77,-905.56C2291.7,-870.68 1265.49,-766.66 1037.74,-743.57"/>
<polygon fill="black" stroke="black" points="1038.19,-740 1027.89,-742.47 1037.49,-746.96 1038.19,-740"/>
</g>
<!-- provider_notifications_service&#45;&gt;logistics_service -->
<g id="edge77" class="edge">
<title>provider_notifications_service&#45;&gt;logistics_service</title>
<path fill="none" stroke="black" d="M2761.6,-899.73C2805.19,-841.72 2946.55,-653.59 2998.36,-584.64"/>
<polygon fill="black" stroke="black" points="3001.57,-587.19 3004.78,-577.09 2995.98,-582.99 3001.57,-587.19"/>
</g>
<!-- twilio_service -->
<g id="node59" class="node">
<title>twilio_service</title>
<path fill="none" stroke="black" d="M2738.75,-756C2738.75,-756 2648.5,-756 2648.5,-756 2642.5,-756 2636.5,-750 2636.5,-744 2636.5,-744 2636.5,-732 2636.5,-732 2636.5,-726 2642.5,-720 2648.5,-720 2648.5,-720 2738.75,-720 2738.75,-720 2744.75,-720 2750.75,-726 2750.75,-732 2750.75,-732 2750.75,-744 2750.75,-744 2750.75,-750 2744.75,-756 2738.75,-756"/>
<text text-anchor="middle" x="2693.62" y="-733.33" font-family="Times,serif" font-size="14.00">Twilio service</text>
</g>
<!-- provider_notifications_service&#45;&gt;twilio_service -->
<g id="edge78" class="edge">
<title>provider_notifications_service&#45;&gt;twilio_service</title>
<path fill="none" stroke="black" d="M2743.25,-899.61C2733.68,-868.64 2713.62,-803.7 2702.15,-766.58"/>
<polygon fill="black" stroke="black" points="2705.32,-765.98 2699.02,-757.46 2698.63,-768.05 2705.32,-765.98"/>
</g>
<!-- twilio_service&#45;&gt;twilio -->
<g id="edge79" class="edge">
<title>twilio_service&#45;&gt;twilio</title>
<path fill="none" stroke="black" d="M2636.13,-734.09C2548.25,-726.74 2379.79,-700.79 2275.62,-609.25 2247.31,-584.37 2269.69,-556 2240.62,-532 1775.81,-148.16 1496.2,-398.34 921.62,-216 747.13,-160.62 546.61,-72.86 465.04,-36.09"/>
<polygon fill="black" stroke="black" points="466.79,-32.59 456.24,-31.66 463.91,-38.97 466.79,-32.59"/>
</g>
<!-- slack_service -->
<g id="node60" class="node">
<title>slack_service</title>
<path fill="none" stroke="black" d="M2977.5,-936C2977.5,-936 2891.75,-936 2891.75,-936 2885.75,-936 2879.75,-930 2879.75,-924 2879.75,-924 2879.75,-912 2879.75,-912 2879.75,-906 2885.75,-900 2891.75,-900 2891.75,-900 2977.5,-900 2977.5,-900 2983.5,-900 2989.5,-906 2989.5,-912 2989.5,-912 2989.5,-924 2989.5,-924 2989.5,-930 2983.5,-936 2977.5,-936"/>
<text text-anchor="middle" x="2934.62" y="-913.33" font-family="Times,serif" font-size="14.00">Slack service</text>
</g>
<!-- slack_service&#45;&gt;slack -->
<g id="edge80" class="edge">
<title>slack_service&#45;&gt;slack</title>
<path fill="none" stroke="black" d="M2989.93,-908.53C3070.5,-893.15 3219.11,-852.76 3297.62,-756 3354.03,-686.48 3339.62,-648.52 3339.62,-559 3339.62,-559 3339.62,-559 3339.62,-377 3339.62,-253.11 3316.84,-106.43 3306.56,-46.54"/>
<polygon fill="black" stroke="black" points="3309.9,-46.32 3304.73,-37.07 3303,-47.52 3309.9,-46.32"/>
</g>
</g>
</svg>
