<?xml version="1.0" encoding="UTF-8" standalone="no"?>
<!DOCTYPE svg PUBLIC "-//W3C//DTD SVG 1.1//EN"
 "http://www.w3.org/Graphics/SVG/1.1/DTD/svg11.dtd">
<!-- Generated by graphviz version 2.50.0 (20211204.2007)
 -->
<!-- Title: G Pages: 1 -->
<svg width="1426pt" height="593pt"
 viewBox="0.00 0.00 1425.50 593.00" xmlns="http://www.w3.org/2000/svg" xmlns:xlink="http://www.w3.org/1999/xlink">
<g id="graph0" class="graph" transform="scale(1 1) rotate(0) translate(4 589)">
<title>G</title>
<polygon fill="white" stroke="transparent" points="-4,4 -4,-589 1421.5,-589 1421.5,4 -4,4"/>
<g id="clust1" class="cluster">
<title>cluster_Frontend</title>
<polygon fill="none" stroke="black" points="224.5,-485 224.5,-577 1123.5,-577 1123.5,-485 224.5,-485"/>
<text text-anchor="middle" x="674" y="-561.8" font-family="Times,serif" font-size="14.00">Frontend</text>
</g>
<g id="clust4" class="cluster">
<title>cluster_Episodes</title>
<polygon fill="none" stroke="black" stroke-dasharray="5,2" points="137.5,-83 137.5,-284 395.5,-284 395.5,-83 137.5,-83"/>
</g>
<g id="clust6" class="cluster">
<title>cluster_RCM</title>
<polygon fill="none" stroke="black" stroke-dasharray="5,2" points="844.5,-232 844.5,-389 966.5,-389 966.5,-232 844.5,-232"/>
</g>
<g id="clust7" class="cluster">
<title>cluster_Logistics</title>
<polygon fill="none" stroke="black" stroke-dasharray="5,2" points="653.5,-157 653.5,-284 747.5,-284 747.5,-157 653.5,-157"/>
</g>
<g id="clust8" class="cluster">
<title>cluster_EHR</title>
<polygon fill="none" stroke="black" stroke-dasharray="5,2" points="493.5,-8 493.5,-209 645.5,-209 645.5,-8 493.5,-8"/>
</g>
<g id="clust9" class="cluster">
<title>cluster_Universal</title>
<polygon fill="none" stroke="black" points="1131.5,-493.5 1131.5,-568.5 1409.5,-568.5 1409.5,-493.5 1131.5,-493.5"/>
<text text-anchor="middle" x="1270.5" y="-553.3" font-family="Times,serif" font-size="14.00">Universal</text>
</g>
<!-- WebOnboardingFE -->
<g id="node1" class="node">
<title>WebOnboardingFE</title>
<path fill="none" stroke="black" d="M516,-538.5C516,-538.5 459,-538.5 459,-538.5 453,-538.5 447,-532.5 447,-526.5 447,-526.5 447,-512.5 447,-512.5 447,-506.5 453,-500.5 459,-500.5 459,-500.5 516,-500.5 516,-500.5 522,-500.5 528,-506.5 528,-512.5 528,-512.5 528,-526.5 528,-526.5 528,-532.5 522,-538.5 516,-538.5"/>
<text text-anchor="middle" x="487.5" y="-523.3" font-family="Times,serif" font-size="14.00">Web</text>
<text text-anchor="middle" x="487.5" y="-508.3" font-family="Times,serif" font-size="14.00">Onboarding</text>
</g>
<!-- ConsumerAPIGatewaySvc -->
<g id="node9" class="node">
<title>ConsumerAPIGatewaySvc</title>
<g id="a_node9"><a xlink:title="Lowest privilege gateway for patient facing interfaces.">
<path fill="none" stroke="black" d="M510.5,-373.5C510.5,-373.5 444.5,-373.5 444.5,-373.5 438.5,-373.5 432.5,-367.5 432.5,-361.5 432.5,-361.5 432.5,-347.5 432.5,-347.5 432.5,-341.5 438.5,-335.5 444.5,-335.5 444.5,-335.5 510.5,-335.5 510.5,-335.5 516.5,-335.5 522.5,-341.5 522.5,-347.5 522.5,-347.5 522.5,-361.5 522.5,-361.5 522.5,-367.5 516.5,-373.5 510.5,-373.5"/>
<text text-anchor="middle" x="477.5" y="-358.3" font-family="Times,serif" font-size="14.00">Consumer</text>
<text text-anchor="middle" x="477.5" y="-343.3" font-family="Times,serif" font-size="14.00">API Gateway</text>
</a>
</g>
</g>
<!-- WebOnboardingFE&#45;&gt;ConsumerAPIGatewaySvc -->
<g id="edge9" class="edge">
<title>WebOnboardingFE&#45;&gt;ConsumerAPIGatewaySvc</title>
<path fill="none" stroke="black" d="M486.39,-500.43C484.66,-472.16 481.29,-417.24 479.23,-383.72"/>
<polygon fill="black" stroke="black" points="482.72,-383.41 478.61,-373.65 475.73,-383.84 482.72,-383.41"/>
</g>
<!-- AdvancedCareOnboardingFE -->
<g id="node2" class="node">
<title>AdvancedCareOnboardingFE</title>
<path fill="none" stroke="black" d="M318,-538.5C318,-538.5 245,-538.5 245,-538.5 239,-538.5 233,-532.5 233,-526.5 233,-526.5 233,-512.5 233,-512.5 233,-506.5 239,-500.5 245,-500.5 245,-500.5 318,-500.5 318,-500.5 324,-500.5 330,-506.5 330,-512.5 330,-512.5 330,-526.5 330,-526.5 330,-532.5 324,-538.5 318,-538.5"/>
<text text-anchor="middle" x="281.5" y="-523.3" font-family="Times,serif" font-size="14.00">AdvancedCare</text>
<text text-anchor="middle" x="281.5" y="-508.3" font-family="Times,serif" font-size="14.00">Onboarding</text>
</g>
<!-- PartnerAPIGatewaySvc -->
<g id="node10" class="node">
<title>PartnerAPIGatewaySvc</title>
<g id="a_node10"><a xlink:title="Moderate privilege gateway for partner facing interfaces.">
<path fill="none" stroke="black" d="M314.5,-373.5C314.5,-373.5 248.5,-373.5 248.5,-373.5 242.5,-373.5 236.5,-367.5 236.5,-361.5 236.5,-361.5 236.5,-347.5 236.5,-347.5 236.5,-341.5 242.5,-335.5 248.5,-335.5 248.5,-335.5 314.5,-335.5 314.5,-335.5 320.5,-335.5 326.5,-341.5 326.5,-347.5 326.5,-347.5 326.5,-361.5 326.5,-361.5 326.5,-367.5 320.5,-373.5 314.5,-373.5"/>
<text text-anchor="middle" x="281.5" y="-358.3" font-family="Times,serif" font-size="14.00">Partner</text>
<text text-anchor="middle" x="281.5" y="-343.3" font-family="Times,serif" font-size="14.00">API Gateway</text>
</a>
</g>
</g>
<!-- AdvancedCareOnboardingFE&#45;&gt;PartnerAPIGatewaySvc -->
<g id="edge11" class="edge">
<title>AdvancedCareOnboardingFE&#45;&gt;PartnerAPIGatewaySvc</title>
<path fill="none" stroke="black" d="M281.5,-500.43C281.5,-472.16 281.5,-417.24 281.5,-383.72"/>
<polygon fill="black" stroke="black" points="285,-383.65 281.5,-373.65 278,-383.65 285,-383.65"/>
</g>
<!-- PartnerOnboardingFE -->
<g id="node3" class="node">
<title>PartnerOnboardingFE</title>
<path fill="none" stroke="black" d="M417,-538.5C417,-538.5 360,-538.5 360,-538.5 354,-538.5 348,-532.5 348,-526.5 348,-526.5 348,-512.5 348,-512.5 348,-506.5 354,-500.5 360,-500.5 360,-500.5 417,-500.5 417,-500.5 423,-500.5 429,-506.5 429,-512.5 429,-512.5 429,-526.5 429,-526.5 429,-532.5 423,-538.5 417,-538.5"/>
<text text-anchor="middle" x="388.5" y="-523.3" font-family="Times,serif" font-size="14.00">Partner</text>
<text text-anchor="middle" x="388.5" y="-508.3" font-family="Times,serif" font-size="14.00">Onboarding</text>
</g>
<!-- PartnerOnboardingFE&#45;&gt;PartnerAPIGatewaySvc -->
<g id="edge12" class="edge">
<title>PartnerOnboardingFE&#45;&gt;PartnerAPIGatewaySvc</title>
<path fill="none" stroke="black" d="M376.64,-500.43C357.84,-471.79 321.09,-415.81 299.17,-382.42"/>
<polygon fill="black" stroke="black" points="301.83,-380.09 293.41,-373.65 295.97,-383.93 301.83,-380.09"/>
</g>
<!-- ManualOptimizerFE -->
<g id="node4" class="node">
<title>ManualOptimizerFE</title>
<path fill="none" stroke="black" d="M1103,-537.5C1103,-537.5 1010,-537.5 1010,-537.5 1004,-537.5 998,-531.5 998,-525.5 998,-525.5 998,-513.5 998,-513.5 998,-507.5 1004,-501.5 1010,-501.5 1010,-501.5 1103,-501.5 1103,-501.5 1109,-501.5 1115,-507.5 1115,-513.5 1115,-513.5 1115,-525.5 1115,-525.5 1115,-531.5 1109,-537.5 1103,-537.5"/>
<text text-anchor="middle" x="1056.5" y="-515.8" font-family="Times,serif" font-size="14.00">Optimizer Ops FE</text>
</g>
<!-- AdminAPIGatewaySvc -->
<g id="node11" class="node">
<title>AdminAPIGatewaySvc</title>
<g id="a_node11"><a xlink:title="High privilege gateway for Dispatch internal interfaces.">
<path fill="none" stroke="black" d="M1052.5,-373.5C1052.5,-373.5 986.5,-373.5 986.5,-373.5 980.5,-373.5 974.5,-367.5 974.5,-361.5 974.5,-361.5 974.5,-347.5 974.5,-347.5 974.5,-341.5 980.5,-335.5 986.5,-335.5 986.5,-335.5 1052.5,-335.5 1052.5,-335.5 1058.5,-335.5 1064.5,-341.5 1064.5,-347.5 1064.5,-347.5 1064.5,-361.5 1064.5,-361.5 1064.5,-367.5 1058.5,-373.5 1052.5,-373.5"/>
<text text-anchor="middle" x="1019.5" y="-358.3" font-family="Times,serif" font-size="14.00">Admin</text>
<text text-anchor="middle" x="1019.5" y="-343.3" font-family="Times,serif" font-size="14.00">API Gateway</text>
</a>
</g>
</g>
<!-- ManualOptimizerFE&#45;&gt;AdminAPIGatewaySvc -->
<g id="edge4" class="edge">
<title>ManualOptimizerFE&#45;&gt;AdminAPIGatewaySvc</title>
<path fill="none" stroke="black" d="M1065.94,-501.28C1075.83,-480.86 1088.51,-446.04 1077.5,-418 1071.93,-403.81 1061.45,-390.92 1050.92,-380.58"/>
<polygon fill="black" stroke="black" points="1053.02,-377.76 1043.31,-373.52 1048.26,-382.89 1053.02,-377.76"/>
<text text-anchor="middle" x="1112" y="-433.3" font-family="Times,serif" font-size="14.00">Scheduling</text>
</g>
<!-- ProviderFE -->
<g id="node5" class="node">
<title>ProviderFE</title>
<path fill="none" stroke="black" d="M860.5,-538.5C860.5,-538.5 772.5,-538.5 772.5,-538.5 766.5,-538.5 760.5,-532.5 760.5,-526.5 760.5,-526.5 760.5,-512.5 760.5,-512.5 760.5,-506.5 766.5,-500.5 772.5,-500.5 772.5,-500.5 860.5,-500.5 860.5,-500.5 866.5,-500.5 872.5,-506.5 872.5,-512.5 872.5,-512.5 872.5,-526.5 872.5,-526.5 872.5,-532.5 866.5,-538.5 860.5,-538.5"/>
<text text-anchor="middle" x="816.5" y="-523.3" font-family="Times,serif" font-size="14.00">Provider</text>
<text text-anchor="middle" x="816.5" y="-508.3" font-family="Times,serif" font-size="14.00">(Self&#45;Service FE)</text>
</g>
<!-- ProviderFE&#45;&gt;AdminAPIGatewaySvc -->
<g id="edge7" class="edge">
<title>ProviderFE&#45;&gt;AdminAPIGatewaySvc</title>
<path fill="none" stroke="black" d="M821.06,-500.44C827.69,-477.84 842.18,-439.51 868.5,-418 904.99,-388.18 927.83,-409 970.5,-389 976.26,-386.3 982.08,-382.96 987.61,-379.44"/>
<polygon fill="black" stroke="black" points="989.64,-382.3 996,-373.83 985.75,-376.48 989.64,-382.3"/>
<text text-anchor="middle" x="894.5" y="-440.8" font-family="Times,serif" font-size="14.00">Provider</text>
<text text-anchor="middle" x="894.5" y="-425.8" font-family="Times,serif" font-size="14.00">Metadata</text>
</g>
<!-- ProviderApp -->
<g id="node6" class="node">
<title>ProviderApp</title>
<path fill="none" stroke="black" d="M968,-538.5C968,-538.5 903,-538.5 903,-538.5 897,-538.5 891,-532.5 891,-526.5 891,-526.5 891,-512.5 891,-512.5 891,-506.5 897,-500.5 903,-500.5 903,-500.5 968,-500.5 968,-500.5 974,-500.5 980,-506.5 980,-512.5 980,-512.5 980,-526.5 980,-526.5 980,-532.5 974,-538.5 968,-538.5"/>
<text text-anchor="middle" x="935.5" y="-523.3" font-family="Times,serif" font-size="14.00">Provider App</text>
<text text-anchor="middle" x="935.5" y="-508.3" font-family="Times,serif" font-size="14.00">(Rover)</text>
</g>
<!-- ProviderApp&#45;&gt;AdminAPIGatewaySvc -->
<g id="edge1" class="edge">
<title>ProviderApp&#45;&gt;AdminAPIGatewaySvc</title>
<path fill="none" stroke="black" d="M930.24,-500.3C925.21,-479.24 920.19,-444.12 933.5,-418 935,-415.05 961.8,-395.8 985.09,-379.43"/>
<polygon fill="black" stroke="black" points="987.28,-382.17 993.46,-373.57 983.26,-376.44 987.28,-382.17"/>
<text text-anchor="middle" x="964" y="-440.8" font-family="Times,serif" font-size="14.00">Location/</text>
<text text-anchor="middle" x="964" y="-425.8" font-family="Times,serif" font-size="14.00">Scheduling</text>
</g>
<!-- ProviderApp&#45;&gt;AdminAPIGatewaySvc -->
<g id="edge2" class="edge">
<title>ProviderApp&#45;&gt;AdminAPIGatewaySvc</title>
<path fill="none" stroke="black" d="M957.55,-500.35C970.13,-488.87 985.2,-473.02 994.5,-456 1006.84,-433.43 1013.19,-404.7 1016.4,-383.74"/>
<polygon fill="black" stroke="black" points="1019.9,-383.95 1017.8,-373.57 1012.97,-382.99 1019.9,-383.95"/>
<text text-anchor="middle" x="1037" y="-433.3" font-family="Times,serif" font-size="14.00">Treatment</text>
</g>
<!-- PatientFE -->
<g id="node7" class="node">
<title>PatientFE</title>
<path fill="none" stroke="black" d="M623,-538.5C623,-538.5 558,-538.5 558,-538.5 552,-538.5 546,-532.5 546,-526.5 546,-526.5 546,-512.5 546,-512.5 546,-506.5 552,-500.5 558,-500.5 558,-500.5 623,-500.5 623,-500.5 629,-500.5 635,-506.5 635,-512.5 635,-512.5 635,-526.5 635,-526.5 635,-532.5 629,-538.5 623,-538.5"/>
<text text-anchor="middle" x="590.5" y="-523.3" font-family="Times,serif" font-size="14.00">Patient</text>
<text text-anchor="middle" x="590.5" y="-508.3" font-family="Times,serif" font-size="14.00">(Companion)</text>
</g>
<!-- PatientFE&#45;&gt;ConsumerAPIGatewaySvc -->
<g id="edge10" class="edge">
<title>PatientFE&#45;&gt;ConsumerAPIGatewaySvc</title>
<path fill="none" stroke="black" d="M577.98,-500.43C558.04,-471.67 518.97,-415.33 495.87,-382"/>
<polygon fill="black" stroke="black" points="498.65,-379.87 490.08,-373.65 492.9,-383.86 498.65,-379.87"/>
</g>
<!-- RevenueCycleManagementFE -->
<g id="node8" class="node">
<title>RevenueCycleManagementFE</title>
<path fill="none" stroke="black" d="M730,-546C730,-546 665,-546 665,-546 659,-546 653,-540 653,-534 653,-534 653,-505 653,-505 653,-499 659,-493 665,-493 665,-493 730,-493 730,-493 736,-493 742,-499 742,-505 742,-505 742,-534 742,-534 742,-540 736,-546 730,-546"/>
<text text-anchor="middle" x="697.5" y="-530.8" font-family="Times,serif" font-size="14.00">Revenue</text>
<text text-anchor="middle" x="697.5" y="-515.8" font-family="Times,serif" font-size="14.00">Cycle</text>
<text text-anchor="middle" x="697.5" y="-500.8" font-family="Times,serif" font-size="14.00">Management</text>
</g>
<!-- RevenueCycleManagementAPIGatewaySvc -->
<g id="node12" class="node">
<title>RevenueCycleManagementAPIGatewaySvc</title>
<g id="a_node12"><a xlink:title="Revenue cycle management gateway.">
<path fill="none" stroke="black" d="M775.5,-456C775.5,-456 709.5,-456 709.5,-456 703.5,-456 697.5,-450 697.5,-444 697.5,-444 697.5,-430 697.5,-430 697.5,-424 703.5,-418 709.5,-418 709.5,-418 775.5,-418 775.5,-418 781.5,-418 787.5,-424 787.5,-430 787.5,-430 787.5,-444 787.5,-444 787.5,-450 781.5,-456 775.5,-456"/>
<text text-anchor="middle" x="742.5" y="-440.8" font-family="Times,serif" font-size="14.00">RCM</text>
<text text-anchor="middle" x="742.5" y="-425.8" font-family="Times,serif" font-size="14.00">API Gateway</text>
</a>
</g>
</g>
<!-- RevenueCycleManagementFE&#45;&gt;RevenueCycleManagementAPIGatewaySvc -->
<g id="edge20" class="edge">
<title>RevenueCycleManagementFE&#45;&gt;RevenueCycleManagementAPIGatewaySvc</title>
<path fill="none" stroke="black" d="M711.99,-492.59C716.87,-483.85 722.33,-474.08 727.27,-465.25"/>
<polygon fill="black" stroke="black" points="730.35,-466.9 732.18,-456.47 724.24,-463.49 730.35,-466.9"/>
</g>
<!-- EpisodeSvc -->
<g id="node13" class="node">
<title>EpisodeSvc</title>
<path fill="none" stroke="black" d="M375.5,-276C375.5,-276 339.5,-276 339.5,-276 333.5,-276 327.5,-270 327.5,-264 327.5,-264 327.5,-252 327.5,-252 327.5,-246 333.5,-240 339.5,-240 339.5,-240 375.5,-240 375.5,-240 381.5,-240 387.5,-246 387.5,-252 387.5,-252 387.5,-264 387.5,-264 387.5,-270 381.5,-276 375.5,-276"/>
<text text-anchor="middle" x="357.5" y="-254.3" font-family="Times,serif" font-size="14.00">Episode</text>
</g>
<!-- ConsumerAPIGatewaySvc&#45;&gt;EpisodeSvc -->
<g id="edge17" class="edge">
<title>ConsumerAPIGatewaySvc&#45;&gt;EpisodeSvc</title>
<path fill="none" stroke="black" d="M454.36,-335.28C435.24,-320.22 407.97,-298.74 387.23,-282.41"/>
<polygon fill="black" stroke="black" points="389.37,-279.65 379.35,-276.21 385.04,-285.15 389.37,-279.65"/>
</g>
<!-- ChiefComplaintSvc -->
<g id="node16" class="node">
<title>ChiefComplaintSvc</title>
<polygon fill="none" stroke="black" stroke-dasharray="5,2" points="219.5,-202 145.5,-202 145.5,-164 219.5,-164 219.5,-202"/>
<polyline fill="none" stroke="black" stroke-dasharray="5,2" points="157.5,-202 145.5,-190 "/>
<polyline fill="none" stroke="black" stroke-dasharray="5,2" points="145.5,-176 157.5,-164 "/>
<polyline fill="none" stroke="black" stroke-dasharray="5,2" points="207.5,-164 219.5,-176 "/>
<polyline fill="none" stroke="black" stroke-dasharray="5,2" points="219.5,-190 207.5,-202 "/>
<text text-anchor="middle" x="182.5" y="-186.8" font-family="Times,serif" font-size="14.00">Chief</text>
<text text-anchor="middle" x="182.5" y="-171.8" font-family="Times,serif" font-size="14.00">Complaint</text>
</g>
<!-- ConsumerAPIGatewaySvc&#45;&gt;ChiefComplaintSvc -->
<g id="edge15" class="edge">
<title>ConsumerAPIGatewaySvc&#45;&gt;ChiefComplaintSvc</title>
<path fill="none" stroke="black" d="M432.35,-336.87C399.8,-324.15 355.3,-305.22 318.5,-284 279.62,-261.58 238.58,-230.19 211.89,-208.59"/>
<polygon fill="black" stroke="black" points="214.04,-205.84 204.08,-202.23 209.62,-211.26 214.04,-205.84"/>
</g>
<!-- LogisticsSvc -->
<g id="node20" class="node">
<title>LogisticsSvc</title>
<path fill="none" stroke="black" d="M715.5,-276C715.5,-276 673.5,-276 673.5,-276 667.5,-276 661.5,-270 661.5,-264 661.5,-264 661.5,-252 661.5,-252 661.5,-246 667.5,-240 673.5,-240 673.5,-240 715.5,-240 715.5,-240 721.5,-240 727.5,-246 727.5,-252 727.5,-252 727.5,-264 727.5,-264 727.5,-270 721.5,-276 715.5,-276"/>
<text text-anchor="middle" x="694.5" y="-254.3" font-family="Times,serif" font-size="14.00">Logistics</text>
</g>
<!-- ConsumerAPIGatewaySvc&#45;&gt;LogisticsSvc -->
<g id="edge13" class="edge">
<title>ConsumerAPIGatewaySvc&#45;&gt;LogisticsSvc</title>
<path fill="none" stroke="black" d="M519.08,-335.39C557.2,-318.79 613.4,-294.32 651.85,-277.57"/>
<polygon fill="black" stroke="black" points="653.45,-280.69 661.22,-273.49 650.66,-274.27 653.45,-280.69"/>
<text text-anchor="middle" x="642" y="-298.8" font-family="Times,serif" font-size="14.00">Scheduling</text>
</g>
<!-- PatientSvc -->
<g id="node22" class="node">
<title>PatientSvc</title>
<path fill="none" stroke="black" d="M543.5,-201C543.5,-201 513.5,-201 513.5,-201 507.5,-201 501.5,-195 501.5,-189 501.5,-189 501.5,-177 501.5,-177 501.5,-171 507.5,-165 513.5,-165 513.5,-165 543.5,-165 543.5,-165 549.5,-165 555.5,-171 555.5,-177 555.5,-177 555.5,-189 555.5,-189 555.5,-195 549.5,-201 543.5,-201"/>
<text text-anchor="middle" x="528.5" y="-179.3" font-family="Times,serif" font-size="14.00">Patient</text>
</g>
<!-- ConsumerAPIGatewaySvc&#45;&gt;PatientSvc -->
<g id="edge24" class="edge">
<title>ConsumerAPIGatewaySvc&#45;&gt;PatientSvc</title>
<path fill="none" stroke="black" d="M480.13,-335.41C482.02,-323.76 484.86,-308.36 488.5,-295 496.53,-265.52 508.78,-232.71 517.61,-210.46"/>
<polygon fill="black" stroke="black" points="520.92,-211.61 521.4,-201.03 514.42,-209 520.92,-211.61"/>
</g>
<!-- RiskAssessmentSvc -->
<g id="node29" class="node">
<title>RiskAssessmentSvc</title>
<path fill="none" stroke="black" d="M117,-277C117,-277 60,-277 60,-277 54,-277 48,-271 48,-265 48,-265 48,-251 48,-251 48,-245 54,-239 60,-239 60,-239 117,-239 117,-239 123,-239 129,-245 129,-251 129,-251 129,-265 129,-265 129,-271 123,-277 117,-277"/>
<text text-anchor="middle" x="88.5" y="-261.8" font-family="Times,serif" font-size="14.00">Risk</text>
<text text-anchor="middle" x="88.5" y="-246.8" font-family="Times,serif" font-size="14.00">Assessment</text>
</g>
<!-- ConsumerAPIGatewaySvc&#45;&gt;RiskAssessmentSvc -->
<g id="edge37" class="edge">
<title>ConsumerAPIGatewaySvc&#45;&gt;RiskAssessmentSvc</title>
<path fill="none" stroke="black" d="M432.23,-344.54C340.45,-326.35 140.54,-286.6 133.5,-284 131.39,-283.22 129.26,-282.35 127.13,-281.42"/>
<polygon fill="black" stroke="black" points="128.43,-278.17 117.9,-277.01 125.41,-284.48 128.43,-278.17"/>
</g>
<!-- UsageMonitoringSvc -->
<g id="node34" class="node">
<title>UsageMonitoringSvc</title>
<path fill="none" stroke="black" d="M823,-277C823,-277 768,-277 768,-277 762,-277 756,-271 756,-265 756,-265 756,-251 756,-251 756,-245 762,-239 768,-239 768,-239 823,-239 823,-239 829,-239 835,-245 835,-251 835,-251 835,-265 835,-265 835,-271 829,-277 823,-277"/>
<text text-anchor="middle" x="795.5" y="-261.8" font-family="Times,serif" font-size="14.00">Usage</text>
<text text-anchor="middle" x="795.5" y="-246.8" font-family="Times,serif" font-size="14.00">Monitoring</text>
</g>
<!-- ConsumerAPIGatewaySvc&#45;&gt;UsageMonitoringSvc -->
<g id="edge29" class="edge">
<title>ConsumerAPIGatewaySvc&#45;&gt;UsageMonitoringSvc</title>
<path fill="none" stroke="black" d="M522.74,-348.92C569.15,-343.28 642.92,-331.65 703.5,-310 704.93,-309.49 750.17,-284.74 751.5,-284 752.62,-283.38 753.76,-282.74 754.91,-282.1"/>
<polygon fill="black" stroke="black" points="756.81,-285.05 763.82,-277.1 753.39,-278.94 756.81,-285.05"/>
</g>
<!-- PartnerAPIGatewaySvc&#45;&gt;EpisodeSvc -->
<g id="edge18" class="edge">
<title>PartnerAPIGatewaySvc&#45;&gt;EpisodeSvc</title>
<path fill="none" stroke="black" d="M296.15,-335.28C307.83,-320.76 324.32,-300.26 337.26,-284.17"/>
<polygon fill="black" stroke="black" points="340.12,-286.2 343.66,-276.21 334.67,-281.81 340.12,-286.2"/>
</g>
<!-- PartnerAPIGatewaySvc&#45;&gt;ChiefComplaintSvc -->
<g id="edge16" class="edge">
<title>PartnerAPIGatewaySvc&#45;&gt;ChiefComplaintSvc</title>
<path fill="none" stroke="black" d="M236.25,-347.1C172.75,-337.08 62.28,-315.53 38.5,-284 24.59,-265.55 24.25,-250.2 38.5,-232 64.75,-198.47 91.49,-223.56 131.5,-209 133.89,-208.13 136.32,-207.18 138.75,-206.18"/>
<polygon fill="black" stroke="black" points="140.33,-209.31 148.09,-202.09 137.53,-202.89 140.33,-209.31"/>
</g>
<!-- PartnerAPIGatewaySvc&#45;&gt;LogisticsSvc -->
<g id="edge14" class="edge">
<title>PartnerAPIGatewaySvc&#45;&gt;LogisticsSvc</title>
<path fill="none" stroke="black" d="M326.56,-343.48C363.5,-335.09 417.07,-322.5 463.5,-310 485.9,-303.97 490.99,-300.6 513.5,-295 560.25,-283.37 614.52,-272.98 651.36,-266.39"/>
<polygon fill="black" stroke="black" points="652.03,-269.82 661.26,-264.63 650.8,-262.93 652.03,-269.82"/>
<text text-anchor="middle" x="544" y="-298.8" font-family="Times,serif" font-size="14.00">Scheduling</text>
</g>
<!-- PartnerAPIGatewaySvc&#45;&gt;PatientSvc -->
<g id="edge25" class="edge">
<title>PartnerAPIGatewaySvc&#45;&gt;PatientSvc</title>
<path fill="none" stroke="black" d="M314.75,-335.42C338.78,-321.99 371.75,-302.81 399.5,-284 435.48,-259.6 474.66,-228.54 500.28,-207.56"/>
<polygon fill="black" stroke="black" points="502.61,-210.18 508.11,-201.12 498.16,-204.77 502.61,-210.18"/>
</g>
<!-- PartnerAPIGatewaySvc&#45;&gt;RiskAssessmentSvc -->
<g id="edge38" class="edge">
<title>PartnerAPIGatewaySvc&#45;&gt;RiskAssessmentSvc</title>
<path fill="none" stroke="black" d="M240.53,-335.39C210.56,-321.88 169.1,-302.6 133.5,-284 132.34,-283.39 131.17,-282.78 129.99,-282.15"/>
<polygon fill="black" stroke="black" points="131.3,-278.88 120.84,-277.22 127.98,-285.05 131.3,-278.88"/>
</g>
<!-- PartnerSvc -->
<g id="node30" class="node">
<title>PartnerSvc</title>
<path fill="none" stroke="black" d="M110.5,-201C110.5,-201 78.5,-201 78.5,-201 72.5,-201 66.5,-195 66.5,-189 66.5,-189 66.5,-177 66.5,-177 66.5,-171 72.5,-165 78.5,-165 78.5,-165 110.5,-165 110.5,-165 116.5,-165 122.5,-171 122.5,-177 122.5,-177 122.5,-189 122.5,-189 122.5,-195 116.5,-201 110.5,-201"/>
<text text-anchor="middle" x="94.5" y="-179.3" font-family="Times,serif" font-size="14.00">Partner</text>
</g>
<!-- PartnerAPIGatewaySvc&#45;&gt;PartnerSvc -->
<g id="edge19" class="edge">
<title>PartnerAPIGatewaySvc&#45;&gt;PartnerSvc</title>
<path fill="none" stroke="black" d="M236.31,-353.65C186.89,-351.95 106.83,-343.59 47.5,-310 16.05,-292.19 7.65,-263.98 24.5,-232 31.7,-218.34 44.74,-207.81 57.63,-200.15"/>
<polygon fill="black" stroke="black" points="59.37,-203.19 66.45,-195.3 56,-197.05 59.37,-203.19"/>
</g>
<!-- PartnerAPIGatewaySvc&#45;&gt;UsageMonitoringSvc -->
<g id="edge30" class="edge">
<title>PartnerAPIGatewaySvc&#45;&gt;UsageMonitoringSvc</title>
<path fill="none" stroke="black" d="M326.72,-344.11C354.52,-338.65 390.94,-332.07 423.5,-328 535.36,-314.02 567.78,-339.78 676.5,-310 690.88,-306.06 692.51,-300.14 706.5,-295 725.83,-287.91 732.37,-291.6 751.5,-284 753.34,-283.27 755.19,-282.48 757.05,-281.63"/>
<polygon fill="black" stroke="black" points="758.81,-284.66 766.23,-277.1 755.72,-278.39 758.81,-284.66"/>
</g>
<!-- AdminAPIGatewaySvc&#45;&gt;LogisticsSvc -->
<g id="edge6" class="edge">
<title>AdminAPIGatewaySvc&#45;&gt;LogisticsSvc</title>
<path fill="none" stroke="black" d="M989.13,-335.5C983.12,-332.57 976.74,-329.89 970.5,-328 899.47,-306.5 876.06,-329.65 804.5,-310 777.65,-302.63 772.76,-295.72 747.5,-284 743.97,-282.36 740.31,-280.65 736.63,-278.93"/>
<polygon fill="black" stroke="black" points="738.09,-275.75 727.55,-274.67 735.11,-282.09 738.09,-275.75"/>
<text text-anchor="middle" x="835" y="-298.8" font-family="Times,serif" font-size="14.00">Scheduling</text>
</g>
<!-- EquipmentSvc -->
<g id="node21" class="node">
<title>EquipmentSvc</title>
<path fill="none" stroke="black" d="M727,-201C727,-201 674,-201 674,-201 668,-201 662,-195 662,-189 662,-189 662,-177 662,-177 662,-171 668,-165 674,-165 674,-165 727,-165 727,-165 733,-165 739,-171 739,-177 739,-177 739,-189 739,-189 739,-195 733,-201 727,-201"/>
<text text-anchor="middle" x="700.5" y="-179.3" font-family="Times,serif" font-size="14.00">Equipment</text>
</g>
<!-- AdminAPIGatewaySvc&#45;&gt;EquipmentSvc -->
<g id="edge5" class="edge">
<title>AdminAPIGatewaySvc&#45;&gt;EquipmentSvc</title>
<path fill="none" stroke="black" d="M1064.62,-341.44C1092.94,-331.23 1127.11,-313.43 1143.5,-284 1154.75,-263.81 1158.94,-249.2 1143.5,-232 1117.53,-203.07 859.21,-189.98 749.44,-185.69"/>
<polygon fill="black" stroke="black" points="749.42,-182.18 739.29,-185.3 749.15,-189.18 749.42,-182.18"/>
<text text-anchor="middle" x="1178" y="-254.3" font-family="Times,serif" font-size="14.00">Location</text>
</g>
<!-- AdminAPIGatewaySvc&#45;&gt;PatientSvc -->
<g id="edge3" class="edge">
<title>AdminAPIGatewaySvc&#45;&gt;PatientSvc</title>
<path fill="none" stroke="black" d="M1012.77,-335.37C1000.41,-302.28 974.95,-235.19 970.5,-232 897.24,-179.47 650.91,-237.82 565.5,-209 563.29,-208.25 561.09,-207.34 558.93,-206.31"/>
<polygon fill="black" stroke="black" points="560.2,-203.01 549.77,-201.16 556.77,-209.11 560.2,-203.01"/>
<text text-anchor="middle" x="1021" y="-254.3" font-family="Times,serif" font-size="14.00">Treatment</text>
</g>
<!-- ProviderSvc -->
<g id="node23" class="node">
<title>ProviderSvc</title>
<path fill="none" stroke="black" d="M625,-201C625,-201 586,-201 586,-201 580,-201 574,-195 574,-189 574,-189 574,-177 574,-177 574,-171 580,-165 586,-165 586,-165 625,-165 625,-165 631,-165 637,-171 637,-177 637,-177 637,-189 637,-189 637,-195 631,-201 625,-201"/>
<text text-anchor="middle" x="605.5" y="-179.3" font-family="Times,serif" font-size="14.00">Provider</text>
</g>
<!-- AdminAPIGatewaySvc&#45;&gt;ProviderSvc -->
<g id="edge8" class="edge">
<title>AdminAPIGatewaySvc&#45;&gt;ProviderSvc</title>
<path fill="none" stroke="black" d="M1034.33,-335.34C1053.85,-309.16 1082.7,-260.78 1055.5,-232 1024.47,-199.16 692.84,-221.77 649.5,-209 646.38,-208.08 643.25,-206.91 640.16,-205.57"/>
<polygon fill="black" stroke="black" points="641.66,-202.4 631.14,-201.15 638.59,-208.69 641.66,-202.4"/>
<text text-anchor="middle" x="1092.5" y="-261.8" font-family="Times,serif" font-size="14.00">Provider</text>
<text text-anchor="middle" x="1092.5" y="-246.8" font-family="Times,serif" font-size="14.00">Metadata</text>
</g>
<!-- AdminAPIGatewaySvc&#45;&gt;UsageMonitoringSvc -->
<g id="edge31" class="edge">
<title>AdminAPIGatewaySvc&#45;&gt;UsageMonitoringSvc</title>
<path fill="none" stroke="black" d="M986.35,-335.38C981.11,-332.77 975.7,-330.22 970.5,-328 914.39,-304.07 896.28,-308.69 840.5,-284 838.93,-283.3 837.34,-282.57 835.74,-281.81"/>
<polygon fill="black" stroke="black" points="837.11,-278.58 826.6,-277.23 833.97,-284.84 837.11,-278.58"/>
</g>
<!-- RevenueCycleManagementSvc -->
<g id="node18" class="node">
<title>RevenueCycleManagementSvc</title>
<path fill="none" stroke="black" d="M930,-381C930,-381 865,-381 865,-381 859,-381 853,-375 853,-369 853,-369 853,-340 853,-340 853,-334 859,-328 865,-328 865,-328 930,-328 930,-328 936,-328 942,-334 942,-340 942,-340 942,-369 942,-369 942,-375 936,-381 930,-381"/>
<text text-anchor="middle" x="897.5" y="-365.8" font-family="Times,serif" font-size="14.00">Revenue</text>
<text text-anchor="middle" x="897.5" y="-350.8" font-family="Times,serif" font-size="14.00">Cycle</text>
<text text-anchor="middle" x="897.5" y="-335.8" font-family="Times,serif" font-size="14.00">Management</text>
</g>
<!-- RevenueCycleManagementAPIGatewaySvc&#45;&gt;RevenueCycleManagementSvc -->
<g id="edge21" class="edge">
<title>RevenueCycleManagementAPIGatewaySvc&#45;&gt;RevenueCycleManagementSvc</title>
<path fill="none" stroke="black" d="M776.63,-417.84C788.02,-411.81 800.79,-405.09 812.5,-399 822.62,-393.73 833.45,-388.16 843.87,-382.81"/>
<polygon fill="black" stroke="black" points="845.58,-385.87 852.89,-378.19 842.39,-379.64 845.58,-385.87"/>
</g>
<!-- RevenueCycleManagementAPIGatewaySvc&#45;&gt;UsageMonitoringSvc -->
<g id="edge32" class="edge">
<title>RevenueCycleManagementAPIGatewaySvc&#45;&gt;UsageMonitoringSvc</title>
<path fill="none" stroke="black" d="M742.21,-417.73C742.45,-389.93 745.59,-335.93 764.5,-295 766.08,-291.58 768.08,-288.23 770.31,-285.04"/>
<polygon fill="black" stroke="black" points="773.18,-287.06 776.58,-277.02 767.66,-282.74 773.18,-287.06"/>
</g>
<!-- VisitSvc -->
<g id="node14" class="node">
<title>VisitSvc</title>
<path fill="none" stroke="black" d="M279.5,-201C279.5,-201 249.5,-201 249.5,-201 243.5,-201 237.5,-195 237.5,-189 237.5,-189 237.5,-177 237.5,-177 237.5,-171 243.5,-165 249.5,-165 249.5,-165 279.5,-165 279.5,-165 285.5,-165 291.5,-171 291.5,-177 291.5,-177 291.5,-189 291.5,-189 291.5,-195 285.5,-201 279.5,-201"/>
<text text-anchor="middle" x="264.5" y="-179.3" font-family="Times,serif" font-size="14.00">Visit</text>
</g>
<!-- EpisodeSvc&#45;&gt;VisitSvc -->
<g id="edge41" class="edge">
<title>EpisodeSvc&#45;&gt;VisitSvc</title>
<path fill="none" stroke="black" d="M333.34,-239.73C325.35,-233.89 316.47,-227.26 308.5,-221 303.12,-216.77 297.47,-212.16 292.08,-207.66"/>
<polygon fill="black" stroke="black" points="294.33,-204.98 284.42,-201.23 289.83,-210.34 294.33,-204.98"/>
</g>
<!-- TaskSvc -->
<g id="node15" class="node">
<title>TaskSvc</title>
<path fill="none" stroke="black" d="M312.5,-127C312.5,-127 282.5,-127 282.5,-127 276.5,-127 270.5,-121 270.5,-115 270.5,-115 270.5,-103 270.5,-103 270.5,-97 276.5,-91 282.5,-91 282.5,-91 312.5,-91 312.5,-91 318.5,-91 324.5,-97 324.5,-103 324.5,-103 324.5,-115 324.5,-115 324.5,-121 318.5,-127 312.5,-127"/>
<text text-anchor="middle" x="297.5" y="-105.3" font-family="Times,serif" font-size="14.00">Tasks</text>
</g>
<!-- EpisodeSvc&#45;&gt;TaskSvc -->
<g id="edge45" class="edge">
<title>EpisodeSvc&#45;&gt;TaskSvc</title>
<path fill="none" stroke="black" d="M341.97,-239.88C334.8,-231.18 326.74,-220.12 321.5,-209 310.64,-185.98 304.41,-157.56 301.03,-137.08"/>
<polygon fill="black" stroke="black" points="304.49,-136.52 299.51,-127.16 297.57,-137.58 304.49,-136.52"/>
</g>
<!-- EpisodeSvc&#45;&gt;ChiefComplaintSvc -->
<g id="edge42" class="edge">
<title>EpisodeSvc&#45;&gt;ChiefComplaintSvc</title>
<path fill="none" stroke="black" d="M331.82,-239.92C319.98,-232.77 305.48,-224.98 291.5,-220 264.72,-210.47 255.34,-218.35 228.5,-209 226.25,-208.22 223.99,-207.33 221.73,-206.38"/>
<polygon fill="black" stroke="black" points="223.09,-203.15 212.54,-202.12 220.14,-209.5 223.09,-203.15"/>
</g>
<!-- ServiceLineSvc -->
<g id="node17" class="node">
<title>ServiceLineSvc</title>
<polygon fill="none" stroke="black" stroke-dasharray="5,2" points="387,-202 330,-202 330,-164 387,-164 387,-202"/>
<polyline fill="none" stroke="black" stroke-dasharray="5,2" points="342,-202 330,-190 "/>
<polyline fill="none" stroke="black" stroke-dasharray="5,2" points="330,-176 342,-164 "/>
<polyline fill="none" stroke="black" stroke-dasharray="5,2" points="375,-164 387,-176 "/>
<polyline fill="none" stroke="black" stroke-dasharray="5,2" points="387,-190 375,-202 "/>
<text text-anchor="middle" x="358.5" y="-186.8" font-family="Times,serif" font-size="14.00">Service</text>
<text text-anchor="middle" x="358.5" y="-171.8" font-family="Times,serif" font-size="14.00">Line</text>
</g>
<!-- EpisodeSvc&#45;&gt;ServiceLineSvc -->
<g id="edge43" class="edge">
<title>EpisodeSvc&#45;&gt;ServiceLineSvc</title>
<path fill="none" stroke="black" d="M357.74,-239.7C357.85,-231.49 357.99,-221.47 358.11,-212.2"/>
<polygon fill="black" stroke="black" points="361.61,-212.24 358.25,-202.19 354.61,-212.15 361.61,-212.24"/>
</g>
<!-- EpisodeSvc&#45;&gt;PatientSvc -->
<g id="edge44" class="edge">
<title>EpisodeSvc&#45;&gt;PatientSvc</title>
<path fill="none" stroke="black" d="M387.68,-244.12C416.75,-231.71 460.77,-212.91 491.84,-199.65"/>
<polygon fill="black" stroke="black" points="493.62,-202.7 501.44,-195.55 490.87,-196.26 493.62,-202.7"/>
</g>
<!-- EHRProxy -->
<g id="node24" class="node">
<title>EHRProxy</title>
<path fill="none" stroke="black" d="M571.5,-127C571.5,-127 515.5,-127 515.5,-127 509.5,-127 503.5,-121 503.5,-115 503.5,-115 503.5,-103 503.5,-103 503.5,-97 509.5,-91 515.5,-91 515.5,-91 571.5,-91 571.5,-91 577.5,-91 583.5,-97 583.5,-103 583.5,-103 583.5,-115 583.5,-115 583.5,-121 577.5,-127 571.5,-127"/>
<text text-anchor="middle" x="543.5" y="-105.3" font-family="Times,serif" font-size="14.00">EHR Proxy</text>
</g>
<!-- EpisodeSvc&#45;&gt;EHRProxy -->
<g id="edge33" class="edge">
<title>EpisodeSvc&#45;&gt;EHRProxy</title>
<path fill="none" stroke="black" d="M381.9,-239.79C394.46,-230.8 409.95,-219.5 423.5,-209 455.72,-184.03 491.66,-154.09 515.74,-133.72"/>
<polygon fill="black" stroke="black" points="518.06,-136.34 523.42,-127.2 513.53,-131 518.06,-136.34"/>
</g>
<!-- NotificationSvc -->
<g id="node33" class="node">
<title>NotificationSvc</title>
<path fill="none" stroke="black" d="M473,-127C473,-127 416,-127 416,-127 410,-127 404,-121 404,-115 404,-115 404,-103 404,-103 404,-97 410,-91 416,-91 416,-91 473,-91 473,-91 479,-91 485,-97 485,-103 485,-103 485,-115 485,-115 485,-121 479,-127 473,-127"/>
<text text-anchor="middle" x="444.5" y="-105.3" font-family="Times,serif" font-size="14.00">Notification</text>
</g>
<!-- EpisodeSvc&#45;&gt;NotificationSvc -->
<g id="edge47" class="edge">
<title>EpisodeSvc&#45;&gt;NotificationSvc</title>
<path fill="none" stroke="black" d="M372.97,-239.96C380.58,-231.1 389.58,-219.87 396.5,-209 411.4,-185.6 424.84,-156.89 433.68,-136.42"/>
<polygon fill="black" stroke="black" points="436.96,-137.67 437.64,-127.09 430.51,-134.93 436.96,-137.67"/>
</g>
<!-- VisitSvc&#45;&gt;TaskSvc -->
<g id="edge46" class="edge">
<title>VisitSvc&#45;&gt;TaskSvc</title>
<path fill="none" stroke="black" d="M272.32,-164.94C276.17,-156.54 280.9,-146.23 285.21,-136.81"/>
<polygon fill="black" stroke="black" points="288.52,-137.99 289.51,-127.44 282.16,-135.07 288.52,-137.99"/>
</g>
<!-- VisitSvc&#45;&gt;ProviderSvc -->
<g id="edge49" class="edge">
<title>VisitSvc&#45;&gt;ProviderSvc</title>
<path fill="none" stroke="black" d="M289.18,-201.07C301.04,-208.67 315.85,-216.63 330.5,-220.5 378.84,-233.27 508.07,-236.31 555.5,-220.5 563.93,-217.69 572.09,-212.84 579.29,-207.53"/>
<polygon fill="black" stroke="black" points="581.6,-210.17 587.25,-201.2 577.24,-204.69 581.6,-210.17"/>
</g>
<!-- RevenueCycleManagementSvc&#45;&gt;EpisodeSvc -->
<g id="edge22" class="edge">
<title>RevenueCycleManagementSvc&#45;&gt;EpisodeSvc</title>
<path fill="none" stroke="black" d="M852.85,-341.17C804.17,-328.11 723.81,-307.66 653.5,-295 562.85,-278.68 455.22,-267.65 398.01,-262.45"/>
<polygon fill="black" stroke="black" points="398.2,-258.95 387.93,-261.54 397.57,-265.92 398.2,-258.95"/>
</g>
<!-- InsuranceProxy -->
<g id="node19" class="node">
<title>InsuranceProxy</title>
<path fill="none" stroke="black" d="M946,-276C946,-276 865,-276 865,-276 859,-276 853,-270 853,-264 853,-264 853,-252 853,-252 853,-246 859,-240 865,-240 865,-240 946,-240 946,-240 952,-240 958,-246 958,-252 958,-252 958,-264 958,-264 958,-270 952,-276 946,-276"/>
<text text-anchor="middle" x="905.5" y="-254.3" font-family="Times,serif" font-size="14.00">Insurance Proxy</text>
</g>
<!-- RevenueCycleManagementSvc&#45;&gt;InsuranceProxy -->
<g id="edge23" class="edge">
<title>RevenueCycleManagementSvc&#45;&gt;InsuranceProxy</title>
<path fill="none" stroke="black" d="M899.69,-327.68C900.77,-314.87 902.08,-299.4 903.18,-286.38"/>
<polygon fill="black" stroke="black" points="906.69,-286.4 904.05,-276.14 899.72,-285.81 906.69,-286.4"/>
</g>
<!-- LogisticsSvc&#45;&gt;EquipmentSvc -->
<g id="edge26" class="edge">
<title>LogisticsSvc&#45;&gt;EquipmentSvc</title>
<path fill="none" stroke="black" d="M695.92,-239.7C696.62,-231.25 697.47,-220.87 698.25,-211.37"/>
<polygon fill="black" stroke="black" points="701.76,-211.43 699.09,-201.18 694.78,-210.86 701.76,-211.43"/>
</g>
<!-- LogisticsSvc&#45;&gt;PatientSvc -->
<g id="edge27" class="edge">
<title>LogisticsSvc&#45;&gt;PatientSvc</title>
<path fill="none" stroke="black" d="M661.24,-247.05C634.63,-238.51 596.73,-225.07 565.5,-209 563.94,-208.2 562.36,-207.34 560.78,-206.44"/>
<polygon fill="black" stroke="black" points="562.23,-203.22 551.87,-201 558.58,-209.2 562.23,-203.22"/>
</g>
<!-- LogisticsSvc&#45;&gt;ProviderSvc -->
<g id="edge28" class="edge">
<title>LogisticsSvc&#45;&gt;ProviderSvc</title>
<path fill="none" stroke="black" d="M661.18,-246.37C647.47,-240.64 632.31,-232.37 621.5,-221 618.65,-218.01 616.27,-214.42 614.28,-210.68"/>
<polygon fill="black" stroke="black" points="617.38,-209.04 610.14,-201.31 610.98,-211.87 617.38,-209.04"/>
</g>
<!-- PatientSvc&#45;&gt;EHRProxy -->
<g id="edge34" class="edge">
<title>PatientSvc&#45;&gt;EHRProxy</title>
<path fill="none" stroke="black" d="M532.05,-164.94C533.77,-156.72 535.86,-146.66 537.79,-137.41"/>
<polygon fill="black" stroke="black" points="541.25,-137.94 539.87,-127.44 534.4,-136.52 541.25,-137.94"/>
</g>
<!-- PatientSvc&#45;&gt;NotificationSvc -->
<g id="edge48" class="edge">
<title>PatientSvc&#45;&gt;NotificationSvc</title>
<path fill="none" stroke="black" d="M508.59,-164.94C497.79,-155.68 484.27,-144.09 472.43,-133.94"/>
<polygon fill="black" stroke="black" points="474.43,-131.04 464.56,-127.19 469.87,-136.36 474.43,-131.04"/>
</g>
<!-- ProviderSvc&#45;&gt;EHRProxy -->
<g id="edge35" class="edge">
<title>ProviderSvc&#45;&gt;EHRProxy</title>
<path fill="none" stroke="black" d="M590.81,-164.94C583.12,-156.01 573.57,-144.92 565.06,-135.04"/>
<polygon fill="black" stroke="black" points="567.7,-132.73 558.52,-127.44 562.39,-137.3 567.7,-132.73"/>
</g>
<!-- EHR -->
<g id="node25" class="node">
<title>EHR</title>
<path fill="none" stroke="red" d="M564,-54C564,-54 523,-54 523,-54 517,-54 511,-48 511,-42 511,-42 511,-28 511,-28 511,-22 517,-16 523,-16 523,-16 564,-16 564,-16 570,-16 576,-22 576,-28 576,-28 576,-42 576,-42 576,-48 570,-54 564,-54"/>
<text text-anchor="middle" x="543.5" y="-38.8" font-family="Times,serif" font-size="14.00">EHR</text>
<text text-anchor="middle" x="543.5" y="-23.8" font-family="Times,serif" font-size="14.00">(Athena)</text>
</g>
<!-- EHRProxy&#45;&gt;EHR -->
<g id="edge36" class="edge">
<title>EHRProxy&#45;&gt;EHR</title>
<path fill="none" stroke="black" d="M543.5,-90.94C543.5,-82.99 543.5,-73.31 543.5,-64.31"/>
<polygon fill="black" stroke="black" points="547,-64.2 543.5,-54.2 540,-64.2 547,-64.2"/>
</g>
<!-- AuthSvc -->
<g id="node26" class="node">
<title>AuthSvc</title>
<path fill="none" stroke="red" d="M1389.5,-537.5C1389.5,-537.5 1359.5,-537.5 1359.5,-537.5 1353.5,-537.5 1347.5,-531.5 1347.5,-525.5 1347.5,-525.5 1347.5,-513.5 1347.5,-513.5 1347.5,-507.5 1353.5,-501.5 1359.5,-501.5 1359.5,-501.5 1389.5,-501.5 1389.5,-501.5 1395.5,-501.5 1401.5,-507.5 1401.5,-513.5 1401.5,-513.5 1401.5,-525.5 1401.5,-525.5 1401.5,-531.5 1395.5,-537.5 1389.5,-537.5"/>
<text text-anchor="middle" x="1374.5" y="-515.8" font-family="Times,serif" font-size="14.00">Auth</text>
</g>
<!-- AuditingSvc -->
<g id="node27" class="node">
<title>AuditingSvc</title>
<path fill="none" stroke="black" d="M1317,-537.5C1317,-537.5 1276,-537.5 1276,-537.5 1270,-537.5 1264,-531.5 1264,-525.5 1264,-525.5 1264,-513.5 1264,-513.5 1264,-507.5 1270,-501.5 1276,-501.5 1276,-501.5 1317,-501.5 1317,-501.5 1323,-501.5 1329,-507.5 1329,-513.5 1329,-513.5 1329,-525.5 1329,-525.5 1329,-531.5 1323,-537.5 1317,-537.5"/>
<text text-anchor="middle" x="1296.5" y="-515.8" font-family="Times,serif" font-size="14.00">Auditing</text>
</g>
<!-- LoggingSvc -->
<g id="node28" class="node">
<title>LoggingSvc</title>
<g id="a_node28"><a xlink:title="Handles general log aggregation as well as siloing of PHI/scrubbable/PHI&#45;free data. May vend events for data consumers.">
<path fill="none" stroke="black" d="M1233.5,-537.5C1233.5,-537.5 1151.5,-537.5 1151.5,-537.5 1145.5,-537.5 1139.5,-531.5 1139.5,-525.5 1139.5,-525.5 1139.5,-513.5 1139.5,-513.5 1139.5,-507.5 1145.5,-501.5 1151.5,-501.5 1151.5,-501.5 1233.5,-501.5 1233.5,-501.5 1239.5,-501.5 1245.5,-507.5 1245.5,-513.5 1245.5,-513.5 1245.5,-525.5 1245.5,-525.5 1245.5,-531.5 1239.5,-537.5 1233.5,-537.5"/>
<text text-anchor="middle" x="1192.5" y="-515.8" font-family="Times,serif" font-size="14.00">LogAggregation</text>
</a>
</g>
</g>
<!-- RiskAssessmentSvc&#45;&gt;ChiefComplaintSvc -->
<g id="edge39" class="edge">
<title>RiskAssessmentSvc&#45;&gt;ChiefComplaintSvc</title>
<path fill="none" stroke="black" d="M93.22,-238.74C95.68,-232.15 99.3,-225.09 104.5,-220 113.76,-210.94 119.68,-214.3 131.5,-209 133.32,-208.18 135.18,-207.34 137.04,-206.48"/>
<polygon fill="black" stroke="black" points="138.87,-209.49 146.43,-202.06 135.89,-203.15 138.87,-209.49"/>
</g>
<!-- RiskAssessmentSvc&#45;&gt;PatientSvc -->
<g id="edge40" class="edge">
<title>RiskAssessmentSvc&#45;&gt;PatientSvc</title>
<path fill="none" stroke="black" d="M116.75,-238.98C122.14,-236.22 127.86,-233.72 133.5,-232 246.98,-197.31 281.98,-225.42 399.5,-209 430.68,-204.64 465.72,-197.72 491.41,-192.26"/>
<polygon fill="black" stroke="black" points="492.42,-195.63 501.46,-190.1 490.95,-188.78 492.42,-195.63"/>
</g>
<!-- ExternalPartnerSystems -->
<g id="node31" class="node">
<title>ExternalPartnerSystems</title>
<path fill="none" stroke="red" d="M251,-53C251,-53 12,-53 12,-53 6,-53 0,-47 0,-41 0,-41 0,-29 0,-29 0,-23 6,-17 12,-17 12,-17 251,-17 251,-17 257,-17 263,-23 263,-29 263,-29 263,-41 263,-41 263,-47 257,-53 251,-53"/>
<text text-anchor="middle" x="131.5" y="-31.3" font-family="Times,serif" font-size="14.00">External partner systems (Redox, Salesforce)</text>
</g>
<!-- PartnerSvc&#45;&gt;ExternalPartnerSystems -->
<g id="edge50" class="edge">
<title>PartnerSvc&#45;&gt;ExternalPartnerSystems</title>
<path fill="none" stroke="black" d="M98.82,-164.97C105.16,-139.94 117.06,-92.96 124.62,-63.15"/>
<polygon fill="black" stroke="black" points="128.03,-63.93 127.1,-53.38 121.25,-62.21 128.03,-63.93"/>
</g>
<!-- PartnerSvc&#45;&gt;NotificationSvc -->
<g id="edge51" class="edge">
<title>PartnerSvc&#45;&gt;NotificationSvc</title>
<path fill="none" stroke="black" d="M117.52,-164.82C122.57,-161.76 128.04,-158.94 133.5,-157 242.44,-118.32 281.62,-152.83 393.92,-128.16"/>
<polygon fill="black" stroke="black" points="394.97,-131.51 403.93,-125.85 393.39,-124.69 394.97,-131.51"/>
</g>
<!-- PatientEngagementSystems -->
<g id="node32" class="node">
<title>PatientEngagementSystems</title>
<path fill="none" stroke="red" d="M473,-53C473,-53 330,-53 330,-53 324,-53 318,-47 318,-41 318,-41 318,-29 318,-29 318,-23 324,-17 330,-17 330,-17 473,-17 473,-17 479,-17 485,-23 485,-29 485,-29 485,-41 485,-41 485,-47 479,-53 473,-53"/>
<text text-anchor="middle" x="401.5" y="-31.3" font-family="Times,serif" font-size="14.00">Patient notification systems</text>
</g>
<!-- NotificationSvc&#45;&gt;ExternalPartnerSystems -->
<g id="edge52" class="edge">
<title>NotificationSvc&#45;&gt;ExternalPartnerSystems</title>
<path fill="none" stroke="black" d="M417.09,-90.89C411.43,-87.9 405.4,-85.09 399.5,-83 359.51,-68.84 314.6,-58.83 273.14,-51.8"/>
<polygon fill="black" stroke="black" points="273.68,-48.34 263.24,-50.17 272.54,-55.25 273.68,-48.34"/>
</g>
<!-- NotificationSvc&#45;&gt;PatientEngagementSystems -->
<g id="edge53" class="edge">
<title>NotificationSvc&#45;&gt;PatientEngagementSystems</title>
<path fill="none" stroke="black" d="M434.31,-90.94C429.19,-82.37 422.88,-71.79 417.16,-62.22"/>
<polygon fill="black" stroke="black" points="420.05,-60.23 411.92,-53.44 414.04,-63.82 420.05,-60.23"/>
</g>
</g>
</svg>
