<?xml version="1.0" encoding="UTF-8" standalone="no"?>
<!DOCTYPE svg PUBLIC "-//W3C//DTD SVG 1.1//EN"
 "http://www.w3.org/Graphics/SVG/1.1/DTD/svg11.dtd">
<!-- Generated by graphviz version 2.50.0 (20211204.2007)
 -->
<!-- Title: G Pages: 1 -->
<svg width="406pt" height="499pt"
 viewBox="0.00 0.00 406.00 499.00" xmlns="http://www.w3.org/2000/svg" xmlns:xlink="http://www.w3.org/1999/xlink">
<g id="graph0" class="graph" transform="scale(1 1) rotate(0) translate(4 495)">
<title>G</title>
<polygon fill="white" stroke="transparent" points="-4,4 -4,-495 402,-495 402,4 -4,4"/>
<g id="clust1" class="cluster">
<title>cluster_Station</title>
<polygon fill="none" stroke="black" stroke-dasharray="1,5" points="279,-145 279,-328 390,-328 390,-145 279,-145"/>
<text text-anchor="middle" x="334.5" y="-312.8" font-family="Times,serif" font-size="14.00">Station</text>
</g>
<g id="clust2" class="cluster">
<title>cluster_Logistics</title>
<polygon fill="none" stroke="black" points="8,-336 8,-483 378.5,-483 378.5,-336 8,-336"/>
<text text-anchor="middle" x="193.25" y="-467.8" font-family="Times,serif" font-size="14.00">Logistics</text>
</g>
<g id="clust3" class="cluster">
<title>cluster_MapsData</title>
<polygon fill="none" stroke="black" points="281,-8 281,-137 388,-137 388,-8 281,-8"/>
<text text-anchor="middle" x="334.5" y="-121.8" font-family="Times,serif" font-size="14.00">Map Data</text>
</g>
<!-- CareReqSvc -->
<g id="node1" class="node">
<title>CareReqSvc</title>
<path fill="none" stroke="black" d="M370,-243C370,-243 299,-243 299,-243 293,-243 287,-237 287,-231 287,-231 287,-219 287,-219 287,-213 293,-207 299,-207 299,-207 370,-207 370,-207 376,-207 382,-213 382,-219 382,-219 382,-231 382,-231 382,-237 376,-243 370,-243"/>
<text text-anchor="middle" x="334.5" y="-221.3" font-family="Times,serif" font-size="14.00">Care Requests</text>
</g>
<!-- ShiftTeamSvc -->
<g id="node2" class="node">
<title>ShiftTeamSvc</title>
<path fill="none" stroke="black" d="M363.5,-189C363.5,-189 305.5,-189 305.5,-189 299.5,-189 293.5,-183 293.5,-177 293.5,-177 293.5,-165 293.5,-165 293.5,-159 299.5,-153 305.5,-153 305.5,-153 363.5,-153 363.5,-153 369.5,-153 375.5,-159 375.5,-165 375.5,-165 375.5,-177 375.5,-177 375.5,-183 369.5,-189 363.5,-189"/>
<text text-anchor="middle" x="334.5" y="-167.3" font-family="Times,serif" font-size="14.00">Shift Teams</text>
</g>
<!-- Station -->
<g id="node3" class="node">
<title>Station</title>
<path fill="none" stroke="black" d="M350,-297C350,-297 319,-297 319,-297 313,-297 307,-291 307,-285 307,-285 307,-273 307,-273 307,-267 313,-261 319,-261 319,-261 350,-261 350,-261 356,-261 362,-267 362,-273 362,-273 362,-285 362,-285 362,-291 356,-297 350,-297"/>
<text text-anchor="middle" x="334.5" y="-275.3" font-family="Times,serif" font-size="14.00">Station</text>
</g>
<!-- LogisticsSvc -->
<g id="node4" class="node">
<title>LogisticsSvc</title>
<path fill="none" stroke="black" d="M70,-382C70,-382 28,-382 28,-382 22,-382 16,-376 16,-370 16,-370 16,-356 16,-356 16,-350 22,-344 28,-344 28,-344 70,-344 70,-344 76,-344 82,-350 82,-356 82,-356 82,-370 82,-370 82,-376 76,-382 70,-382"/>
<text text-anchor="middle" x="49" y="-366.8" font-family="Times,serif" font-size="14.00">Logistics</text>
<text text-anchor="middle" x="49" y="-351.8" font-family="Times,serif" font-size="14.00">(Go)</text>
</g>
<!-- Station&#45;&gt;LogisticsSvc -->
<g id="edge1" class="edge">
<title>Station&#45;&gt;LogisticsSvc</title>
<path fill="none" stroke="black" d="M306.65,-285.62C262.97,-296.58 173.96,-319.71 100,-344 97.27,-344.9 94.47,-345.85 91.66,-346.84"/>
<polygon fill="black" stroke="black" points="90.33,-343.6 82.12,-350.3 92.72,-350.18 90.33,-343.6"/>
<text text-anchor="middle" x="184.5" y="-347.8" font-family="Times,serif" font-size="14.00">Update Care Reqs/Shift Teams</text>
</g>
<!-- LogisticsSvc&#45;&gt;CareReqSvc -->
<g id="edge6" class="edge">
<title>LogisticsSvc&#45;&gt;CareReqSvc</title>
<path fill="none" stroke="black" d="M58.81,-343.94C67.2,-327.82 81.33,-305.28 100,-292 152.89,-254.38 226.57,-237.77 276.94,-230.52"/>
<polygon fill="black" stroke="black" points="277.56,-233.96 287,-229.15 276.62,-227.03 277.56,-233.96"/>
</g>
<!-- LogisticsSvc&#45;&gt;ShiftTeamSvc -->
<g id="edge7" class="edge">
<title>LogisticsSvc&#45;&gt;ShiftTeamSvc</title>
<path fill="none" stroke="black" d="M51.55,-343.75C54.97,-314.34 65.85,-258.42 100,-228 150.68,-182.85 231.22,-172.06 283.22,-170.2"/>
<polygon fill="black" stroke="black" points="283.32,-173.7 293.22,-169.94 283.13,-166.7 283.32,-173.7"/>
</g>
<!-- OptimizerSvc -->
<g id="node5" class="node">
<title>OptimizerSvc</title>
<path fill="none" stroke="black" d="M358.5,-382C358.5,-382 310.5,-382 310.5,-382 304.5,-382 298.5,-376 298.5,-370 298.5,-370 298.5,-356 298.5,-356 298.5,-350 304.5,-344 310.5,-344 310.5,-344 358.5,-344 358.5,-344 364.5,-344 370.5,-350 370.5,-356 370.5,-356 370.5,-370 370.5,-370 370.5,-376 364.5,-382 358.5,-382"/>
<text text-anchor="middle" x="334.5" y="-366.8" font-family="Times,serif" font-size="14.00">Optimizer</text>
<text text-anchor="middle" x="334.5" y="-351.8" font-family="Times,serif" font-size="14.00">(Java)</text>
</g>
<!-- LogisticsSvc&#45;&gt;OptimizerSvc -->
<g id="edge4" class="edge">
<title>LogisticsSvc&#45;&gt;OptimizerSvc</title>
<path fill="none" stroke="black" d="M82.25,-363C132.66,-363 230.32,-363 287.91,-363"/>
<polygon fill="black" stroke="black" points="288.18,-366.5 298.18,-363 288.18,-359.5 288.18,-366.5"/>
</g>
<!-- LogisticsDB -->
<g id="node6" class="node">
<title>LogisticsDB</title>
<path fill="none" stroke="black" d="M367.5,-447.48C367.5,-450.11 352.71,-452.25 334.5,-452.25 316.29,-452.25 301.5,-450.11 301.5,-447.48 301.5,-447.48 301.5,-404.52 301.5,-404.52 301.5,-401.89 316.29,-399.75 334.5,-399.75 352.71,-399.75 367.5,-401.89 367.5,-404.52 367.5,-404.52 367.5,-447.48 367.5,-447.48"/>
<path fill="none" stroke="black" d="M367.5,-447.48C367.5,-444.84 352.71,-442.7 334.5,-442.7 316.29,-442.7 301.5,-444.84 301.5,-447.48"/>
<text text-anchor="middle" x="334.5" y="-429.8" font-family="Times,serif" font-size="14.00">Logistics</text>
<text text-anchor="middle" x="334.5" y="-414.8" font-family="Times,serif" font-size="14.00">DB</text>
</g>
<!-- LogisticsSvc&#45;&gt;LogisticsDB -->
<g id="edge5" class="edge">
<title>LogisticsSvc&#45;&gt;LogisticsDB</title>
<path fill="none" stroke="black" d="M82.25,-370.17C133.72,-381.6 234.46,-403.99 291.5,-416.67"/>
<polygon fill="black" stroke="black" points="290.76,-420.09 301.29,-418.84 292.28,-413.26 290.76,-420.09"/>
</g>
<!-- OSRM -->
<g id="node7" class="node">
<title>OSRM</title>
<path fill="none" stroke="black" d="M350.5,-106C350.5,-106 318.5,-106 318.5,-106 312.5,-106 306.5,-100 306.5,-94 306.5,-94 306.5,-82 306.5,-82 306.5,-76 312.5,-70 318.5,-70 318.5,-70 350.5,-70 350.5,-70 356.5,-70 362.5,-76 362.5,-82 362.5,-82 362.5,-94 362.5,-94 362.5,-100 356.5,-106 350.5,-106"/>
<text text-anchor="middle" x="334.5" y="-84.3" font-family="Times,serif" font-size="14.00">OSRM</text>
</g>
<!-- LogisticsSvc&#45;&gt;OSRM -->
<g id="edge2" class="edge">
<title>LogisticsSvc&#45;&gt;OSRM</title>
<path fill="none" stroke="black" d="M49.24,-343.77C48.79,-305.11 53.34,-217.37 100,-167 151.83,-111.05 244.66,-94.71 296.29,-89.95"/>
<polygon fill="black" stroke="black" points="296.67,-93.43 306.34,-89.12 296.09,-86.46 296.67,-93.43"/>
</g>
<!-- GoogleMapsSvc -->
<g id="node8" class="node">
<title>GoogleMapsSvc</title>
<path fill="none" stroke="black" d="M368,-52C368,-52 301,-52 301,-52 295,-52 289,-46 289,-40 289,-40 289,-28 289,-28 289,-22 295,-16 301,-16 301,-16 368,-16 368,-16 374,-16 380,-22 380,-28 380,-28 380,-40 380,-40 380,-46 374,-52 368,-52"/>
<text text-anchor="middle" x="334.5" y="-30.3" font-family="Times,serif" font-size="14.00">Google Maps</text>
</g>
<!-- LogisticsSvc&#45;&gt;GoogleMapsSvc -->
<g id="edge3" class="edge">
<title>LogisticsSvc&#45;&gt;GoogleMapsSvc</title>
<path fill="none" stroke="black" d="M50.91,-343.84C53.93,-288.27 65.5,-128.68 100,-92 145.62,-43.51 224.93,-32.92 278.31,-31.83"/>
<polygon fill="black" stroke="black" points="278.66,-35.33 288.62,-31.73 278.59,-28.33 278.66,-35.33"/>
</g>
</g>
</svg>
