<?xml version="1.0" encoding="UTF-8" standalone="no"?>
<!DOCTYPE svg PUBLIC "-//W3C//DTD SVG 1.1//EN"
 "http://www.w3.org/Graphics/SVG/1.1/DTD/svg11.dtd">
<!-- Generated by graphviz version 7.1.0 (20230121.1956)
 -->
<!-- Title: G Pages: 1 -->
<svg width="493pt" height="420pt"
 viewBox="0.00 0.00 493.00 420.00" xmlns="http://www.w3.org/2000/svg" xmlns:xlink="http://www.w3.org/1999/xlink">
<g id="graph0" class="graph" transform="scale(1 1) rotate(0) translate(4 416)">
<title>G</title>
<polygon fill="white" stroke="none" points="-4,4 -4,-416 489,-416 489,4 -4,4"/>
<g id="clust1" class="cluster">
<title>cluster_patients</title>
<polygon fill="none" stroke="black" points="101.5,-188 101.5,-263 289.5,-263 289.5,-188 101.5,-188"/>
<text text-anchor="middle" x="195.5" y="-247.8" font-family="Times,serif" font-size="14.00">Patients Service</text>
</g>
<g id="clust2" class="cluster">
<title>cluster_athena</title>
<polygon fill="none" stroke="black" points="65.5,-8 65.5,-83 301.5,-83 301.5,-8 65.5,-8"/>
<text text-anchor="middle" x="183.5" y="-67.8" font-family="Times,serif" font-size="14.00">Athena Service</text>
</g>
<!-- caremanager -->
<g id="node1" class="node">
<title>caremanager</title>
<path fill="none" stroke="black" d="M134,-412C134,-412 67,-412 67,-412 61,-412 55,-406 55,-400 55,-400 55,-388 55,-388 55,-382 61,-376 67,-376 67,-376 134,-376 134,-376 140,-376 146,-382 146,-388 146,-388 146,-400 146,-400 146,-406 140,-412 134,-412"/>
<text text-anchor="middle" x="100.5" y="-390.3" font-family="Times,serif" font-size="14.00">CareManager</text>
</g>
<!-- patients_service -->
<g id="node7" class="node">
<title>patients_service</title>
<path fill="none" stroke="black" d="M269.5,-232C269.5,-232 121.5,-232 121.5,-232 115.5,-232 109.5,-226 109.5,-220 109.5,-220 109.5,-208 109.5,-208 109.5,-202 115.5,-196 121.5,-196 121.5,-196 269.5,-196 269.5,-196 275.5,-196 281.5,-202 281.5,-208 281.5,-208 281.5,-220 281.5,-220 281.5,-226 275.5,-232 269.5,-232"/>
<polygon fill="none" stroke="black" points="117.5,-203 117.5,-224 187.5,-224 187.5,-203 117.5,-203"/>
<text text-anchor="start" x="120.5" y="-209.8" font-family="Times,serif" font-size="14.00">ListPatients</text>
<polygon fill="none" stroke="black" points="187.5,-203 187.5,-224 273.5,-224 273.5,-203 187.5,-203"/>
<text text-anchor="start" x="190.5" y="-209.8" font-family="Times,serif" font-size="14.00">SearchPatients</text>
</g>
<!-- caremanager&#45;&gt;patients_service -->
<g id="edge1" class="edge">
<title>caremanager&#45;&gt;patients_service:listpatients</title>
<path fill="none" stroke="black" d="M109.56,-375.89C123.47,-348.08 148.83,-290.71 152.14,-236.51"/>
<polygon fill="black" stroke="black" points="155.64,-236.62 152.45,-226.51 148.64,-236.4 155.64,-236.62"/>
</g>
<!-- onboarding -->
<g id="node2" class="node">
<title>onboarding</title>
<path fill="none" stroke="black" d="M233,-412C233,-412 176,-412 176,-412 170,-412 164,-406 164,-400 164,-400 164,-388 164,-388 164,-382 170,-376 176,-376 176,-376 233,-376 233,-376 239,-376 245,-382 245,-388 245,-388 245,-400 245,-400 245,-406 239,-412 233,-412"/>
<text text-anchor="middle" x="204.5" y="-390.3" font-family="Times,serif" font-size="14.00">Onboarding</text>
</g>
<!-- onboarding&#45;&gt;patients_service -->
<g id="edge2" class="edge">
<title>onboarding&#45;&gt;patients_service:listpatients</title>
<path fill="none" stroke="black" d="M195.44,-375.89C181.53,-348.08 156.17,-290.71 152.86,-236.51"/>
<polygon fill="black" stroke="black" points="156.36,-236.4 152.55,-226.51 149.36,-236.62 156.36,-236.4"/>
</g>
<!-- express -->
<g id="node3" class="node">
<title>express</title>
<path fill="none" stroke="black" d="M330,-412C330,-412 295,-412 295,-412 289,-412 283,-406 283,-400 283,-400 283,-388 283,-388 283,-382 289,-376 295,-376 295,-376 330,-376 330,-376 336,-376 342,-382 342,-388 342,-388 342,-400 342,-400 342,-406 336,-412 330,-412"/>
<text text-anchor="middle" x="312.5" y="-390.3" font-family="Times,serif" font-size="14.00">Express</text>
</g>
<!-- pophealth_service -->
<g id="node4" class="node">
<title>pophealth_service</title>
<path fill="none" stroke="black" d="M431.5,-232C431.5,-232 337.5,-232 337.5,-232 331.5,-232 325.5,-226 325.5,-220 325.5,-220 325.5,-208 325.5,-208 325.5,-202 331.5,-196 337.5,-196 337.5,-196 431.5,-196 431.5,-196 437.5,-196 443.5,-202 443.5,-208 443.5,-208 443.5,-220 443.5,-220 443.5,-226 437.5,-232 431.5,-232"/>
<text text-anchor="middle" x="384.5" y="-210.3" font-family="Times,serif" font-size="14.00">PopHealth Service</text>
</g>
<!-- express&#45;&gt;pophealth_service -->
<g id="edge4" class="edge">
<title>express&#45;&gt;pophealth_service</title>
<path fill="none" stroke="black" d="M319.53,-375.61C332.01,-344.77 358.1,-280.26 373.15,-243.06"/>
<polygon fill="black" stroke="black" points="376.36,-244.45 376.87,-233.87 369.87,-241.82 376.36,-244.45"/>
</g>
<!-- express&#45;&gt;patients_service -->
<g id="edge3" class="edge">
<title>express&#45;&gt;patients_service:searchpatients</title>
<path fill="none" stroke="black" d="M312.49,-375.74C312.06,-335.97 308.54,-239.59 284.98,-217.54"/>
<polygon fill="black" stroke="black" points="286.46,-214.37 275.89,-213.6 283.67,-220.79 286.46,-214.37"/>
</g>
<!-- pophealth_db -->
<g id="node5" class="node">
<title>pophealth_db</title>
<path fill="none" stroke="black" d="M473,-52C473,-52 324,-52 324,-52 318,-52 312,-46 312,-40 312,-40 312,-28 312,-28 312,-22 318,-16 324,-16 324,-16 473,-16 473,-16 479,-16 485,-22 485,-28 485,-28 485,-40 485,-40 485,-46 479,-52 473,-52"/>
<text text-anchor="middle" x="398.5" y="-30.3" font-family="Times,serif" font-size="14.00">PopHealth ElasticSearch DB</text>
</g>
<!-- pophealth_service&#45;&gt;pophealth_db -->
<g id="edge8" class="edge">
<title>pophealth_service&#45;&gt;pophealth_db</title>
<path fill="none" stroke="black" d="M385.87,-195.61C388.28,-164.9 393.32,-100.81 396.26,-63.54"/>
<polygon fill="black" stroke="black" points="399.71,-64.21 397.01,-53.97 392.73,-63.67 399.71,-64.21"/>
</g>
<!-- station -->
<g id="node6" class="node">
<title>station</title>
<path fill="none" stroke="black" d="M43,-52C43,-52 12,-52 12,-52 6,-52 0,-46 0,-40 0,-40 0,-28 0,-28 0,-22 6,-16 12,-16 12,-16 43,-16 43,-16 49,-16 55,-22 55,-28 55,-28 55,-40 55,-40 55,-46 49,-52 43,-52"/>
<text text-anchor="middle" x="27.5" y="-30.3" font-family="Times,serif" font-size="14.00">Station</text>
</g>
<!-- patients_service&#45;&gt;station -->
<g id="edge7" class="edge">
<title>patients_service&#45;&gt;station</title>
<path fill="none" stroke="black" d="M175.29,-195.54C148.03,-171.52 98.62,-126.32 61.5,-83 55.84,-76.39 50.17,-68.86 45.14,-61.75"/>
<polygon fill="black" stroke="black" points="48.14,-59.94 39.58,-53.7 42.38,-63.92 48.14,-59.94"/>
</g>
<!-- athena_service -->
<g id="node8" class="node">
<title>athena_service</title>
<path fill="none" stroke="black" d="M281.5,-52C281.5,-52 85.5,-52 85.5,-52 79.5,-52 73.5,-46 73.5,-40 73.5,-40 73.5,-28 73.5,-28 73.5,-22 79.5,-16 85.5,-16 85.5,-16 281.5,-16 281.5,-16 287.5,-16 293.5,-22 293.5,-28 293.5,-28 293.5,-40 293.5,-40 293.5,-46 287.5,-52 281.5,-52"/>
<polygon fill="none" stroke="black" points="81.5,-23 81.5,-44 200.5,-44 200.5,-23 81.5,-23"/>
<text text-anchor="start" x="84.5" y="-29.8" font-family="Times,serif" font-size="14.00">EnhancedBestMatch</text>
<polygon fill="none" stroke="black" points="200.5,-23 200.5,-44 285.5,-44 285.5,-23 200.5,-23"/>
<text text-anchor="start" x="203.5" y="-29.8" font-family="Times,serif" font-size="14.00">Patient Search</text>
</g>
<!-- patients_service&#45;&gt;athena_service -->
<g id="edge5" class="edge">
<title>patients_service:listpatients&#45;&gt;athena_service:enhancedbestmatch</title>
<path fill="none" stroke="black" d="M152.5,-202C152.5,-135.98 141.82,-117.08 140.61,-56.4"/>
<polygon fill="black" stroke="black" points="144.11,-56.48 140.51,-46.51 137.11,-56.55 144.11,-56.48"/>
</g>
<!-- patients_service&#45;&gt;athena_service -->
<g id="edge6" class="edge">
<title>patients_service:searchpatients&#45;&gt;athena_service:searchpatients</title>
<path fill="none" stroke="black" d="M230.5,-202C230.5,-135.95 242.07,-117.11 243.38,-56.41"/>
<polygon fill="black" stroke="black" points="246.88,-56.55 243.48,-46.51 239.88,-56.48 246.88,-56.55"/>
</g>
</g>
</svg>
